<?xml version="1.0" encoding="utf-8"?>
<!-- Generator: Adobe Illustrator 16.0.0, SVG Export Plug-In . SVG Version: 6.00 Build 0)  -->
<!DOCTYPE svg PUBLIC "-//W3C//DTD SVG 1.1//EN" "http://www.w3.org/Graphics/SVG/1.1/DTD/svg11.dtd">
<svg version="1.1" id="Layer_1" xmlns="http://www.w3.org/2000/svg" xmlns:xlink="http://www.w3.org/1999/xlink" x="0px" y="0px"
	 width="2800px" height="2800px" viewBox="0 0 2800 2800" enable-background="new 0 0 2800 2800" xml:space="preserve">
<rect fill="#FFFFFF" width="2800" height="2800"/>
<g>
	<path fill="#333333" d="M645.7,514.4l-23.1-23.1c2.4-7.6,3.7-15.7,3.7-24.1c0-4.1-3.4-7.5-7.5-7.5s-7.5,3.4-7.5,7.5
		c0,36.1-29.4,65.5-65.5,65.5c-36.1,0-65.5-29.4-65.5-65.5c0-4.1-3.4-7.5-7.5-7.5s-7.5,3.4-7.5,7.5c0,8.4,1.3,16.5,3.7,24.2l-23,23
		c-2.9,2.9-2.9,7.7,0,10.6c1.5,1.5,3.4,2.2,5.3,2.2c1.9,0,3.8-0.7,5.3-2.2l18.8-18.8c12.6,22.6,35.8,38.6,62.9,41.1v29.3
		c0,4.1,3.4,7.5,7.5,7.5s7.5-3.4,7.5-7.5v-29.3c27.1-2.5,50.3-18.5,62.9-41.2l18.9,18.9c1.5,1.5,3.4,2.2,5.3,2.2s3.8-0.7,5.3-2.2
		C648.6,522.1,648.6,517.4,645.7,514.4z"/>
	<path fill="#333333" d="M887.5,514.4l-23.1-23.1c2.4-7.6,3.7-15.7,3.7-24.1c0-4.1-3.4-7.5-7.5-7.5s-7.5,3.4-7.5,7.5
		c0,36.1-29.4,65.5-65.5,65.5c-36.1,0-65.5-29.4-65.5-65.5c0-4.1-3.4-7.5-7.5-7.5s-7.5,3.4-7.5,7.5c0,8.4,1.3,16.5,3.7,24.2l-23,23
		c-2.9,2.9-2.9,7.7,0,10.6c1.5,1.5,3.4,2.2,5.3,2.2c1.9,0,3.8-0.7,5.3-2.2l18.8-18.8c12.6,22.6,35.8,38.6,62.9,41.1v29.3
		c0,4.1,3.4,7.5,7.5,7.5s7.5-3.4,7.5-7.5v-29.3c27.1-2.5,50.3-18.5,62.9-41.2l18.9,18.9c1.5,1.5,3.4,2.2,5.3,2.2s3.8-0.7,5.3-2.2
		C890.4,522.1,890.4,517.4,887.5,514.4z"/>
	<circle fill="#F39DA3" cx="925.8" cy="586.8" r="43.6"/>
	<circle fill="#F39DA3" cx="407.6" cy="586.8" r="43.6"/>
</g>
<g>
	<path fill="#333333" d="M2098.8,443.4c-41.8,0-76.3,32.1-80.1,73h-32.8c-4.1,0-7.5,3.4-7.5,7.5s3.4,7.5,7.5,7.5h36.5
		c0.6,0,1.2-0.1,1.7-0.2c0.6,0.1,1.1,0.2,1.7,0.2c4.1,0,7.5-3.4,7.5-7.5c0-36.1,29.4-65.5,65.5-65.5c36.1,0,65.5,29.4,65.5,65.5
		c0,4.1,3.4,7.5,7.5,7.5s7.5-3.4,7.5-7.5C2179.2,479.5,2143.2,443.4,2098.8,443.4z"/>
	<path fill="#333333" d="M2418.4,516.3h-32.8c-3.8-40.9-38.3-73-80.1-73c-44.4,0-80.5,36.1-80.5,80.5c0,4.1,3.4,7.5,7.5,7.5
		s7.5-3.4,7.5-7.5c0-36.1,29.4-65.5,65.5-65.5c36.1,0,65.5,29.4,65.5,65.5c0,4.1,3.4,7.5,7.5,7.5c0.6,0,1.2-0.1,1.7-0.2
		c0.6,0.1,1.1,0.2,1.7,0.2h36.5c4.1,0,7.5-3.4,7.5-7.5S2422.6,516.3,2418.4,516.3z"/>
	<circle fill="#F39DA3" cx="2458.7" cy="586.8" r="43.6"/>
	<circle fill="#F39DA3" cx="1940.6" cy="586.8" r="43.6"/>
</g>
<g>
	<path fill="#333333" d="M1322.3,499.2c-1.4,0-2.9-0.4-4.2-1.3c-3.4-2.3-4.3-7-2-10.4c15-22.2,39.9-35.5,66.7-35.5
		s51.7,13.3,66.7,35.5c2.3,3.4,1.4,8.1-2,10.4c-3.4,2.3-8.1,1.4-10.4-2c-12.2-18.1-32.5-28.9-54.3-28.9s-42.1,10.8-54.3,28.9
		C1327.1,498.1,1324.7,499.2,1322.3,499.2z"/>
	<ellipse fill="#F39DA3" cx="1299.8" cy="605.6" rx="43.4" ry="29"/>
	<ellipse fill="#F39DA3" cx="1652" cy="605.6" rx="43.4" ry="29"/>
	<circle fill="#333333" cx="1382.8" cy="550.5" r="43.6"/>
	<circle fill="#FFFFFF" cx="1362.5" cy="541.5" r="9"/>
	<path fill="#333333" d="M1487.6,499.2c-1.4,0-2.9-0.4-4.2-1.3c-3.4-2.3-4.3-7-2-10.4c15-22.2,39.9-35.5,66.7-35.5
		s51.7,13.3,66.7,35.5c2.3,3.4,1.4,8.1-2,10.4c-3.4,2.3-8.1,1.4-10.4-2c-12.2-18.1-32.5-28.9-54.3-28.9s-42.1,10.8-54.3,28.9
		C1492.4,498.1,1490.1,499.2,1487.6,499.2z"/>
	<circle fill="#333333" cx="1548.2" cy="550.5" r="43.6"/>
	<circle fill="#FFFFFF" cx="1527.8" cy="541.5" r="9"/>
</g>
<g>
	<path fill="#333333" d="M802.2,1602.4h-32.8c-3.8-40.9-38.3-73-80.1-73c-44.4,0-80.5,36.1-80.5,80.5c0,4.1,3.4,7.5,7.5,7.5
		c0.1,0,0.3,0,0.4,0c0.1,0,0.3,0,0.4,0h185c4.1,0,7.5-3.4,7.5-7.5S806.3,1602.4,802.2,1602.4z M689.3,1544.5c33.6,0,61.3,25.4,65,58
		h-130C628,1569.9,655.7,1544.5,689.3,1544.5z"/>
	<circle fill="#F39DA3" cx="805.9" cy="1690" r="43.6"/>
	<circle fill="#F39DA3" cx="388.3" cy="1690" r="43.6"/>
	<circle fill="#333333" cx="690.1" cy="1617.1" r="43.6"/>
	<path fill="#333333" d="M517.1,1529.5c-41.8,0-76.3,32.1-80.1,73h-32.8c-4.1,0-7.5,3.4-7.5,7.5s3.4,7.5,7.5,7.5h185
		c0.1,0,0.3,0,0.4,0c0.1,0,0.3,0,0.4,0c4.1,0,7.5-3.4,7.5-7.5C597.6,1565.6,561.5,1529.5,517.1,1529.5z M517.1,1544.5
		c33.6,0,61.3,25.4,65,58h-130C455.8,1569.9,483.6,1544.5,517.1,1544.5z"/>
	<circle fill="#333333" cx="516.3" cy="1617.1" r="43.6"/>
</g>
<g>
	<ellipse fill="#F39DA3" cx="427.1" cy="1112.6" rx="43.4" ry="29"/>
	<ellipse fill="#F39DA3" cx="742.4" cy="1104.6" rx="43.4" ry="29"/>
	<circle fill="#333333" cx="504.8" cy="1028.5" r="43.6"/>
	<ellipse fill="#FFFFFF" cx="497.2" cy="1019.5" rx="21.6" ry="21"/>
	<circle fill="#333333" cx="660.8" cy="1028.5" r="43.6"/>
	<ellipse fill="#FFFFFF" cx="668.5" cy="1019.5" rx="21.6" ry="21"/>
	<path fill="#333333" d="M522.9,1141.1c-1.4,0-2.9-0.4-4.2-1.3c-3.4-2.3-4.3-7-2-10.4c15-22.2,39.9-35.5,66.7-35.5
		s51.7,13.3,66.7,35.5c2.3,3.4,1.4,8.1-2,10.4c-3.4,2.3-8.1,1.4-10.4-2c-12.2-18.1-32.5-28.9-54.3-28.9s-42.1,10.8-54.3,28.9
		C527.7,1139.9,525.3,1141.1,522.9,1141.1z"/>
</g>
<g>
	<circle fill="#F39DA3" cx="1662.8" cy="1078.5" r="43.6"/>
	<circle fill="#F39DA3" cx="1193.6" cy="1078.5" r="43.6"/>
	<path fill="#333333" d="M1443.3,1125c-26.8,0-51.7-13.3-66.7-35.5c-2.3-3.4-1.4-8.1,2-10.4c3.4-2.3,8.1-1.4,10.4,2
		c12.2,18.1,32.5,28.9,54.3,28.9c21.8,0,42.1-10.8,54.3-28.9c2.3-3.4,7-4.3,10.4-2c3.4,2.3,4.3,7,2,10.4
		C1495,1111.7,1470.1,1125,1443.3,1125z"/>
	<path fill="#333333" d="M1275.2,1041.8c-3.3,0-6.4-2.2-7.2-5.6c-1.1-4,1.3-8.1,5.3-9.2l103.6-27.5l-81.4-58
		c-3.4-2.4-4.2-7.1-1.8-10.5c2.4-3.4,7.1-4.2,10.5-1.8l94.4,67.3c2.4,1.7,3.5,4.6,3,7.4c-0.5,2.9-2.6,5.2-5.5,5.9l-119,31.6
		C1276.5,1041.7,1275.8,1041.8,1275.2,1041.8z"/>
	<path fill="#333333" d="M1596.3,1041.8c-0.6,0-1.3-0.1-1.9-0.3l-119-31.6c-2.8-0.7-4.9-3-5.5-5.9c-0.5-2.9,0.7-5.8,3-7.4l94.4-67.3
		c3.4-2.4,8.1-1.6,10.5,1.8c2.4,3.4,1.6,8.1-1.8,10.5l-81.4,58l103.6,27.5c4,1.1,6.4,5.2,5.3,9.2
		C1602.7,1039.6,1599.6,1041.8,1596.3,1041.8z"/>
</g>
<g>
	<circle fill="#F39DA3" cx="2475.8" cy="1078.5" r="43.6"/>
	<circle fill="#F39DA3" cx="2006.6" cy="1078.5" r="43.6"/>
	<path fill="#333333" d="M2316.8,1125c-2.4,0-4.8-1.2-6.2-3.3c-12.2-18.1-32.5-28.9-54.3-28.9c-21.8,0-42.1,10.8-54.3,28.9
		c-2.3,3.4-7,4.3-10.4,2c-3.4-2.3-4.3-7-2-10.4c15-22.2,39.9-35.5,66.7-35.5c26.8,0,51.7,13.3,66.7,35.5c2.3,3.4,1.4,8.1-2,10.4
		C2319.7,1124.6,2318.3,1125,2316.8,1125z"/>
	<path fill="#333333" d="M2088.2,1041.8c-3.3,0-6.4-2.2-7.2-5.6c-1.1-4,1.3-8.1,5.3-9.2l103.6-27.5l-81.4-58
		c-3.4-2.4-4.2-7.1-1.8-10.5c2.4-3.4,7.1-4.2,10.5-1.8l94.4,67.3c2.4,1.7,3.5,4.6,3,7.4c-0.5,2.9-2.6,5.2-5.5,5.9l-119,31.6
		C2089.5,1041.7,2088.8,1041.8,2088.2,1041.8z"/>
	<path fill="#333333" d="M2409.3,1041.8c-0.6,0-1.3-0.1-1.9-0.3l-119-31.6c-2.8-0.7-4.9-3-5.5-5.9c-0.5-2.9,0.7-5.8,3-7.4l94.4-67.3
		c3.4-2.4,8.1-1.6,10.5,1.8c2.4,3.4,1.6,8.1-1.8,10.5l-81.4,58l103.6,27.5c4,1.1,6.4,5.2,5.3,9.2
		C2415.7,1039.6,2412.6,1041.8,2409.3,1041.8z"/>
</g>
<g>
	<circle fill="#F39DA3" cx="1657" cy="1690" r="43.6"/>
	<circle fill="#F39DA3" cx="1205.5" cy="1690" r="43.6"/>
	<path fill="#333333" d="M1334.3,1529.5c-41.8,0-76.3,32.1-80.1,73h-32.8c-4.1,0-7.5,3.4-7.5,7.5s3.4,7.5,7.5,7.5h185
		c0.1,0,0.3,0,0.4,0c0.1,0,0.3,0,0.4,0c4.1,0,7.5-3.4,7.5-7.5C1414.8,1565.6,1378.7,1529.5,1334.3,1529.5z M1334.3,1544.5
		c33.6,0,61.3,25.4,65,58h-130C1273,1569.9,1300.8,1544.5,1334.3,1544.5z"/>
	<path fill="#333333" d="M1493.6,1741.1c-2.4,0-4.8-1.2-6.2-3.3c-12.2-18.1-32.5-28.9-54.3-28.9s-42.1,10.8-54.3,28.9
		c-2.3,3.4-7,4.3-10.4,2c-3.4-2.3-4.3-7-2-10.4c15-22.2,39.9-35.5,66.7-35.5s51.7,13.3,66.7,35.5c2.3,3.4,1.4,8.1-2,10.4
		C1496.5,1740.7,1495,1741.1,1493.6,1741.1z"/>
	<path fill="#333333" d="M1290.5,1609.9c-0.4,2.3-0.6,4.7-0.6,7.1c0,24.1,19.5,43.6,43.6,43.6c24.1,0,43.6-19.5,43.6-43.6
		c0-2.4-0.2-4.8-0.6-7.1H1290.5z"/>
	<path fill="#FFFFFF" d="M1298.6,1617.1c-0.1,0.8-0.2,1.7-0.2,2.5c0,8.5,6.9,15.5,15.5,15.5s15.5-6.9,15.5-15.5
		c0-0.9-0.1-1.7-0.2-2.5H1298.6z"/>
	<path fill="#333333" d="M1550.1,1529.5c-41.8,0-76.3,32.1-80.1,73h-32.8c-4.1,0-7.5,3.4-7.5,7.5s3.4,7.5,7.5,7.5h185
		c0.1,0,0.3,0,0.4,0c0.1,0,0.3,0,0.4,0c4.1,0,7.5-3.4,7.5-7.5C1630.6,1565.6,1594.5,1529.5,1550.1,1529.5z M1550.1,1544.5
		c33.6,0,61.3,25.4,65,58h-130C1488.8,1569.9,1516.6,1544.5,1550.1,1544.5z"/>
	<path fill="#333333" d="M1506.3,1609.9c-0.4,2.3-0.6,4.7-0.6,7.1c0,24.1,19.5,43.6,43.6,43.6c24.1,0,43.6-19.5,43.6-43.6
		c0-2.4-0.2-4.8-0.6-7.1H1506.3z"/>
	<path fill="#FFFFFF" d="M1514.4,1617.1c-0.1,0.8-0.2,1.7-0.2,2.5c0,8.5,6.9,15.5,15.5,15.5s15.5-6.9,15.5-15.5
		c0-0.9-0.1-1.7-0.2-2.5H1514.4z"/>
</g>
<g>
	<ellipse fill="#F39DA3" cx="2088.2" cy="1712.9" rx="49.6" ry="33.3"/>
	<ellipse fill="#F39DA3" cx="2449.8" cy="1712.9" rx="49.6" ry="33.3"/>
	<path fill="#333333" d="M2258.2,1741.1c-26.8,0-51.7-13.3-66.7-35.5c-2.3-3.4-1.4-8.1,2-10.4c3.4-2.3,8.1-1.4,10.4,2
		c12.2,18.1,32.5,28.9,54.3,28.9s42.1-10.8,54.3-28.9c2.3-3.4,7-4.3,10.4-2c3.4,2.3,4.3,7,2,10.4
		C2309.9,1727.8,2285,1741.1,2258.2,1741.1z"/>
	<path fill="#333333" d="M2115.5,1609.9c-0.4,2.3-0.6,4.7-0.6,7.1c0,24.1,19.5,43.6,43.6,43.6c24.1,0,43.6-19.5,43.6-43.6
		c0-2.4-0.2-4.8-0.6-7.1H2115.5z"/>
	<path fill="#FFFFFF" d="M2123.7,1617.1c-0.1,0.8-0.2,1.7-0.2,2.5c0,8.5,6.9,15.5,15.5,15.5s15.5-6.9,15.5-15.5
		c0-0.9-0.1-1.7-0.2-2.5H2123.7z"/>
	<path fill="#333333" d="M2331.4,1609.9c-0.4,2.3-0.6,4.7-0.6,7.1c0,24.1,19.5,43.6,43.6,43.6c24.1,0,43.6-19.5,43.6-43.6
		c0-2.4-0.2-4.8-0.6-7.1H2331.4z"/>
	<path fill="#FFFFFF" d="M2339.5,1617.1c-0.1,0.8-0.2,1.7-0.2,2.5c0,8.5,6.9,15.5,15.5,15.5s15.5-6.9,15.5-15.5
		c0-0.9-0.1-1.7-0.2-2.5H2339.5z"/>
</g>
<g>
	<ellipse fill="#F39DA3" cx="431.5" cy="2252.1" rx="43.4" ry="29"/>
	<ellipse fill="#F39DA3" cx="783.7" cy="2252.1" rx="43.4" ry="29"/>
	<circle fill="#333333" cx="514.5" cy="2196.9" r="43.6"/>
	<circle fill="#FFFFFF" cx="494.2" cy="2188" r="9"/>
	<circle fill="#333333" cx="679.8" cy="2196.9" r="43.6"/>
	<circle fill="#FFFFFF" cx="659.5" cy="2188" r="9"/>
	<path fill="#333333" d="M556,2186.5c-1.5,0-3-0.5-4.3-1.4l-94.4-67.2c-3.4-2.4-4.2-7.1-1.8-10.5c2.4-3.4,7.1-4.2,10.5-1.8
		l94.4,67.2c3.4,2.4,4.2,7.1,1.8,10.5C560.6,2185.4,558.3,2186.5,556,2186.5z"/>
	<path fill="#333333" d="M636.2,2186.5c-2.3,0-4.7-1.1-6.1-3.1c-2.4-3.4-1.6-8.1,1.8-10.5l94.4-67.2c3.4-2.4,8.1-1.6,10.5,1.8
		c2.4,3.4,1.6,8.1-1.8,10.5l-94.4,67.2C639.3,2186.1,637.7,2186.5,636.2,2186.5z"/>
	<path fill="#333333" d="M650.6,2301.7H534.7c-4.1,0-7.5-3.4-7.5-7.5s3.4-7.5,7.5-7.5h115.9c4.1,0,7.5,3.4,7.5,7.5
		S654.7,2301.7,650.6,2301.7z"/>
</g>
<g>
	<circle fill="#F39DA3" cx="1556.6" cy="2272.9" r="43.6"/>
	<circle fill="#F39DA3" cx="1237.5" cy="2272.9" r="43.6"/>
	<path fill="#333333" d="M1460.5,2351.5c-2.4,0-4.8-1.2-6.2-3.3c-12.2-18.1-32.5-28.9-54.3-28.9c-21.8,0-42.1,10.8-54.3,28.9
		c-2.3,3.4-7,4.3-10.4,2c-3.4-2.3-4.3-7-2-10.4c15-22.2,39.9-35.5,66.7-35.5c26.8,0,51.7,13.3,66.7,35.5c2.3,3.4,1.4,8.1-2,10.4
		C1463.4,2351.1,1462,2351.5,1460.5,2351.5z"/>
	<path fill="#333333" d="M1360.2,2222.4c-3.1,0-5.9-1.9-7-4.9c-20.8-56.4-115.5-67.7-116.4-67.8c-4.1-0.5-7.1-4.2-6.6-8.3
		c0.5-4.1,4.2-7.1,8.3-6.6c1.1,0.1,26.3,3,54.6,13.7c38.5,14.5,64.2,36.6,74.2,63.8c1.4,3.9-0.6,8.2-4.4,9.6
		C1361.9,2222.2,1361,2222.4,1360.2,2222.4z"/>
	<path fill="#333333" d="M1434,2222.4c-0.9,0-1.7-0.1-2.6-0.5c-3.9-1.4-5.9-5.7-4.4-9.6c10-27.3,35.7-49.3,74.2-63.8
		c28.4-10.7,53.6-13.6,54.6-13.7c4.1-0.5,7.8,2.5,8.3,6.6c0.5,4.1-2.5,7.8-6.6,8.3l0,0c-1,0.1-95.7,11.4-116.4,67.8
		C1439.9,2220.5,1437.1,2222.4,1434,2222.4z"/>
	<path fill="#333333" d="M1472,2273.9c-10.8,0-19-12-19-27.9c0-14.5,12.9-25.1,14.3-26.3c2.7-2.2,6.6-2.2,9.3,0
		c1.5,1.2,14.4,11.8,14.4,26.3C1491,2261.9,1482.9,2273.9,1472,2273.9z M1472,2236.3c-2.1,2.8-4,6.2-4,9.7c0,7.4,2.7,11.9,4,12.8
		c1.3-0.9,4-5.4,4-12.8C1476,2242.6,1474.1,2239.1,1472,2236.3z"/>
	<path fill="#333333" d="M1320.1,2273.9c-10.8,0-19-12-19-27.9c0-14.5,12.9-25.1,14.3-26.3c2.7-2.2,6.6-2.2,9.3,0
		c1.5,1.2,14.4,11.8,14.4,26.3C1339.1,2261.9,1330.9,2273.9,1320.1,2273.9z M1320.1,2236.3c-2.1,2.8-4,6.2-4,9.7
		c0,7.4,2.7,11.9,4,12.8c1.3-0.9,4-5.4,4-12.8C1324.1,2242.6,1322.2,2239.1,1320.1,2236.3z"/>
</g>
<g>
	<path fill="#333333" d="M2256.3,2317.8c-26.8,0-51.7-13.3-66.7-35.5c-2.3-3.4-1.4-8.1,2-10.4c3.4-2.3,8.1-1.4,10.4,2
		c12.2,18.1,32.5,28.9,54.3,28.9s42.1-10.8,54.3-28.9c2.3-3.4,7-4.3,10.4-2s4.3,7,2,10.4C2308,2304.5,2283.1,2317.8,2256.3,2317.8z"
		/>
	<ellipse fill="#F39DA3" cx="2427.8" cy="2258.4" rx="38.7" ry="35.3"/>
	<circle fill="#333333" cx="2328.6" cy="2196.9" r="43.6"/>
	<path fill="#333333" d="M2355,2219.8c-3.7,0-7.3-0.4-10.9-1.1c-4.1-0.8-6.7-4.7-5.9-8.8c0.8-4.1,4.7-6.7,8.8-5.9
		c32.8,6.4,58.9-29.1,59.2-29.4c2.4-3.4,7.1-4.1,10.5-1.7c3.4,2.4,4.1,7.1,1.7,10.5c-0.3,0.4-8,11-20.6,20.6
		C2383.8,2214.4,2369.3,2219.8,2355,2219.8z"/>
	<path fill="#333333" d="M2352.1,2182.4c-3.7,0-7-2.8-7.4-6.6c-0.5-4.1,2.4-7.9,6.5-8.4c33.3-4.2,46.8-46,47-46.5
		c1.2-4,5.4-6.1,9.4-4.9c4,1.2,6.1,5.5,4.9,9.4c-0.7,2.1-16.7,51.5-59.4,56.8C2352.7,2182.3,2352.4,2182.4,2352.1,2182.4z"/>
	<circle fill="#FFFFFF" cx="2338.1" cy="2174.9" r="14"/>
	<circle fill="#FFFFFF" cx="2352.1" cy="2200.7" r="7"/>
	<ellipse fill="#F39DA3" cx="2085" cy="2258.4" rx="38.7" ry="35.3"/>
	<circle fill="#333333" cx="2184.2" cy="2196.9" r="43.6"/>
	<path fill="#333333" d="M2157.8,2219.8c-14.3,0-28.8-5.4-42.6-15.8c-12.7-9.6-20.3-20.2-20.6-20.6c-2.4-3.4-1.7-8,1.7-10.5
		c3.4-2.4,8-1.7,10.5,1.7c0.3,0.4,26.4,35.9,59.2,29.4c4.1-0.8,8,1.8,8.8,5.9c0.8,4.1-1.8,8-5.9,8.8
		C2165.1,2219.5,2161.4,2219.8,2157.8,2219.8z"/>
	<path fill="#333333" d="M2160.7,2182.4c-0.3,0-0.6,0-0.9-0.1c-17.9-2.2-33.9-12.9-46.3-30.8c-9-13.1-13-25.5-13.2-26
		c-1.2-4,1-8.2,4.9-9.4c3.9-1.2,8.2,1,9.4,4.9c0.1,0.2,3.6,11.1,11.4,22.3c10,14.3,21.9,22.4,35.6,24.1c4.1,0.5,7,4.3,6.5,8.4
		C2167.6,2179.6,2164.4,2182.4,2160.7,2182.4z"/>
	<circle fill="#FFFFFF" cx="2174.6" cy="2174.9" r="14"/>
	<circle fill="#FFFFFF" cx="2160.6" cy="2200.7" r="7"/>
</g>
</svg>
