<?xml version="1.0" encoding="utf-8"?>
<!-- Generator: Adobe Illustrator 19.2.0, SVG Export Plug-In . SVG Version: 6.00 Build 0)  -->
<svg version="1.1" id="Capa_1" xmlns="http://www.w3.org/2000/svg" xmlns:xlink="http://www.w3.org/1999/xlink" x="0px" y="0px"
	 viewBox="0 0 2800 1555" enable-background="new 0 0 2800 1555" xml:space="preserve">
<path fill="#517382" d="M2186.4,496.8c-0.2,0.2-0.5,0.4-0.6,0.7c-7,28.4-15.2,56.5-22.8,84.7c-18,66.5-36.2,132.9-54.3,199.4
	c-15.5,56.9-31,113.8-46.5,170.7c-0.3,1.1-0.5,2.2-0.9,3.2c-0.8,2.5-1.8,3-4.3,2.4c-1.1-0.2-2.2-0.6-3.2-0.8c-8-2.2-16-4.4-24.1-6.5
	c-0.8-0.2-1.5-0.5-2.3-0.7c-1.9-0.4-2.3-0.1-2.6,1.6c-0.2,1.1-0.3,2.2-0.4,3.3c-1.7,19.4-3.3,38.9-5,58.3c-0.4,4.3-1.1,4.9-5.4,4.5
	c-14.2-1.2-28.4-2.4-42.5-3.7c-16.4-1.5-32.8-3-49.2-4.4c-12.7-1.1-25.5-2.1-38.2-3.2c-12.7-1.1-25.5-2.3-38.2-3.4
	c-9.1-0.8-18.2-1.5-27.2-2.3s-18.2-1.6-27.2-2.4c-8.8-0.8-17.5-1.5-26.3-2.3c-9.6-0.8-19.1-1.7-28.7-2.5c-8.9-0.8-17.8-1.5-26.8-2.3
	c-9.4-0.8-18.8-1.7-28.2-2.5c-8.9-0.8-17.8-1.5-26.8-2.3c-3.3-0.3-6.7-0.6-10-0.9c-2.6-0.3-3.4-1.1-3.2-3.7
	c0.3-4.8,0.8-9.6,1.2-14.3c0.8-9.2,1.6-18.5,2.5-27.7c0.8-9.6,1.7-19.1,2.5-28.7c0.7-8.1,1.4-16.2,2.1-24.4c0.6-7,1.2-14,1.8-21
	c0.1-1.3,0.1-2.6,0.3-3.8c0.2-1.7-0.3-3-1.6-4.3c-3.4-3.4-6.7-6.9-10.1-10.3c-18.7-19.1-37.5-38.1-56.2-57.1
	c-0.9-0.9-1.8-1.8-2.7-2.7c-0.6-0.5-1.3-1.6-1.9-1.2c-1,0.6-0.2,1.7,0.1,2.5c5.3,15.9,10.7,31.8,16,47.7c4.5,13.5,9.1,27,13.7,40.4
	c0.9,2.8,1.6,5.5,1.4,8.5c-0.4,7.4-6.8,11.8-13.9,9.4c-3.3-1.1-5.9-3.2-7.8-6.1c-1-1.4-1.8-3-2.6-4.6c-17-33.1-34.1-66.3-51.1-99.4
	c-2.8-5.5-1.9-5.5-7.7-2.7c-16.5,8.1-25.2,21.5-26.5,39.8c-0.1,1.6-0.1,3.2,0,4.8c0.3,12.3-0.3,24.6-1.8,36.9
	c-1.9,14.7-5.4,28.9-11.5,42.4c-4.1,9.1-9.4,17.4-15.9,25c-1,1.2-0.8,1.9,0.7,2.3c0.5,0.1,0.9,0.2,1.4,0.3c4.9,1,9.7,1.9,14.6,2.9
	c20.5,4.1,41.1,8.2,61.6,12.2c16.5,3.3,32.9,6.5,49.4,9.8c0.8,0.2,1.6,0.2,2.4,0.5c5.4,1.7,8.5,6.3,8.2,12.1
	c-0.3,5.7-4,9.8-9.7,10.8c-1.4,0.2-2.9,0.4-4.3,0.5c-6.4,0.4-12.8,0.7-19.2,1.1c-14.2,0.8-28.4,1.5-42.6,2.2
	c-1.1,0.1-2.2,0.1-3.3,0.3c-0.4,0.1-1,0.3-1.2,0.7c-0.2,0.4,0.3,0.8,0.7,1c1.3,0.6,2.6,1.2,3.9,1.8c31.3,13.8,62.6,27.5,93.9,41.3
	c1.5,0.6,2.9,1.3,4.3,2c4.6,2.5,7.1,7.5,5.4,13.5c-1.6,5.6-6.6,8.8-11.4,8.4c-1-0.1-1.9-0.1-2.9-0.2c-11.7-2-23.3-3.9-35-5.9
	c-14.3-2.4-28.7-4.9-43-7.3c-16.4-2.8-32.8-5.6-49.2-8.3c-15.9-2.7-31.8-5.3-47.8-8c-18.1-3.1-36.2-6.2-54.4-9.2
	c-16.1-2.7-32.2-5.4-48.2-8.1c-6.3-1.1-12.6-2.1-18.9-3.2c-0.6-0.1-1.3-0.3-1.9-0.3c-0.8,0-1.1,0.6-1.1,1.3c0,1.4,0.6,2.5,1.6,3.4
	c1.3,1.2,2.7,2.3,4.1,3.3c13.2,9.5,27.8,16.3,43.2,21.5c14.3,4.8,28.9,8.3,43.5,11.5c21.3,4.5,42.6,8.8,63.8,13.5
	c39.1,8.7,77.1,20.8,113.6,37.4c20.8,9.4,40.2,21,57.4,36.2c13.9,12.3,25.7,26.3,34.3,42.9c9.4,18.2,13.9,37.4,12.7,57.9
	c-1.6,27-11.4,51-28.5,71.9c-12.9,15.8-28.6,27.8-47.6,35.4c-6.2,2.5-12.7,4.3-19.3,5.5c-2.3,0.4-4.8,0.5-6.9,1.8
	c-3.8,0-7.7,0-11.5,0c-1.2-1.1-2.8-1.5-4.3-2.1c-8.6-3.8-13.1-12.2-12.4-20.8c0.9-10.1,8.5-16.5,16.5-18.3c1.7-0.4,3.5-0.7,5.2-0.7
	c9-0.3,17.4-3,25-7.5c23.1-13.9,37.5-34,41.7-60.8c2.6-16.7-1-32.4-9.5-47c-5.9-10.2-13.6-18.9-22.4-26.7
	c-11.2-9.9-23.7-17.9-37.1-24.6c-17.7-9-36.2-16.2-54.9-22.6c-23.1-8-46.8-14.2-70.7-19.3c-19.7-4.2-39.4-8.3-59.1-12.5
	c-18.3-4-36.3-8.9-53.8-15.6c-35.3-13.5-64-35.7-86.7-65.8c-12.9-17.1-23.4-35.5-32.8-54.6c-12.7-25.9-21.7-52.9-26.4-81.4
	c-3.3-20.1-4.5-40.3-3.5-60.7c2.4-46,15.4-88.9,37.9-129.1c3.5-6.3,7.3-12.4,11.2-18.4c0.7-1.1,1.3-2.2,2-3.3c0.1-0.1,0.1-0.4,0-0.5
	c-0.2-0.2-0.6-0.4-0.8-0.3c-1.4,0.4-2.7,0.9-4.1,1.4c-70.9,26.7-141.7,53.5-212.6,80.3c-33.3,12.6-66.7,25.2-100,37.8
	c-1,0.4-2.1,0.8-3.1,1.2c-0.2,0.1-0.5,0.4-0.5,0.7c0,0.3,0.2,0.7,0.4,0.8c1,0.5,2,1,3,1.5c9.1,4.4,18.1,8.8,27.2,13.1
	c11.2,5.4,22.4,10.9,33.7,16.2c5.2,2.4,4.6,3.5,2.6,7.6c-24.9,51.5-49.7,103.1-74.6,154.7c-7.9,16.4-15.8,32.8-23.7,49.3
	c-0.7,1.4-1.4,2.9-2.2,4.3c-0.8,1.3-1.9,1.7-3.3,1.2c-1.2-0.4-2.3-1-3.5-1.6c-24.3-11.7-48.7-23.4-73-35.2c-17-8.2-34-16.4-51-24.6
	c-1.6-0.8-3.2-1.4-5-1.7c-6.7-1-12.6-3.7-17.6-8.2c-1.6-1.4-2.9-1.4-4.7-0.5c-32.1,16.3-64.2,32.5-96.3,48.7
	c-8.4,4.3-16.9,8.4-25.2,12.8c-4.8,2.6-7.7,1.2-9.6-3.1c-1.1-2.5-2.5-4.8-3.6-7.3c-1.7-3.8-1-5.9,2.7-7.9c4.8-2.6,9.7-5,14.5-7.4
	c30.3-15.3,60.5-30.5,90.8-45.8c1.5-0.8,3.3-1.2,4.4-2.7c-0.9-1.9-2.9-2.1-4.5-2.9c-10.8-5.3-21.6-10.5-32.4-15.7
	c-0.9-0.4-1.7-0.8-2.6-1.3c-0.9-0.4-1.9-0.4-2.7,0.2c-0.9,0.7-1.8,1.4-2.7,2c-17.3,12.9-36.5,20.8-57.9,23.6
	c-59.5,7.8-113.9-28.5-131.6-82.4c-2.8-8.4-4.7-16.9-5.5-25.7c-0.2-1.9-0.3-3.9-1.8-5.3c0-5.1,0-10.2,0-15.4
	c1.4-1.3,1.6-3.1,1.8-4.8c3.3-30.7,16.5-56.5,39-77.5c1.9-1.8,2.8-3.6,2.8-6.2c-0.1-12.8-0.2-25.6,0-38.4
	c0.4-34.2,21.4-62.2,50.4-73.3c48-18.4,98,11.6,106.9,59.2c0.9,4.7,1.2,9.5,1.5,14.3c0,0.3,0.1,0.8,0.3,0.9c0.5,0.2,0.9-0.1,1.1-0.6
	c1.3-2.7,2.7-5.4,4-8.2c2.6-5.3,5.1-10.7,7.7-16c0.5-1,1-2,1.6-2.9c0.6-0.9,1.6-1.2,2.5-0.8c1.3,0.5,2.6,1.1,3.9,1.7
	c27.2,13.1,54.4,26.2,81.6,39.4c6.8,3.3,13.5,6.5,20.3,9.8c0.9,0.4,1.8,0.7,2.7,1c0,0,0,0.1,0,0.2c0.8-1.7-0.3-3.1-0.9-4.5
	c-4.6-12.3-9.2-24.5-13.9-36.8c-20.2-53.5-40.4-107.1-60.6-160.6c-2-5.4-2.4-4.8,3.3-6.9c2.5-1,5.1-2,7.6-3c0.8-0.3,1.2-1,0.8-2
	c-1.3-3.4-2.6-6.9-3.8-10.3c-0.5-1.5-0.3-2,1.2-2.6c5.9-2.4,11.9-4.6,17.8-7.1c29.8-12.6,58-28.4,85-46.2c15-9.9,29.7-20,44.6-29.9
	c9.4-6.3,19-12.4,29.1-17.6c10.9-5.6,22.2-9.8,34.3-12c8.7-1.6,17.5-2,26.2-0.2c6.2,1.3,11.8,3.8,16.9,7.7c2.6,2,2.6,1.9,3.4-1.4
	c0.3-1.2,0.6-2.5,0.9-3.7c1.7-5.8,4.7-10.8,8.5-15.4c4.1-5,9-9.1,14.4-12.6c11.8-7.7,24.6-12.8,38.3-16.1c10.9-2.6,21.9-4.4,33-5.9
	c19.5-2.6,39-4.9,58.5-7.8c35.8-5.3,70.9-13.6,104.9-26.4c3.3-1.2,3.3-2.3,5,2.4c1,2.7,2,5.4,3.1,8.1c0.6,1.4,1.1,1.7,2.6,1.1
	c3.3-1.1,6.6-2.4,9.9-3.5c2.1-0.8,2.5-0.6,3.3,1.3c2.3,6,4.5,12,6.8,17.9c28.2,74.8,56.4,149.6,84.7,224.3c2.1,5.5,1.6,5.2,6.4,2.7
	c12.8-6.6,26.2-12,39.5-17.4c68.7-27.9,137.4-55.8,206.1-83.7c1-0.4,2.1-0.8,3.1-1.3c1.8-0.8,2-1.2,0.9-2.8c-4.8-7-9.6-14-14.4-21
	c-0.7-1.1-1.5-2.1-2.1-3.2c-0.6-1.1-0.4-2.3,0.5-3c1.1-0.8,2.5-0.7,3.4,0.4c0.8,1,1.5,2.1,2.2,3.1c4.5,6.6,9.1,13.2,13.6,19.8
	c0.6,0.9,1.3,1.8,1.9,2.8c0.5,0.8,1.3,0.9,2.1,0.6c2.2-0.9,4.4-1.8,6.6-2.8c0.7-0.3,0.9-1,0.7-1.6c-0.3-1.4-0.8-2.8-1.2-4.1
	c-3.5-11-6.9-21.9-10.4-32.9c-0.4-1.2-0.9-2.4-0.7-3.7c0.1-0.9,0.6-1.5,1.4-1.8c1-0.3,2-0.2,2.6,0.7c0.7,1.3,1.2,2.6,1.6,4
	c3.3,10.2,6.4,20.4,9.7,30.6c0.7,2.1,0.5,5,2.6,5.9c1.8,0.7,3.8-1.2,5.8-1.9c0.5-0.2,0.9-0.3,1.3-0.5c4.8-2,4.5-1.3,4.4-7
	c-0.2-7.7-0.4-15.3-0.6-23c0-1,0-1.9,0.2-2.9c0.2-1,1.5-1.9,2.6-1.7c1,0.2,1.8,0.8,1.9,1.9c0.1,1.4,0.2,2.9,0.2,4.3
	c0.2,6.9,0.4,13.7,0.6,20.6c0,0.8,0.1,1.6,0.2,2.4c0.1,0.7,0.7,1.1,1.4,0.9c1.4-0.4,2.7-1,4-1.5c30.7-12.4,61.3-24.9,92-37.3
	c1.6-0.7,3.2-1.4,4.9-1.9c1.6-0.5,3.4,1.2,2.9,2.8c-0.5,1.5-1.2,3-1.8,4.4c-10,21.6-19.9,43.3-29.9,64.9c-1.5,3.2-3,6.4-4.4,9.6
	c-1.2,2.7-1.2,2.8,1.4,4.6c6.8,4.8,13.1,10.3,18.8,16.4c4.2,4.6,8.2,9.4,11.5,14.7c1.1,1.8,2.5,2.7,4.6,2.8
	c5.3,0.4,10.5,0.9,15.8,1.3c1.3,0.1,2.6,0.1,3.8,0.3c5.7,0.8,4.9,0.7,6.3-4.5c9.7-35.6,19.4-71.3,29.1-106.9c0.3-1.2,0.6-2.5,1-3.7
	c1.1-3.9,1.6-4.2,5.4-3.3c1.9,0.4,3.7,1,5.6,1.5c81.7,22.3,163.4,44.5,245.1,66.8c36.1,9.8,72.1,19.7,108.2,29.5
	c0.5,0.1,0.9,0.1,1.4,0.1C2186.4,492.3,2186.4,494.5,2186.4,496.8z"/>
<path fill="#B2ACBF" d="M921.7,772.2c2.1,0.1,4-0.8,6-1.6c51.5-19.5,103.1-38.9,154.6-58.3c8.1-3,16.1-6.1,24.2-9.1
	c1.5-0.6,1.7-1.3,0.6-2.4c-5.3-5.5-11.8-8.5-19.2-10c-8.1-1.6-16.2-1.1-24.3,0.5c-12.2,2.4-23.6,6.8-34.5,12.7
	c-9,4.9-17.6,10.3-26.1,16c-13.8,9.2-27.5,18.6-41.4,27.8c-13,8.7-26.4,16.7-39.9,24.6c0.3-0.2,0.4-0.2,0.2,0.1
	C921.8,772.4,921.8,772.3,921.7,772.2z"/>
<path fill="#FFF4F0" d="M1026.8,469.8c-0.2,0.4-0.3,0.8-0.5,1c-1.9,1.7-3.8,1.3-4.8-1c-0.4-1-0.8-2.1-1.2-3.1
	c-8.7-23-17.5-46-26-69.1c-1.6-4.4-4.3-7.8-7.9-10.6c-4-3.1-8.4-5.1-13.3-6.4c-8.2-2.1-16.5-1.8-24.8-0.4
	c-11.9,2.1-23.1,6.1-33.9,11.7c-10,5.1-19.4,11.2-28.7,17.4c-17.6,11.7-34.8,23.8-52.7,35.1c-26.2,16.6-53.4,31.5-82.2,43.3
	c-2.8,1.2-5.6,2.2-8.4,3.4c-1.9,0.8-2.1,1.2-1.3,3.3c0.3,0.8,0.5,1.5,0.8,2.3c37.2,98.5,74.4,197.1,111.7,295.6
	c2.4,6.3,1.6,5.8,7.5,3.5c28.6-11.3,55.7-25.7,81.8-42c16.7-10.4,32.9-21.6,49.2-32.6c10.2-6.9,20.5-13.7,31.2-19.8
	c9.6-5.4,19.7-9.9,30.4-13c9.3-2.6,18.7-4,28.4-3.5c6.1,0.3,12,1.8,17.6,4.3c1.6,0.7,2.9,1.9,4.7,2.2c0.8-2.1-0.7-3.7-1.3-5.4
	c-17.6-46.8-35.3-93.6-53-140.4c-0.4-1-0.8-2.1-1.1-3.2c-0.3-1-0.1-1.9,1-2.3c0.4-0.2,0.9-0.4,1.3-0.5c1.3-0.4,1.8-0.3,2.3,0.9
	c0.7,1.6,1.3,3.3,1.9,4.9c17.6,46.5,35.1,93,52.7,139.5c0.5,1.3,1.1,2.6,1.7,3.9c0.1,0.1,0.7,0.2,0.8,0.1c0.3-0.4,0.5-0.8,0.6-1.3
	c3.1-9.1,8.8-16.2,16.1-22.3c6.3-5.3,13.4-9.3,20.8-12.8c13-6.1,26.8-9.3,40.9-11.7c18.8-3.2,37.7-5.1,56.5-7.7
	c7.3-1,14.6-2.1,21.8-3.1c1.7-0.2,3-0.9,4.1-2.2c0.5-0.6,1-1.2,1.6-1.8c21.3-24.6,45.7-45.6,73.2-63c5.2-3.3,4.6-2.3,2.5-7.8
	c-30.6-81.2-61.3-162.4-91.9-243.6c-1.3-3.4-2.6-6.9-3.9-10.3c-1-2.4-1.1-2.5-3.5-1.7c-0.8,0.3-1.5,0.5-2.3,0.8
	c-23.3,8.4-47.3,14.8-71.6,19.6c-26.1,5.2-52.4,8.3-78.7,11.6c-12.4,1.6-24.7,3.3-36.9,5.9c-12.6,2.7-24.6,7-35.8,13.4
	c-7.3,4.2-13.9,9.2-19,15.9c-3.1,4-5.4,8.3-6.8,13.1c-1.5,5.4-1.6,10.6,0.6,16c4,9.8,7.5,19.7,11.3,29.6
	c5.2,13.8,10.4,27.5,15.6,41.3C1026.2,467.9,1026.5,468.9,1026.8,469.8z"/>
<path fill="#FFF4F0" d="M1722.4,751.8c0.1,0,0.1,0,0.2,0c0,4,0,8,0,12c0,1,0,1.9-0.3,2.8c-0.3,1-1.1,1.6-2.2,1.5
	c-1,0-1.8-0.6-2.1-1.6c-0.2-0.9-0.3-1.9-0.3-2.9c-0.2-6.7-0.4-13.4-0.5-20.1c0-1.4-0.1-2.9-0.2-4.3c-0.1-0.9-0.6-1.5-1.6-1.4
	c-2.6,0.2-5.1,0.6-7.6,0.6c-12,0.3-23.5-2-34.5-7.1c-1.3-0.6-2.6-1.2-3.9-1.7c-0.4-0.2-1,0-1.1,0.6c-0.2,1.1-0.3,2.2-0.4,3.3
	c-0.7,8.6-1.5,17.2-2.2,25.8c-0.9,9.9-1.7,19.8-2.6,29.6c-0.8,8.9-1.5,17.9-2.4,26.8c-0.3,2.7,0.3,4.9,1.8,7.1
	c8.5,12.8,16.9,25.7,25.3,38.5c0.8,1.2,1.6,2.4,2.3,3.7c2.8,5.2,1.7,11.1-2.8,14.7c-4.6,3.8-10.7,3.8-15.4-0.2c-0.7-0.6-1.4-1.4-2-2
	c-3.5-3.5-7-7.1-10.5-10.6c-0.6-0.6-1.2-1.1-1.8-1.5c-0.4-0.2-1-0.2-1.1,0.5c-0.1,0.6-0.2,1.3-0.2,1.9c-0.7,8-1.4,15.9-2.1,23.9
	c-0.9,9.9-1.7,19.8-2.6,29.6c-0.8,9.1-1.6,18.2-2.4,27.2c-0.8,9.1-1.6,18.2-2.3,27.2c-0.1,1.1-0.1,2.2-0.1,3.4
	c0,0.9,0.5,1.4,1.5,1.5c0.6,0.1,1.3,0.1,1.9,0.2c7.6,0.7,15.3,1.3,22.9,2c9.7,0.9,19.4,1.7,29.1,2.6c8.8,0.8,17.5,1.5,26.3,2.3
	c9.4,0.8,18.8,1.7,28.2,2.5c8.9,0.8,17.8,1.5,26.8,2.3c9.2,0.8,18.5,1.7,27.7,2.5c8.9,0.8,17.8,1.5,26.8,2.3
	c12.7,1.1,25.5,2.3,38.2,3.4c12.7,1.1,25.5,2.1,38.2,3.2c16.4,1.4,32.8,2.9,49.2,4.4c14.5,1.3,29,2.5,43.5,3.8
	c1.8,0.2,3.5,0.2,5.3,0.3c1.5,0,2-0.4,2.1-1.9c0.4-3.8,0.7-7.6,1-11.5c0.8-8.9,1.5-17.8,2.3-26.8c0.9-10,1.8-20.1,2.6-30.1
	c0.7-8.4,1.5-16.9,2.2-25.3c0.8-9.6,1.7-19.1,2.5-28.7c0.8-8.8,1.5-17.5,2.3-26.3c0.9-9.9,1.7-19.8,2.6-29.6
	c0.8-8.6,1.5-17.2,2.2-25.8c0.8-9.6,1.7-19.1,2.5-28.7c0.8-8.8,1.5-17.5,2.3-26.3c1.2-13.2,2.3-26.4,3.5-39.7
	c0.8-8.8,1.5-17.5,2.3-26.3c0.9-9.9,1.7-19.8,2.6-29.6c0.8-9.1,1.6-18.2,2.4-27.2c0.7-7.6,1.3-15.3,2-22.9c0.1-1.5-0.3-2.1-1.8-2.2
	c-7.2-0.7-14.3-1.3-21.5-1.9c-9.1-0.8-18.2-1.5-27.2-2.3c-3.2-0.3-6.4-0.5-9.6-0.8c-3.2-0.3-4-1.2-3.8-4.3c0.2-2.7,0.5-5.4,0.8-8.1
	c0.9-9.9,1.7-19.8,2.6-29.6c0.6-6.7,1.1-13.4,1.6-20.1c0.2-2.4-0.2-2.7-2.6-2.9c-8-0.7-15.9-1.4-23.9-2c-8.8-0.7-17.5-1.5-26.3-2.3
	c-9.9-0.9-19.8-1.7-29.6-2.6c-8.4-0.7-16.9-1.4-25.3-2.2c-9.2-0.8-18.5-1.7-27.7-2.5c-9.1-0.8-18.2-1.5-27.2-2.3
	c-9.1-0.8-18.2-1.7-27.2-2.5c-10.2-0.9-20.4-1.8-30.6-2.6c-1.5-0.1-3.5-1.1-4.4,0.3c-0.8,1.2,0.8,2.6,1.4,3.8
	c14.1,29.1,16.3,59.1,6.5,90c-1.7,5.3-2.4,4.3,2.9,7.1c21.2,11.3,42.3,22.5,63.5,33.8c3,1.6,5.9,3.2,8.9,4.7
	c1.4,0.7,2.5,1.6,2.2,3.3c-0.3,1.5-1.6,1.9-2.8,2.3c-4.8,1.7-9.7,3.3-14.5,4.9c-16.9,5.8-33.9,11.6-50.8,17.3
	c-2.1,0.7-3.4,1.7-4.1,4c-4.4,13.7-12.2,25.2-23.3,34.5c-0.7,0.6-1.5,1.2-2.2,1.9c-0.5,0.5-0.6,1.1-0.3,1.8c0.6,1,1.2,1.9,1.8,2.8
	c4.3,6.3,8.7,12.7,13,19c0.7,1.1,1.5,2.1,2.1,3.2c0.6,1.1,0.2,2.2-0.7,3c-0.9,0.7-2.2,0.7-3-0.2c-0.8-1-1.6-2-2.3-3.1
	c-4.1-5.9-8.1-11.9-12.3-17.8c-1.1-1.6-1.7-3.8-3.5-4.4c-1.9-0.6-3.3,1.5-5,2.2c-0.9,0.4-1.7,0.9-2.6,1.3c-4,1.9-3.7,1.5-2.4,5.7
	c3.1,9.9,6.4,19.8,9.5,29.7c0.4,1.4,0.9,2.7,1.2,4.1c0.2,1-0.4,1.9-1.4,2.3c-1,0.5-2.4,0.1-2.9-1c-0.6-1.3-1.1-2.7-1.5-4
	c-3.1-9.6-6.1-19.2-9.3-28.8c-1.7-5.3-1.1-4.4-5.8-3.2c-1.4,0.4-2.8,0.7-4.2,1.1c-2,0.6-2.2,0.9-2.2,3.1
	C1722.1,743.5,1722.2,747.6,1722.4,751.8z"/>
<path fill="#D6E9F6" d="M1203.7,822.8c0.1,3.4,0.4,10,0.6,16.5c0,0.5,0.1,1,0.2,1.4c0.1,0.3,0.3,0.6,0.6,0.6c0.2,0.1,0.7,0,0.8-0.2
	c0.9-1.1,1.7-2.3,2.6-3.5c11.4-15.6,26.2-26.5,44.4-32.8c13.2-4.5,26.7-6.2,40.6-5.8c13.9,0.4,26.7,4.5,38.5,11.9
	c10,6.3,18.3,14.4,25.3,23.9c9.1,12.4,15.6,26,20.1,40.7c2.4,7.9,3.3,16,3.1,24.2c-0.3,12.2-2.8,24.1-6.9,35.7
	c-6.5,18.6-16.3,35.4-27.9,51.2c-0.8,1-1.5,2-2.3,3.1c-0.6,0.9-0.3,1.6,0.7,1.6c3-0.1,6.1-0.2,9.1-0.3c14.7-0.8,29.4-1.7,44.1-2.5
	c8-0.4,16-0.8,24-1.3c13.9-0.8,27.8-1.7,41.7-2.4c14.4-0.8,28.8-1.5,43.1-2.3c6.2-0.3,12.5-0.7,18.7-1.1c14.9-0.9,29.7-1.7,44.6-2.6
	c8-0.5,16-0.8,24-1.3c1.9-0.1,3.8-0.2,5.7-0.5c3.5-0.5,5.5-2.7,5.8-6c0.3-3.6-1.4-6.2-4.8-7.4c-0.8-0.2-1.6-0.3-2.3-0.5
	c-7.5-1.5-15-3.1-22.6-4.5c-20.4-4-40.8-8-61.2-12.1c-22.1-4.4-44.2-8.7-66.3-13.1c-16.5-3.3-32.9-6.5-49.4-9.8
	c-6.3-1.3-6-1.7-4.6-7.2c3.3-12.8,4.4-25.8,3-39c-2.5-22.8-11.1-42.9-25.9-60.3c-13.2-15.5-29.5-26.3-48.8-32.7
	c-1.4-0.4-2.7-0.9-4-1.5c-1.1-0.5-1.5-1.8-1-2.9c0.4-1,1.3-1.6,2.3-1.4c1.4,0.2,2.8,0.7,4.2,1.1c54.9,17.8,86.8,73.8,77,128.7
	c-0.5,2.8-1.1,5.6-1.7,8.5c-0.2,1.2,0.2,1.7,1.4,2.1c0.5,0.1,0.9,0.2,1.4,0.3c14.3,2.8,28.5,5.7,42.8,8.5c5.8,1.2,11.6,2.2,17.4,3.4
	c1.8,0.4,3.1,0.1,4.2-1.3c0.9-1.1,1.9-2.1,2.9-3.2c6.8-8,12-17,16-26.6c6.3-15.4,9.3-31.5,10.6-48c0.8-9.7,0.7-19.5,0.8-29.3
	c0.1-14.1,5.6-26.1,15.6-36c4.6-4.5,10.1-7.8,16-10.3c2.4-1,2.4-1.1,1.3-3.5c-0.4-0.9-0.8-1.7-1.3-2.6
	c-19.6-38.1-39.2-76.2-58.8-114.3c-0.6-1.1-1.2-2.3-1.7-3.4c-0.2-0.4-0.3-1-0.1-1.3c0.6-1.2,1.6-2.2,2.8-2.4c1.1-0.2,1.3,1.2,1.8,2
	c0.4,0.7,0.8,1.4,1.1,2.1c35.9,70,71.9,140,107.8,209.9c3.5,6.8,7,13.6,10.5,20.5c1.3,2.5,2.9,4.6,5.3,6c2,1.2,4.2,1.6,6.4,0.3
	c2.2-1.3,2.7-3.4,2.7-5.8c0-2.3-0.9-4.4-1.6-6.5c-11-32.7-22-65.5-33.1-98.2c-12.5-37.1-25-74.2-37.5-111.4
	c-5.4-15.9-10.7-31.8-16.1-47.7c-0.5-1.4-0.8-2.8-1.1-4.2c-0.2-1,0.3-1.9,1.3-2.3c1.1-0.4,2.4-0.1,2.9,0.9c0.5,1,0.9,2,1.3,3.1
	c10.3,30.6,20.6,61.2,30.9,91.8c6.8,20.2,13.6,40.3,20.3,60.5c0.7,2.2,1.8,4,3.5,5.6c4.6,4.5,9,9.1,13.5,13.7
	c27.8,28.3,55.6,56.6,83.5,84.8c0.8,0.8,1.6,1.6,2.5,2.3c2.8,1.9,5.8,1.7,8.4-0.5c2.3-2,3.1-5.1,1.8-7.8c-0.6-1.3-1.5-2.5-2.2-3.7
	c-24.4-37.3-48.9-74.7-73.4-112c-0.7-1.1-1.4-2.1-2.1-3.2c-0.5-0.7-1.3-1-2.1-0.7c-1,0.4-2.1,0.9-3.1,1.3
	c-5.2,2.2-10.3,4.3-15.5,6.4c-1,0.4-2.1,0.8-3.2,1.1c-1.1,0.3-2.3-0.5-2.6-1.6c-0.3-1,0-2,0.9-2.5c1.2-0.7,2.5-1.3,3.9-1.9
	c18.6-7.8,37.2-15.5,55.7-23.3c6-2.5,12.1-5,18.1-7.6c1.6-0.7,3-0.8,4.5,0.4c0.4,0.3,0.8,0.6,1.2,0.8c19.3,12.7,40.1,14.8,62,8.4
	c0.6-0.2,1.2-0.4,1.7-0.8c0.2-0.1,0.3-0.5,0.5-0.7c-0.3-0.1-0.5-0.3-0.8-0.4c-0.5-0.1-1-0.1-1.4-0.2c-13.3-1.8-24.2-7.9-33-17.9
	c-5.1-5.8-9.2-12.3-12.6-19.2c-4.4-8.9-8-18.2-11.1-27.5c-0.8-2.3-1.6-4.6-1.5-7c0-1.7-0.7-2.7-2.3-3.2c-0.9-0.3-1.8-0.8-2.6-1.2
	c-8.9-4.8-15.4-11.9-19.2-21.2c-0.5-1.2-0.9-2.4-1.1-3.7c-0.1-1,0.3-1.9,1.3-2.3c1.1-0.4,2.4-0.1,2.9,1c0.6,1.1,1,2.3,1.5,3.5
	c4.7,11.5,16.6,22.7,34.4,22.3c5.8-0.1,11-1.8,15.6-5.4c3.3-2.6,6.3-5.5,8.9-8.7c5.6-7,8.3-15,8.5-24c0.1-6-0.9-11.8-2.4-17.5
	c-3.6-13.2-8.9-25.7-15.1-37.8c-1.5-3-3.5-5.8-5.5-8.5c-5.5-7.4-12.9-11.8-21.9-13.6c-6.8-1.3-13.7-1.5-20.5-1.3
	c-4,0.1-8,0.4-12,0.6c-3.2,0.1-6.4,0-9.5-0.7c-7.6-1.8-13.2-6.4-17.3-12.7c-3.5-5.3-5.5-11.1-7-17.2c-3.4-13.8-3.5-27.9-2.5-42
	c0.4-5.4-0.6-4.5-4-3.2c-0.3,0.1-0.6,0.3-0.9,0.4c-30.5,12.4-61,24.8-91.5,37.2c-1.2,0.5-2.3,1-3.5,1.5c-1,0.4-1.5,1.1-1.5,2.2
	c0,0.6,0,1.3-0.1,1.9c-0.7,11.5-1.7,23-3.5,34.4c-3,19.5-7.6,38.6-14.4,57.1c-6.2,16.9-14.2,32.9-24.9,47.4
	c-11.8,16-26.1,29-43.8,38.1c-22.7,11.6-46.9,17.6-72.3,18.7c-10.7,0.4-21.4-0.2-32.1-1.6c-22.4-3-43.7-9.5-63.9-19.6
	c-0.9-0.4-1.7-0.9-2.6-1.3c-0.6-0.3-1.3-0.2-1.7,0.4c-0.6,0.9-1.2,1.9-1.8,2.9c-3.1,5.8-6.3,11.5-9.1,17.4
	C1213.9,735.3,1204,776.4,1203.7,822.8z"/>
<path fill="#FFF4F0" d="M2054.9,604.5c-0.8,9.4-1.5,18.2-2.3,27c-0.8,9.6-1.7,19.1-2.5,28.7c-0.8,8.8-1.5,17.5-2.3,26.3
	c-0.8,9.7-1.7,19.4-2.6,29.2c-0.8,8.6-1.5,17.2-2.2,25.8c-0.9,9.9-1.7,19.8-2.6,29.6c-0.8,8.6-1.5,17.2-2.2,25.8
	c-1.2,13.2-2.3,26.4-3.5,39.7c-0.8,8.8-1.5,17.5-2.3,26.3c-1.1,12.7-2.3,25.5-3.4,38.2c-1.1,13.1-2.2,26.1-3.3,39.2
	c-0.1,0.8-0.2,1.6-0.2,2.4c-0.1,0.9,0.4,1.5,1.2,1.8c0.9,0.3,1.8,0.6,2.8,0.8c7.4,2,14.8,4.1,22.2,6c5.5,1.4,4.9,2.4,6.6-3.8
	c15.8-58.1,31.7-116.3,47.5-174.4c19.1-70,38.2-140,57.2-210c6-21.9,11.9-43.8,17.9-65.7c1-3.6,0.1-3.1-2.2-4
	c-0.6-0.2-1.2-0.3-1.9-0.5c-48.9-13.3-97.7-26.7-146.6-40c-66.7-18.2-133.5-36.3-200.2-54.5c-4.5-1.2-4.4-1.5-5.8,3.3
	c-6.9,25.5-13.9,50.9-20.8,76.3c-2.8,10.3-5.7,20.7-8.4,31c-0.5,1.8-0.1,2.3,1.7,2.5c3.5,0.4,7,0.6,10.5,0.9
	c9.2,0.8,18.5,1.7,27.7,2.5c8.9,0.8,17.8,1.5,26.8,2.3c12.7,1.1,25.5,2.3,38.2,3.4c12.7,1.1,25.5,2.1,38.2,3.2
	c14.3,1.2,28.7,2.5,43,3.7c3.7,0.3,7.3,0.7,11,0.9c2.1,0.1,3.7,0.8,4.9,2.6c0.4,0.5,0.8,1,1.2,1.5c17.8,21.2,35.6,42.4,53.4,63.6
	c0.7,0.9,1.4,1.7,2.2,2.6c0.9,1,1.3,2.2,1.2,3.5C2055,603.2,2054.9,604.2,2054.9,604.5z"/>
<path fill="#F8E8A0" d="M719.1,826.6c0,6-0.6,13.4-1.9,20.6c-2.7,14.8-8,28.6-15.8,41.5c-0.6,0.9-1.6,1.8-1.1,3
	c0.2,0.5,1.4,0.7,2.1,1c0.3,0.1,0.5,0.3,0.8,0.6c2,1.7,2.3,4.4,0.7,6.5c-1.5,2.1-4.2,2.6-6.4,1.2c-0.5-0.3-1.1-0.8-1.4-1.3
	c-0.8-1.2-1.5-0.9-2.2,0c-4.1,5.3-8.6,10.3-13.5,14.9c-0.2,0.2-0.4,0.5-0.6,0.7c-0.3,0.5-0.2,0.9,0.3,1.2c1.1,0.6,2.2,1.2,3.4,1.8
	c11.1,5.4,22.2,10.7,33.2,16.1c6.5,3.1,6.5,3.1,12.7-0.5c1.3-0.8,1.8-1.7,1.6-3.1c-0.1-1-0.2-1.9-0.1-2.9
	c0.5-15.3,7.5-26.6,21.6-32.8c10.9-4.8,22.5-6,34.3-4.3c4.4,0.6,8.7,2.1,12.6,4.4c9.3,5.5,13.8,15.6,11.9,26.2
	c-1,5.6-3.2,10.7-6.3,15.4c-4.8,7.5-11,13.7-18.4,18.7c-2.7,1.8-5.5,3.3-8.4,4.5c-1.2,0.5-3.2,0.4-3.2,1.6c-0.1,1.5,1.9,1.7,3.1,2.2
	c34.8,16.8,69.7,33.6,104.5,50.4c2.7,1.3,5.5,2.6,8.2,4c1,0.5,1.8,0.4,2.4-0.6c0.5-0.8,0.9-1.7,1.3-2.6
	c31.9-66.1,63.8-132.2,95.7-198.3c0.5-1,0.9-2,1.4-3.1c0.3-0.7,0-1.3-0.6-1.6c-1-0.6-2-1-3-1.5c-8.1-3.9-16.1-7.8-24.2-11.7
	c-13-6.3-25.9-12.5-38.8-18.8c-2.4-1.2-4.4-1.2-6.8-0.3c-7.7,3.1-15.5,5.9-23.3,8.8c-1.8,0.7-3.2,1.4-3.9,3.7
	c-0.9,3.3-3.8,4.2-6.9,2.8c-0.3-0.1-0.6-0.3-0.8-0.6c-0.9-0.9-1.9-0.8-3.1-0.4c-4,1.6-8.1,3-12.1,4.6c-8.5,3.2-17,6.4-25.6,9.7
	c-3.7,1.4-3.8,1.4-5.1-2.1c-1.5-3.9-3-7.8-4.4-11.7c-3.5-9.3-7-18.5-10.5-27.8c-0.5-1.4-1.2-2.4-2.8-2.9c-4-1.5-4.8-3.7-2.8-7.4
	c0.8-1.5,0.8-2.6,0.2-4c-3.2-8.4-6.3-16.8-9.5-25.1c-2.1-5.5-0.9-4.2-6.1-6.7c-33.5-16.2-67.1-32.4-100.6-48.5
	c-1.6-0.8-3.1-1.6-4.8-2.3c-1.6-0.7-2.2-0.5-3,1.2c-2.9,6-5.8,12.1-8.8,18.1c-1.9,3.9-3.8,7.8-5.6,11.7c-1,2.2-0.4,2.2,1.2,2.5
	c4.3,0.8,8.3,2.3,11.9,4.8c3.8,2.8,7,6.2,8.9,10.5c2.1,4.6,4.4,9.3,3.4,14.7c-0.1,0.8,0,1.6,0,2.4c0,8.8,0.1,17.6,0,26.4
	c0,2.8,0.5,5.2,1.8,7.8C714.6,787.2,719.1,805.7,719.1,826.6z"/>
<path fill="#89A2B0" d="M1289.2,803.8c-9.5,0.1-17.5,1.1-25.7,3.1c-24.6,6-43.3,19.9-56.3,41.6c-1.2,2-1.6,3.9-1.3,6.3
	c1.1,8.7,2.6,17.4,4.5,26c10,43.7,29,83.2,55.6,119.1c15.7,21.2,34.9,38.6,58,51.7c14.7,8.3,30.3,14.5,46.4,19.3
	c19.9,6,40.3,10.2,60.6,14.4c21.5,4.4,42.9,8.8,64.1,14.4c29.7,7.8,58.7,17.8,86.6,30.7c15.7,7.3,30.6,16.1,43.8,27.4
	c10.1,8.6,18.8,18.2,25.5,29.7c9.1,15.8,13.1,32.7,10,50.8c-5,29.1-20.6,50.9-46.5,65.1c-7.1,3.9-14.7,6.1-22.9,6.7
	c-1.9,0.1-3.8,0.3-5.7,0.7c-6.8,1.3-12.2,6.7-13,13c-1.3,9.5,5.2,17.6,14.8,18.1c3.8,0.2,7.7-0.1,11.5-0.6
	c12.8-1.8,24.8-6.2,35.9-12.9c24.3-14.7,41.3-35.5,51.4-62c6.4-16.7,8.7-34,6.6-51.9c-1.8-15.5-6.9-29.8-14.8-43.2
	c-8.8-14.9-20.2-27.6-33.5-38.6c-16.4-13.7-34.8-24.4-54.3-33.1c-37.2-16.7-75.9-28.7-115.7-37.4c-21.2-4.6-42.5-8.9-63.8-13.5
	c-14.2-3.1-28.3-6.6-42.1-11.5c-15-5.3-29.2-12.2-42.1-21.5c-1.4-1-2.9-2-4.1-3.3c-3.5-3.5-4.5-7.7-2.9-12.3c1.6-4.7,5-7.3,9.9-7.9
	c1.1-0.1,2.2-0.2,3.4-0.2c1.6,0,2.8-0.6,3.7-1.9c0.7-0.9,1.4-1.7,2.1-2.6c8.5-10.9,16-22.4,22.2-34.7c6.8-13.5,12-27.6,13.9-42.7
	c1.3-10.1,1.2-20.1-1.2-30c-2.1-8.6-5.6-16.7-9.5-24.6c-5.6-11.4-12.7-21.8-22-30.6C1327.3,810.9,1309.7,803.7,1289.2,803.8z"/>
<path fill="#89A2B0" d="M1649.6,530c6.9-0.7,13.8-0.3,20.6,0.5c12.9,1.6,23.2,7.7,30.5,18.6c2.5,3.7,4.7,7.6,6.6,11.7
	c3.9,8.4,7.5,16.9,10.5,25.7c1.3,3.9,2.4,8,3.4,12c1.7,7.1,2.2,14.2,1.1,21.4c-2.3,14.2-10.4,24.5-22.1,32.2c-4,2.6-8.4,4-13.1,4
	c-2.9,0-5.8-0.1-8.6-0.2c-3.7-0.2-3.8-0.1-2.8,3.7c0.2,0.6,0.3,1.2,0.5,1.8c3.2,9.4,6.7,18.6,11.2,27.5c3.5,7,7.7,13.6,13.2,19.4
	c7.3,7.6,16,12.6,26.5,14.4c4.1,0.7,8.3,0.5,12.4,0.6c3,0,5.6-0.9,8-2.6c13.7-9.7,23.2-22.3,27.7-38.5c0.6-2.1,1.7-3.3,3.7-3.9
	c1.2-0.3,2.4-0.8,3.6-1.2c18.6-6.3,37.2-12.7,55.8-19c1.1-0.4,2.1-0.7,3.1-1.1c0.6-0.3,0.5-0.9,0.1-1.1c-1.2-0.8-2.4-1.5-3.7-2.2
	c-11.6-6.2-23.1-12.3-34.7-18.5c-11-5.9-22-11.7-33-17.6c-3.6-1.9-3.7-2.3-2.4-6c0.3-0.8,0.6-1.5,0.8-2.3
	c6.6-18.6,8.4-37.8,4.9-57.2c-5.6-31.1-21.5-55.7-47.4-73.9c-4.4-3.1-5.5-2.6-2.4-9.2c10.4-22.3,20.6-44.7,30.9-67.1
	c0.8-1.7,2-3.3,2-5.3c-2.2-0.7-3.9,0.8-5.7,1.5c-43.1,17.4-86.2,35-129.2,52.5c-3.4,1.4-6.8,2.8-10.2,4.2c-1.1,0.5-1.8,1.1-1.9,2.4
	c-1.4,13.9-1.6,27.8,1,41.6c1.3,7.3,3.4,14.3,7.6,20.5c4.9,7.3,11.7,11.2,20.6,11C1642.3,530.4,1646,530.2,1649.6,530z"/>
<path fill="#89A2B0" d="M1336.8,693.5c4.5,0,8.9-0.3,13.4-0.6c16.5-1.2,32.5-5,48-10.8c25.8-9.5,46-26,61.3-48.7
	c7.1-10.5,12.9-21.7,17.7-33.4c12.1-29.9,18.3-61.2,20.2-93.3c0.4-6.1,0.5-5.7-5.1-3.4c-30.2,12.3-60.4,24.5-90.6,36.8
	c-16.6,6.7-32.6,14.7-47.9,24c-42.7,26.1-77.8,60.1-104.6,102.4c-3,4.7-2.9,4.3,1.7,6.5C1277.9,686.4,1306.6,693.2,1336.8,693.5z"/>
<path fill="#EFCFC5" d="M522.5,773.7c0,14.6,0,29.1,0,43.7c0,5.5,0.5,10.9,1.7,16.2c8.4,37.2,44.4,63.8,85.2,57
	c35.4-6,61.5-37.2,61.5-72.3c0-30.7,0-61.4,0-92.1c0-1.2,0.6-3.2-0.5-3.5c-1.4-0.4-1.3,1.7-2,2.7c-0.3,0.4-0.4,0.9-0.6,1.3
	c-15.6,30.8-49.3,49.3-85.6,42.5c-25.4-4.8-44.2-19.2-56.3-42.2c-0.7-1.4-1.4-2.8-2.2-4.3c-0.1-0.1-0.2-0.2-0.3-0.2
	c-0.4-0.1-0.6,0.1-0.7,0.5c-0.1,1.3-0.2,2.5-0.2,3.8C522.4,742.4,522.5,758.1,522.5,773.7z"/>
<path fill="#FAE0D6" d="M517.3,782.2c0-12,0-24,0-36c0-1.8,0.8-3.8-0.8-5.3c-1.8,0.6-2.7,2.1-3.9,3.3c-27.5,28.8-39.1,69.6-29,109.7
	c12.2,48.3,53.9,84.4,105.3,88.1c21.8,1.6,42.6-2.8,62.1-12.9c37.7-19.5,61.6-58.3,63-99.3c0.5-16-1.9-31.5-7.7-46.5
	c-0.4-1-0.9-2-1.3-3.1c-0.1-0.1-0.3-0.3-0.3-0.3c-0.3,0.2-0.6,0.3-0.7,0.6c-0.3,1.1-0.5,2.2-0.7,3.3c-2.8,12.2-11.6,20.8-24.1,22.1
	c-0.3,0-0.6,0-1,0.1c-1.6,0.2-2,0.5-2,2c-0.1,3-0.1,6.1-0.1,9.1c0,5.9-0.6,11.8-1.9,17.6c-9.5,41.6-49.7,68.7-91.9,60.6
	c-28.7-5.5-48.5-22.5-59.6-49.5c-3.7-9-5.2-18.4-5.3-28.1C517.2,805.8,517.3,794,517.3,782.2z"/>
<path fill="#D6E9F6" d="M1424.3,991.7c-7.2,0.4-13.1,0.8-19,1.2c-20.1,1.1-40.2,2.1-60.4,3.2c-4.5,0.2-8.9,0.5-13.4,0.8
	c-1.3,0.1-2.6,0.2-3.7,0.8c-0.3,0.2-0.5,0.4-0.7,0.6c0.3,0.3,0.6,0.7,1,1c0.4,0.2,0.9,0.3,1.4,0.4c9.9,1.7,19.9,3.3,29.8,5
	c15.9,2.7,31.8,5.3,47.7,8c16.1,2.7,32.1,5.5,48.2,8.2c16.1,2.7,32.2,5.4,48.2,8.1c18,3,35.9,6.1,53.9,9.2
	c20.5,3.5,41,6.9,61.4,10.4c1.9,0.3,3.8,0.6,5.7,1c4.7,1,7.6-1.5,8.7-4.8c1.1-3.4-0.6-7-4.4-8.5c-0.9-0.4-1.8-0.8-2.6-1.1
	c-21.6-9.5-43.3-19-64.9-28.5c-13.9-6.1-27.8-12.2-41.7-18.3c-2-0.9-4-1.7-6.4-1.5c-12.8,0.8-25.5,1.5-38.3,2.3
	C1457.5,989.9,1440.3,990.8,1424.3,991.7z"/>
<path fill="#89A2B0" d="M766,957.2c4.6-0.3,9.1-0.8,14.8-4.2c9.3-5.5,16.6-13,21.8-22.4c1.8-3.2,3-6.7,3.6-10.4
	c1.5-8.8-2.2-16.7-9.9-21.1c-2.6-1.5-5.5-2.6-8.5-3.2c-10.9-2.2-21.6-1-32,2.8c-13.2,4.8-21.9,17.8-19.9,33c0.6,4.4,0.1,4.1-3.1,5.7
	c-0.1,0.1-0.3,0.1-0.4,0.2c-39.2,19.8-78.4,39.6-117.6,59.4c-9.7,4.9-8.3,2.1-3.5,12.2c0.1,0.3,0.3,0.6,0.6,0.7
	c0.4,0.2,0.9,0.4,1.3,0.3c1-0.4,2-0.9,3-1.4c8.6-4.3,17.1-8.6,25.7-12.9c26.8-13.5,53.6-27.1,80.4-40.6c5.7-2.9,11.4-5.8,17.1-8.6
	c2-1,2.2-0.9,3.8,0.5c0.6,0.5,1.1,1.2,1.7,1.7C750.8,954.3,757.9,956.9,766,957.2z"/>
<path fill="#FAE0D6" d="M670.9,690.9c0.4-39.4-32-74.1-74.1-74.1c-42.1,0-74.5,34.7-74.4,74.5c0.1,39.1,31.9,74.4,74.7,74.1
	C640,765.1,671.5,729.6,670.9,690.9z"/>
<path fill="#B2ACBF" d="M1114.6,697.6c0,1.6,0.7,2.1,2.7,1.4c1.1-0.4,2.1-0.8,3.1-1.2c42.9-16.2,85.7-32.4,128.6-48.5
	c2.5-1,5.4-1.5,7.5-3.1c2.2-1.7,3.7-4.4,5.4-6.6c0.6-0.8,1.2-1.5,1.7-2.3c0.2-0.2,0.2-0.6,0.1-0.9c-0.1-0.2-0.5-0.5-0.7-0.4
	c-1.1,0.1-2.2,0.2-3.3,0.3c-13.3,1.8-26.6,3.6-39.9,5.3c-13,1.7-26,3.3-38.8,5.9c-10.5,2.1-20.8,5.1-30.5,9.6
	c-6.7,3.1-13.1,6.7-18.9,11.3c-4.9,3.9-9.2,8.4-12.4,13.9C1116.6,686.9,1114.9,691.8,1114.6,697.6z"/>
<path fill="#B2ACBF" d="M843.1,802.6c0.9-0.3,2.4-0.9,3.9-1.5c3.7-1.5,4.2-0.9,2.4-5.4c-0.1-0.3-0.2-0.6-0.3-0.9
	c-35.6-94.2-71.1-188.4-106.7-282.6c-0.4-1-0.8-2.1-1.2-3.1c-0.4-1-1-1.6-2.2-1c-0.6,0.3-1.2,0.4-1.8,0.7c-6.7,2.8-6.4,1.3-3.8,8.2
	c26.9,71.3,53.9,142.7,80.8,214c8.5,22.4,16.9,44.9,25.4,67.3c0.5,1.3,1.1,2.7,1.7,4C841.5,802.6,842,802.9,843.1,802.6z"/>
<path fill="#B2ACBF" d="M1363.6,551.8c-0.5-1.4-1-2.8-1.5-4.1c-29.6-78.5-59.2-156.9-88.8-235.4c-2.2-5.8-1.4-5.3-6.9-3.3
	c-5.3,1.9-4.6,1.3-2.7,6.3c29.7,78.6,59.3,157.2,89,235.8c0.8,2.1,1,4.4,2.8,6c2.2-0.5,3.9-2,5.9-3c0.6-0.3,1.1-0.6,1.6-1
	C1363.3,552.7,1363.4,552.2,1363.6,551.8z"/>
<path fill="#FFFFFF" d="M1663.3,729.5c0-0.4,0.1-1.4,0.1-2.3c0-1.5-0.8-2.1-2.1-1.7c-1.1,0.4-2.1,0.8-3.1,1.3c-7.2,3-14.4,6-21.6,9
	c-7.4,3.1-14.7,6.2-22.1,9.3c-1.8,0.8-1.9,1.2-0.9,2.9c0.3,0.5,0.7,1.1,1,1.6c12.9,19.6,25.7,39.3,38.6,58.9
	c0.5,0.8,1.1,1.6,1.7,2.3c0.3,0.4,1,0.2,1.2-0.2c0.2-0.4,0.2-0.9,0.3-1.4c0.7-8.4,1.4-16.9,2.1-25.3c0.8-9.1,1.6-18.1,2.4-27.2
	C1661.7,747.9,1662.4,738.9,1663.3,729.5z"/>
<path fill="#EFCFC5" d="M2019,595.8C2019,595.8,2019,595.8,2019,595.8c0.6,0,1.3,0.1,1.9,0.1c7.5,0.7,15,1.3,22.5,1.9
	c0.7,0.1,1.7,0.5,2.1-0.4c0.3-0.9-0.6-1.4-1-2c-1.1-1.4-2.3-2.7-3.4-4c-13.8-16.4-27.6-32.8-41.4-49.3c-0.8-1-1.7-1.9-2.6-2.8
	c-0.4-0.4-1.1-0.1-1.2,0.3c-0.3,0.9-0.3,1.9-0.4,2.8c-0.6,6.4-1.1,12.7-1.7,19.1c-0.8,8.8-1.5,17.5-2.2,26.3
	c-0.1,1.3-0.2,2.6-0.2,3.8c0,1.1,0.7,1.7,1.8,1.8c0.3,0,0.6,0.1,1,0.1C2002.4,594.4,2010.7,595.1,2019,595.8z"/>
<path fill="#EFCFC5" d="M698.7,754.8c0-5,0-9.9,0-14.9c0-3.4,0.1-6.7-0.2-10.1c-0.5-7.1-3.8-12.8-9.3-17.2
	c-3.5-2.7-7.5-4.2-11.9-4.6c-1.2-0.1-1.8,0.4-1.8,1.6c-0.1,2.4,0,4.8,0,7.2c0,0.9,0.3,1.5,1.2,1.8c0.6,0.1,1.2,0.3,1.9,0.5
	c5.8,1.8,9,5.9,9.5,11.9c0.1,1,0.1,1.9,0.1,2.9c0,13.8,0,27.5,0,41.3c0,1.6,0,3.2-0.3,4.8c-0.9,4.5-3.1,8-7.7,9.6
	c-3.7,1.3-3.7,1.3-3.7,5.2c0,1.3,0,2.6,0,3.8c0.1,1.8,0.6,2.3,2.4,2.1c8.3-1.1,14.2-5.5,17.6-13.1c1.6-3.5,2.2-7.3,2.2-11.2
	C698.7,769.2,698.7,762,698.7,754.8z"/>
<path fill="#FAE0D6" d="M676.1,762.4c0,5.7,0,11.5,0,17.2c0,1.3,0,2.6,0.1,3.8c0.1,1.1,1,1.6,2,1.2c1.8-0.6,3-1.7,3.8-3.4
	c0.7-1.5,1-3,1-4.6c0-9.6,0-19.1,0-28.7c0-0.8,0-1.7-0.4-2.3c-1.5-2.1-3.3-3.9-5.4-5.4c-0.3-0.2-1,0-1,0.6c-0.1,1.1-0.2,2.2-0.2,3.3
	C676,750.2,676.1,756.3,676.1,762.4z"/>
<path fill="#F8E8A0" d="M676.1,728.1c-0.2,2.2-0.1,4.7,2.5,6.3c1.3,0.8,2.1,2.4,3.7,2.8c1.6-1.4,0.6-3.2,0.7-4.8
	c0.1-2.6-0.9-5-2.9-6.8c-1.1-1-3-1.6-3.5-1c-0.7,0.8-0.5,1.8-0.5,2.7C676,727.4,676.1,727.5,676.1,728.1z"/>
<path fill="#517382" d="M1698.7,226c1.3,2.2,0.6,4.2-0.4,6.3c-5.8,11.7-11.7,23.5-17.3,35.3c-2,4.2-4.8,7.3-8.6,9.9
	c-68.1,47.5-136.1,95-204.1,142.6c-4.1,2.9-8.4,5.1-13.4,5.9c-10.5,1.8-25.6-4.4-28.7-20.3c-2.1-10.7,1.4-19.6,10.2-26.1
	c6.5-4.9,13.3-9.4,20-14.1c62.1-43.4,124.3-86.9,186.4-130.3c1.2-0.8,2.4-1.6,3.5-2.5c1.6-1.2,3.3-1.7,5.3-1.9
	c11.6-1.1,23.2-2.4,34.8-3.6c1.6-0.2,3.2-0.2,4.8-0.3c1.3-0.1,2.6-0.1,3.7-0.9C1696.2,226,1697.5,226,1698.7,226z"/>
<path fill="#F8E8A0" d="M1465,378.5c0.4-0.2,0.9-0.3,1.3-0.6c0.9-0.6,1.9-1.2,2.8-1.9c60.7-42.4,121.4-84.9,182.1-127.3
	c4.5-3.2,4.1-2.5,1.1-6.8c-3.9-5.6-2.8-5.3-8.1-1.5c-62.4,43.6-124.8,87.2-187.2,130.8c-1,0.7-2.1,1.5-3.1,2.3
	c-0.2,0.2-0.4,0.6-0.3,0.8c0,0.2,0.4,0.5,0.6,0.5c3.5,0.6,6.8,1.6,10,3.3C1464.3,378.3,1464.7,378.4,1465,378.5z"/>
<path fill="#F8E8A0" d="M1477,403.2c-0.2,1-0.3,1.9-0.5,2.9c-0.1,0.6-0.4,1.3,0.3,1.6c0.3,0.1,0.9-0.1,1.3-0.4
	c1-0.6,1.9-1.2,2.8-1.9c62.4-43.6,124.7-87.2,187.1-130.8c0.8-0.5,1.6-1.1,2.4-1.6c2.2-1.6,2.2-1.8,0.6-4.2
	c-0.4-0.5-0.7-1.1-1.1-1.6c-3.9-5.4-2.6-5.3-8.1-1.4c-37.6,26.3-75.2,52.6-112.8,78.9c-22.9,16-45.9,32.1-68.8,48.1
	c-3.6,2.5-3.4,2.1-3.1,6.2C1477.1,400.3,1477,401.7,1477,403.2z"/>
<path fill="#D3B18F" d="M1662.9,257.4c-0.4-0.6-1-1.5-1.6-2.5c-3.9-5.5-2.8-5.3-8.1-1.6c-59.9,41.9-119.8,83.7-179.7,125.6
	c-1,0.7-2.1,1.5-3.1,2.3c-0.6,0.4-0.8,1-0.3,1.6c1,1.4,2.2,2.8,3.1,4.3c1.9,3.3,2.1,3,5,0.9c0.1-0.1,0.3-0.2,0.4-0.3
	c60.5-42.3,121.1-84.7,181.6-127c0.8-0.5,1.6-1.1,2.3-1.7C1662.9,258.7,1663.2,258.3,1662.9,257.4z"/>
<path fill="#FFF4F0" d="M1430.5,400.7c-0.3,9.5,7.2,20.6,20.6,20.7c13.4,0.1,21.1-10.9,21-20.9c0-9.9-7.7-20.6-20.7-20.8
	C1439.4,379.6,1430.2,389.6,1430.5,400.7z"/>
<path fill="#FFF4F0" d="M1675.1,233.4c-6.9,0.8-12.9,1.4-18.9,2.1c-1.7,0.2-1.8,0.7-0.9,2.2c0.3,0.5,0.7,1.1,1.1,1.6
	c3.1,4.4,6.2,8.9,9.3,13.3c2.8,4.1,5.6,8.1,8.5,12.1c1.2,1.7,1.8,1.7,2.7,0c3-6,5.9-12,8.9-18c0.8-1.5,0.5-2.7-0.5-3.9
	c-1.5-2.1-3.1-4.1-4.3-6.3C1679.4,233.9,1677.4,232.6,1675.1,233.4z"/>
<path fill="#517382" d="M1692.4,232.6c-0.3-0.3-0.5-0.7-0.7-0.7c-2.2-0.1-4.4-0.1-6.5,0.9c-0.3,2.4,1.7,3.5,2.8,5.2
	c0.6,1.1,1.5,0.9,2.1-0.3c0.6-1.1,1.2-2.3,1.7-3.4C1692.1,233.8,1692.2,233.2,1692.4,232.6z"/>
<path fill="#517382" d="M2058.1,1191.6c-2.8,0-6-0.9-9.1-2.3c-17-7.5-33.9-14.9-50.9-22.4c-51.6-22.7-103.3-45.4-154.9-68.1
	c-0.9-0.4-1.7-0.8-2.6-1.1c-2.4-0.8-4-2.4-5.5-4.4c-6.1-8.2-12.3-16.4-18.4-24.6c-1.8-2.5-3.7-4.7-6.9-5.7c-1.9-0.6-2.6-2-2.2-3.2
	c0.5-1.4,2.2-2.2,4.1-1.2c3.8,2.1,7.7,1.5,11.7,1.1c9.1-0.9,18.2-1.5,27.2-2.3c3.1-0.3,5.9,0.4,8.8,1.6
	c44.2,19.5,88.3,38.9,132.5,58.3c19.3,8.5,38.6,17,57.9,25.5c1.3,0.6,2.6,1.1,4,1.6c0.2,0.1,0.5-0.2,0.8-0.3
	c-0.1-0.1-0.1-0.3-0.2-0.4c-0.8-0.8-1.6-1.5-2.5-2.2c-24.4-19.1-51.7-32.2-82-39.1c-4.8-1.1-9.7-1.9-14.6-2.8c-1-0.2-1.3-0.7-1-1.7
	c0.1-0.1,0.1-0.3,0.2-0.4c1.3-2.4,2-5,3.8-7.2c2.9-0.7,5.7,0.4,8.5,0.9c36.6,7,69.1,22.5,97.4,46.8c2.2,1.9,4.3,3.8,6.4,5.8
	c1.9,1.7,1.8,1.8,0.8,4.1c-0.2,0.4-0.4,0.9-0.6,1.3c-1,2.2-1,2.3,1,3.9c5.6,4.6,8.2,10.3,8.2,17.6
	C2080.1,1180.4,2072.1,1191.4,2058.1,1191.6z"/>
<path fill="#AEDEF8" d="M2031.1,1121.2c-0.1-0.6-0.6,0.2-0.2-0.3c0.1-0.1,0.3-0.2,0.3-0.1c0.2,0.3,0.1,0.4-0.2,0.4
	c-0.5-0.1-0.6-0.3-0.2-0.6c0.1-0.1,0.3-0.1,0.4-0.1C2031.4,1120.7,2031.4,1121,2031.1,1121.2z"/>
<path fill="#AEDEF8" d="M1856.5,1063.2c-0.4,0.2-1,0.4-1.2,0.7c-0.6,1-1,2-1.5,3c-3.3,7.3-6.6,14.6-9.8,21.9c-1.8,4.2-2.4,4,2.5,6.1
	c66.1,29.1,132.3,58.1,198.4,87.2c1.2,0.5,2.4,1,3.5,1.5c0.9,0.4,1.5,0,1.9-0.8c0.6-1.1,1.1-2.3,1.6-3.5c2.9-6.6,5.9-13.1,8.8-19.7
	c2.8-6.4,3.1-5.2-3.2-8c-50.3-22.1-100.6-44.3-151-66.4c-15.5-6.8-31-13.6-46.5-20.4C1858.9,1064.2,1857.7,1063.7,1856.5,1063.2z"/>
<path fill="#D6E9F6" d="M1849.7,1063.5c-0.2-0.9-0.8-1-1.5-1c-6.8,0.5-13.7,1.1-20.5,1.7c-2.2,0.2-4.5,0.2-6.6,1
	c0,2.7,2.3,4,3.5,5.9c1.6,2.5,3.6,4.9,5.4,7.3c2.3,3.1,4.6,6.1,6.9,9.2c0.8,1.1,1.6,1,2.1-0.2c3.4-7.5,6.8-15.1,10.2-22.7
	C1849.6,1064.4,1849.6,1063.9,1849.7,1063.5z"/>
<path fill="#AEDEF8" d="M2075.2,1170.1c0-5.1-2.4-10-6.2-12.9c-0.8-0.6-1.5-0.4-1.9,0.4c-1,2-1.9,4-2.8,6.1c-3,6.7-6,13.3-9,20
	c-0.8,1.8-0.8,2.5,1.7,2.8C2067.7,1187.7,2075.5,1178.8,2075.2,1170.1z"/>
<path fill="#517382" d="M1239.4,455.2c-0.3,0.3-0.5,0.9-0.9,1c-1.4,0.4-2.8,0.8-4.2,1c-18,3.6-36.2,6.7-54.4,8.9
	c-14.6,1.8-29.2,3.7-43.8,5.7c-13.6,1.9-27.2,4.3-40.2,8.7c-2.2,0.7-2.3,0.6-3.1-1.5c-0.1-0.3-0.2-0.6-0.3-0.9
	c-0.4-0.9-0.1-1.6,0.8-1.9c3.6-1.2,7.3-2.5,11-3.5c9.9-2.6,20-4.4,30.1-5.8c17.7-2.4,35.5-4.5,53.3-7c15.7-2.2,31.3-4.7,46.8-8.1
	c0.8-0.2,1.6-0.3,2.4-0.4c1.5-0.2,1.9,0.1,2.3,1.7C1239.2,453.9,1239.3,454.5,1239.4,455.2z"/>
<path fill="#517382" d="M1207.4,370c0.2,1.5-0.4,1.9-1.3,2.1c-2.3,0.5-4.7,1.1-7,1.6c-14,2.7-28,5.2-42.1,7
	c-17.1,2.2-34.3,4.4-51.4,6.8c-14.1,2-28.1,4.3-41.6,9c-0.8,0.3-1.6,0.7-2.2,0c-0.8-1-1.4-2.2-1.3-3.5c0.1-0.7,0.8-0.9,1.4-1.1
	c4.9-1.9,10-3.2,15.2-4.4c11.4-2.6,22.9-4.4,34.5-5.9c23.5-3.1,47-5.7,70.3-9.8c6.9-1.2,13.8-2.7,20.7-4c0.6-0.1,1.2-0.3,1.9-0.4
	c2-0.3,2.4,0,2.8,2.2C1207.4,369.8,1207.5,370.2,1207.4,370z"/>
<path fill="#517382" d="M1223.4,412.1c0.1,1.4-0.2,1.8-0.7,1.9c-1.4,0.4-2.8,0.8-4.2,1c-15.5,3.2-31.1,5.9-46.8,7.9
	c-16.8,2.2-33.6,4.3-50.4,6.6c-13.9,1.9-27.8,4.3-41.2,8.9c-2,0.7-2.5,0.8-3.4-1.8c-0.6-1.6-0.3-2.2,1.4-2.9
	c6.2-2.2,12.5-3.8,18.9-5.2c12.5-2.6,25.2-4.3,37.9-5.9c22.5-2.9,45-5.6,67.4-9.6c5.3-1,10.7-2.1,16-3.2c0.8-0.2,1.6-0.4,2.3-0.5
	c1.4-0.2,2.1,0.2,2.4,1.6C1223.3,411.7,1223.4,412.3,1223.4,412.1z"/>
<path fill="#517382" d="M1667.9,603.9c-0.2-4.4,1.5-8.4,4.2-12.2c1-1.4,0.9-1.6-0.8-2.3c-1.2-0.5-2.4-0.9-3.5-1.4
	c-11.6-5.9-14.4-21.5-5.5-31c0.8-0.8,1.5-1.7,2.7-1.9c1-0.2,1.9,0.1,2.5,1.1c0.5,0.7,0.5,1.6,0,2.3c-0.8,1.2-1.9,2.2-2.7,3.3
	c-3.4,4.9-3.8,10.2-1.1,15.4c2.7,5.3,7.2,7.9,13.2,8c2.7,0,2.9-0.6,2.9-2.7c0-3.7,1.4-6.8,3.1-10c0.9-1.7,2.3-3.1,4.1-4
	c1.5-0.8,2.9-0.4,3.6,1c0.4,0.7,0.6,1.5,0.8,2.2c2.4,7.4,4.8,14.9,7.2,22.3c0.3,0.9,0.6,1.8,0.7,2.8c0.1,1-0.9,2.3-1.9,2.4
	c-1.9,0.3-3.8,0.4-5.6-0.5c-3.5-1.6-6.9-3.3-9.2-6.6c-1.1-1.6-1.6-1.6-3.1-0.6c-4.9,3.4-7.2,8.1-6.6,14c0.7,5.9,4,10,9.5,12.2
	c1.3,0.5,2.8,0.7,4.2,1.1c1.2,0.3,1.8,1.3,1.7,2.6c-0.1,1.2-0.9,1.9-2.3,2c-1.4,0.1-2.8-0.2-4.2-0.6
	C1673.4,620.2,1668,612.9,1667.9,603.9z"/>
<path fill="#517382" d="M710.5,711c-2.7-0.1-4.7-2.4-4.4-5.1c0.2-2.5,2.4-4.5,4.8-4.4c2.6,0,4.9,2.5,4.7,5
	C715.4,709.1,713.2,711.1,710.5,711z"/>
<path fill="#517382" d="M827,960.4c0-2.8,2-4.8,4.8-4.8c2.7,0,4.8,2.3,4.7,4.9c-0.1,2.5-2.2,4.5-4.6,4.6
	C829.1,965.2,827,963.1,827,960.4z"/>
<path fill="#517382" d="M893.1,935.4c0-2.8,2.2-4.8,4.9-4.7c2.4,0.1,4.5,2.2,4.6,4.6c0.1,2.6-2.2,4.9-4.8,4.9
	C895.1,940.2,893,938.1,893.1,935.4z"/>
<path fill="#517382" d="M814.5,949.9c-0.1,2.6-2.5,4.8-5,4.7c-2.7-0.2-4.7-2.5-4.5-5.2c0.2-2.7,2.5-4.6,5.2-4.3
	C812.7,945.3,814.6,947.5,814.5,949.9z"/>
<path fill="#517382" d="M732.8,721.5c-2.8,0-4.8-1.9-4.8-4.7c0.1-2.6,1.9-4.6,4.4-4.8c2.5-0.2,5,2.1,5.1,4.6
	C737.6,719.2,735.5,721.5,732.8,721.5z"/>
<path fill="#517382" d="M919.6,895.3c-2.8,0-5-2-5-4.6c0-2.5,2.3-4.9,4.9-4.9c2.5,0,4.5,2,4.7,4.5
	C924.3,893.2,922.3,895.3,919.6,895.3z"/>
<path fill="#517382" d="M934.9,868.3c0,2.7-2.3,4.8-4.9,4.7c-2.5-0.1-4.5-2.2-4.6-4.6c-0.1-2.7,2.1-4.9,4.7-4.9
	C932.9,863.5,935,865.6,934.9,868.3z"/>
<path fill="#517382" d="M849,970.8c0.1-2.8,2.2-4.8,4.9-4.6c2.5,0.1,4.5,2.2,4.5,4.6c0,2.7-2.1,4.9-4.8,4.9
	C850.9,975.7,848.9,973.6,849,970.8z"/>
<path fill="#517382" d="M798,753.3c-2.5-0.3-4.4-2.4-4.2-4.9c0.2-2.6,2.6-4.8,5.1-4.6c2.7,0.2,4.6,2.5,4.4,5.2
	C803,751.8,800.8,753.5,798,753.3z"/>
<path fill="#517382" d="M930.1,816.9c-2.7-0.1-4.7-2.3-4.6-5c0.2-2.6,2.1-4.5,4.6-4.5c2.7,0,4.9,2.1,4.8,4.8
	C934.9,814.8,932.8,816.9,930.1,816.9z"/>
<path fill="#517382" d="M913.4,913c0,2.6-2.3,4.9-4.9,4.8c-2.7-0.1-4.8-2.3-4.7-5c0.1-2.5,2-4.4,4.6-4.5
	C911.2,908.4,913.4,910.4,913.4,913z"/>
<path fill="#517382" d="M887.1,962.5c-2.7,0-4.9-2-4.9-4.7c0-2.5,2.4-4.9,4.9-4.8c2.5,0.1,4.5,2.1,4.6,4.6
	C891.8,960.4,889.8,962.5,887.1,962.5z"/>
<path fill="#517382" d="M875.5,986.3c-2.7,0-4.7-2.3-4.6-5c0.1-2.6,2-4.5,4.5-4.6c2.7-0.1,4.9,2,4.9,4.7
	C880.3,984.2,878.1,986.4,875.5,986.3z"/>
<path fill="#517382" d="M936.3,845.8c0-2.8,2.1-4.8,4.9-4.6c2.6,0.1,4.6,2.1,4.7,4.5c0.1,2.6-2.2,4.9-4.7,4.9
	C938.4,850.6,936.3,848.5,936.3,845.8z"/>
<path fill="#517382" d="M956.9,822.8c-0.1,2.7-2.2,4.8-4.9,4.7c-2.5-0.1-4.5-2.1-4.6-4.6c-0.1-2.7,2-4.9,4.7-4.9
	C954.8,817.9,956.9,820,956.9,822.8z"/>
<path fill="#517382" d="M908.3,806.2c-2.8,0-4.7-2-4.6-4.9c0.1-2.6,2-4.5,4.5-4.6c2.6-0.1,4.9,2.1,5,4.7
	C913.1,804,910.9,806.2,908.3,806.2z"/>
<path fill="#517382" d="M754.6,732.1c-2.9,0-4.7-2-4.6-4.9c0.1-2.6,2-4.5,4.5-4.6c2.6-0.1,4.9,2.2,5,4.7
	C759.5,730,757.3,732.2,754.6,732.1z"/>
<path fill="#517382" d="M781.3,738c0,2.8-2,4.8-4.8,4.7c-2.5-0.1-4.6-2-4.6-4.5c-0.1-2.6,2.1-5,4.7-5
	C779.2,733.1,781.3,735.3,781.3,738z"/>
<path fill="#517382" d="M721.9,902.8c2.8,0,4.8,2,4.8,4.7c-0.1,2.7-2.3,4.9-4.9,4.8c-2.5-0.1-4.4-2.1-4.5-4.6
	C717.2,904.9,719.1,902.8,721.9,902.8z"/>
<path fill="#517382" d="M1729,686.1c-7.3-0.1-12.7-4.3-14.4-10.6c-1.6-6,1-12.5,6.3-15.7c0.9-0.6,2-1,3.1-1.2c1-0.1,1.8,0.5,2.2,1.5
	c0.3,0.8,0.2,1.7-0.4,2.2c-1,0.8-2.1,1.4-3.1,2.2c-2.8,2.3-4.2,5.3-3.5,8.9c0.6,3.5,2.7,6.1,6.1,7.4c2,0.8,4,0.6,6.1,0.1
	c2.2-0.5,3.5,0.2,3.7,1.8c0.2,1.3-0.7,2.5-2.6,2.9C1731.2,685.9,1729.7,686,1729,686.1z"/>
<path fill="#517382" d="M1672.3,511c-6.6,0.1-12.2-4.1-14-10.4c-1.8-6.2,0.8-12.8,6.3-16.1c0.7-0.4,1.4-0.8,2.2-1
	c1.1-0.4,2.3,0.1,2.9,1.1c0.5,1,0.3,2.3-0.6,3c-0.9,0.7-1.9,1.1-2.8,1.8c-3.4,2.7-4.5,7.3-2.7,11.2c1.7,3.8,5.9,6,10.2,5.4
	c0.9-0.1,1.9-0.4,2.8-0.5c1.1,0,1.8,0.6,2.1,1.6c0.3,1,0,1.9-0.9,2.5c-0.4,0.3-0.8,0.4-1.3,0.6C1675,510.8,1673.6,511.1,1672.3,511z
	"/>
<path fill="#517382" d="M596.9,627.2c31.3-0.6,63.6,24.8,63.7,63.8c0.1,37.6-30.6,64.2-64,64.1c-35.5-0.1-64.1-28.7-64-64.2
	C532.8,653.1,564.2,626.4,596.9,627.2z"/>
<path fill="#D3B18F" d="M596.2,750.2c2.9-0.1,5.8-0.3,8.6-0.8c21.8-3.5,37-15.5,46.2-35.4c1.3-2.7,1.1-5-0.1-7.7
	c-10.8-25-37.2-39.7-63.9-35c-20.9,3.7-35.6,15.6-44.5,34.8c-1.3,2.8-1.5,5.3-0.1,8.2C553.1,737.1,571.3,748.7,596.2,750.2z"/>
<path fill="#B79372" d="M655.6,691c-0.3-3.7-0.4-7.5-1.1-11.3c-7.6-37.8-48.4-58.3-83.2-41.8c-19.5,9.3-35.4,30.6-33.4,57.7
	c0.1,1.5-0.2,3.2,0.8,4.5c2-0.3,2-2.2,2.8-3.4c14.9-23.2,36.3-33.7,63.6-30.7c19.9,2.2,35.1,12.8,46,29.6c1,1.6,1.4,3.5,3.2,4.6
	c1.7-1.7,0.8-3.8,1.2-5.8C655.6,693.4,655.6,692.2,655.6,691z"/>
<path fill="#517382" d="M1451.2,410.4c-5.4-0.1-9.7-4.3-9.7-9.8c0-5.6,4.5-10,10.2-9.8c5.8,0.2,9.5,4.7,9.5,10
	C1461.1,406.2,1456.6,410.4,1451.2,410.4z"/>
<path fill="#517382" d="M1451.5,395.8c-2.6-0.1-5,2-5.1,4.5c-0.2,2.6,2.3,5.3,5,5.2c2.6,0,4.8-2.2,4.8-4.8
	C1456.2,398,1454.2,395.9,1451.5,395.8z"/>
<path fill="#517382" d="M608.1,730.4c0,1.7-1.3,2.8-2.6,2.5c-0.8-0.2-1.5-0.5-2.2-0.9c-1.4-0.8-2.6-1.8-4-2.7
	c-10.5-7.2-21-14.5-31.6-21.7c-1-0.7-2.1-1.5-3.1-2.3c-0.9-0.8-1-2.1-0.4-3.1c0.6-1,1.9-1.4,2.9-0.9c0.9,0.4,1.7,0.9,2.5,1.5
	c11.8,8.1,23.7,16.3,35.5,24.4c0.8,0.5,1.6,1.1,2.2,1.8C607.9,729.5,608,730.2,608.1,730.4z"/>
<path fill="#517382" d="M587.8,695.2c0.3,0.1,1,0.2,1.5,0.5c0.8,0.5,1.6,1,2.4,1.6c11.3,7.8,22.6,15.5,33.9,23.3
	c1,0.7,2.1,1.5,3,2.3c0.8,0.8,0.8,2.2,0.2,3.1c-0.7,0.9-2,1.3-3,0.7c-1-0.5-1.9-1.2-2.8-1.8c-11.4-7.9-22.9-15.7-34.3-23.6
	c-1-0.7-2.1-1.5-3-2.4c-0.7-0.7-0.7-1.8-0.2-2.7C586,695.6,586.7,695.3,587.8,695.2z"/>
</svg>
