<svg id="Layer_1" data-name="Layer 1" xmlns="http://www.w3.org/2000/svg" xmlns:xlink="http://www.w3.org/1999/xlink" viewBox="0 0 1400 980"><defs><style>.cls-1,.cls-14,.cls-18,.cls-24,.cls-29,.cls-30,.cls-32,.cls-5{fill:none;}.cls-2{fill:#b6e3fa;}.cls-10,.cls-3{fill:#fbc14d;}.cls-4{fill:#493547;}.cls-5{stroke:#f4d9a4;}.cls-10,.cls-13,.cls-14,.cls-18,.cls-22,.cls-24,.cls-25,.cls-29,.cls-30,.cls-32,.cls-33,.cls-5{stroke-linecap:round;stroke-linejoin:round;stroke-width:4.27px;}.cls-6{fill:#d2d2d2;}.cls-7{fill:#ac6928;}.cls-8{fill:#dc8427;}.cls-9{clip-path:url(#clip-path);}.cls-10,.cls-13,.cls-14,.cls-22,.cls-25,.cls-33{stroke:#493547;}.cls-11{clip-path:url(#clip-path-2);}.cls-12,.cls-13{fill:#fdcda5;}.cls-15{fill:#545152;}.cls-16{fill:#f9f9fa;}.cls-17{fill:#bc722e;}.cls-18{stroke:#e2bfa1;}.cls-19{fill:#969696;}.cls-20,.cls-22{fill:#429ad5;}.cls-21{fill:#e2b08f;}.cls-23,.cls-25{fill:#db4f9c;}.cls-24{stroke:#e77cb1;}.cls-26{fill:#846aae;}.cls-27{fill:#e77cb1;}.cls-28{fill:#875224;}.cls-29{stroke:#aa764f;}.cls-30{stroke:#cca2cb;}.cls-31{fill:#676063;}.cls-32{stroke:#969696;}.cls-33{fill:#b4b4b5;}</style><clipPath id="clip-path"><ellipse class="cls-1" cx="1169.55" cy="332.53" rx="41.32" ry="13.23"/></clipPath><clipPath id="clip-path-2"><rect class="cls-1" x="774.65" y="284.03" width="69.29" height="38.31" transform="translate(22.65 661.06) rotate(-45)"/></clipPath></defs><title>321485emojis</title><rect class="cls-2" width="1400" height="980"/><path class="cls-3" d="M180.66,353.65a2.15,2.15,0,0,1-1.51-.63L160.6,334.47a10.21,10.21,0,0,1,0-14.43l47.45-47.45a5.59,5.59,0,0,0,1.61-5.38A36.38,36.38,0,1,1,235,292.6a4.85,4.85,0,0,0-1.26-.17,5.88,5.88,0,0,0-4.09,1.79l-9.59,9.59,4.14,4.14a2.12,2.12,0,0,1,0,3l-14.65,14.66a2.17,2.17,0,0,1-1.51.62,2.13,2.13,0,0,1-1.51-.62l-4.15-4.14-9.71,9.71,4.14,4.14a2.15,2.15,0,0,1,0,3L182.17,353A2.13,2.13,0,0,1,180.66,353.65Zm64.09-108.94a12.81,12.81,0,1,0,9.06,3.75A12.74,12.74,0,0,0,244.75,244.71Z"/><path class="cls-4" d="M244.69,223.28a34.25,34.25,0,1,1-9.1,67.26,6.73,6.73,0,0,0-1.83-.25,8.06,8.06,0,0,0-5.6,2.42l-11.1,11.1,5.65,5.65-14.65,14.66-5.66-5.66L189.66,331.2l5.66,5.66-14.66,14.65L175,345.86,162.11,333a8.07,8.07,0,0,1,0-11.41l8.95-8.95,8.32-8.31L194,289.64l15.53-15.54a7.75,7.75,0,0,0,2.16-7.46,34.27,34.27,0,0,1,13-37,33.9,33.9,0,0,1,19.94-6.38m.05,49.2a15,15,0,1,0-10.57-4.38,14.92,14.92,0,0,0,10.57,4.38M244.69,219h0a38.45,38.45,0,0,0-37.09,48.77,3.53,3.53,0,0,1-1.06,3.3L191,286.61l-14.65,14.66L168,309.58l-8.95,8.95a12.35,12.35,0,0,0,0,17.45l12.9,12.9,5.65,5.65a4.27,4.27,0,0,0,6,0l14.66-14.65a4.28,4.28,0,0,0,0-6.05l-2.63-2.63,6.69-6.69,2.64,2.63a4.27,4.27,0,0,0,6,0l14.65-14.66a4.27,4.27,0,0,0,0-6l-2.63-2.63,8.08-8.08a3.8,3.8,0,0,1,2.58-1.16,2.61,2.61,0,0,1,.69.09,38.68,38.68,0,0,0,10.32,1.4,38.54,38.54,0,0,0,38.46-40.83A38.45,38.45,0,0,0,244.69,219Zm.05,49.19a10.67,10.67,0,1,1,7.56-3.13,10.61,10.61,0,0,1-7.56,3.13Z"/><path class="cls-5" d="M228.53,234.84a27.61,27.61,0,0,1,16.16-5.14"/><path class="cls-5" d="M175.6,317.14l8.31-8.32,14.66-14.65,15.53-15.53a14.18,14.18,0,0,0,3.8-13.7,27.67,27.67,0,0,1,4.49-24"/><path class="cls-6" d="M614.86,310.43a10.69,10.69,0,0,1-10.69-10.68V258.43a15.9,15.9,0,0,0-30.41-6.52,10.69,10.69,0,0,1-9.72,6.26,10.5,10.5,0,0,1-4.43-1,10.7,10.7,0,0,1-5.3-14.15,37.27,37.27,0,0,1,71.23,15.38v41.32A10.69,10.69,0,0,1,614.86,310.43Z"/><path class="cls-4" d="M588.26,223.28a35.18,35.18,0,0,1,35.14,35.15v41.32a8.55,8.55,0,0,1-17.09,0V258.43A18,18,0,0,0,571.82,251a8.55,8.55,0,0,1-15.56-7.08,35.26,35.26,0,0,1,32-20.66m0-4.27a39.54,39.54,0,0,0-35.89,23.16,12.84,12.84,0,0,0,6.36,17,12.67,12.67,0,0,0,5.31,1.16,12.85,12.85,0,0,0,11.67-7.52A13.76,13.76,0,0,1,602,258.43v41.32a12.83,12.83,0,0,0,25.65,0V258.43A39.47,39.47,0,0,0,588.26,219Z"/><rect class="cls-3" x="535.24" y="276.15" width="106.04" height="77.5" rx="19.93"/><path class="cls-4" d="M621.34,278.28a17.85,17.85,0,0,1,17.8,17.8v37.63a17.85,17.85,0,0,1-17.8,17.8H555.17a17.84,17.84,0,0,1-17.79-17.8V296.08a17.84,17.84,0,0,1,17.79-17.8h66.17m0-4.27H555.17a22.09,22.09,0,0,0-22.07,22.07v37.63a22.09,22.09,0,0,0,22.07,22.07h66.17a22.1,22.1,0,0,0,22.08-22.07V296.08A22.1,22.1,0,0,0,621.34,274Z"/><path class="cls-5" d="M543.79,312.87V296.08a11.39,11.39,0,0,1,11.38-11.38h15"/><path class="cls-7" d="M588.26,337a5.11,5.11,0,0,1-5.11-5.1V315.63a11,11,0,1,1,10.21,0v16.22A5.11,5.11,0,0,1,588.26,337Z"/><path class="cls-4" d="M588.26,297a8.88,8.88,0,0,1,3,17.26v17.62a3,3,0,0,1-5.94,0V314.23a8.88,8.88,0,0,1,3-17.26m0-4.27A13.15,13.15,0,0,0,581,316.85v15a7.24,7.24,0,0,0,14.48,0v-15a13.15,13.15,0,0,0-7.24-24.15Z"/><path class="cls-6" d="M421.09,310.43a10.69,10.69,0,0,1-10.68-10.68V258.43a15.92,15.92,0,0,0-31.83,0v41.32a10.69,10.69,0,0,1-21.37,0V258.43a37.29,37.29,0,0,1,74.57,0v41.32A10.7,10.7,0,0,1,421.09,310.43Z"/><path class="cls-4" d="M394.5,223.28a35.19,35.19,0,0,1,35.14,35.15v41.32a8.55,8.55,0,0,1-17.1,0V258.43a18,18,0,1,0-36.09,0v41.32a8.55,8.55,0,0,1-17.1,0V258.43a35.19,35.19,0,0,1,35.15-35.15m0-4.27a39.46,39.46,0,0,0-39.42,39.42v41.32a12.82,12.82,0,0,0,25.64,0V258.43a13.78,13.78,0,1,1,27.55,0v41.32a12.82,12.82,0,0,0,25.64,0V258.43A39.46,39.46,0,0,0,394.5,219Z"/><rect class="cls-3" x="341.48" y="276.15" width="106.04" height="77.5" rx="19.93"/><path class="cls-4" d="M427.58,278.28a17.85,17.85,0,0,1,17.8,17.8v37.63a17.85,17.85,0,0,1-17.8,17.8H361.41a17.85,17.85,0,0,1-17.8-17.8V296.08a17.85,17.85,0,0,1,17.8-17.8h66.17m0-4.27H361.41a22.09,22.09,0,0,0-22.07,22.07v37.63a22.09,22.09,0,0,0,22.07,22.07h66.17a22.09,22.09,0,0,0,22.07-22.07V296.08A22.09,22.09,0,0,0,427.58,274Z"/><path class="cls-5" d="M350,312.87V296.08a11.39,11.39,0,0,1,11.39-11.38h15"/><path class="cls-7" d="M394.5,337a5.11,5.11,0,0,1-5.11-5.1V315.63a11,11,0,1,1,10.21,0v16.22A5.11,5.11,0,0,1,394.5,337Z"/><path class="cls-4" d="M394.5,297a8.88,8.88,0,0,1,3,17.26v17.62a3,3,0,0,1-5.93,0V314.23a8.88,8.88,0,0,1,3-17.26m0-4.27a13.16,13.16,0,0,0-7.25,24.15v15a7.25,7.25,0,0,0,14.49,0v-15a13.16,13.16,0,0,0-7.24-24.15Z"/><path class="cls-3" d="M1169.55,254.6a14.31,14.31,0,0,1-14.29-14.29v-4.87a14.29,14.29,0,0,1,28.58,0v4.87A14.31,14.31,0,0,1,1169.55,254.6Zm0-22a2.86,2.86,0,0,0-2.86,2.86v4.87a2.87,2.87,0,0,0,5.73,0v-4.87A2.87,2.87,0,0,0,1169.55,232.58Z"/><path class="cls-4" d="M1169.55,223.28a12.18,12.18,0,0,1,12.16,12.16v4.87a12.16,12.16,0,0,1-24.32,0v-4.87a12.18,12.18,0,0,1,12.16-12.16m0,22a5,5,0,0,0,5-5v-4.87a5,5,0,0,0-10,0v4.87a5,5,0,0,0,5,5m0-26.3a16.45,16.45,0,0,0-16.43,16.43v4.87a16.43,16.43,0,1,0,32.86,0v-4.87A16.45,16.45,0,0,0,1169.55,219Zm0,22a.73.73,0,0,1-.73-.72v-4.87a.73.73,0,0,1,1.46,0v4.87a.73.73,0,0,1-.73.72Z"/><path class="cls-3" d="M1169.55,353.65c-27.74,0-49.82-8.87-51.82-20.71a2.2,2.2,0,0,1-.13-.52s0-.35-.06-.95a1.37,1.37,0,0,1,0-.29V331c-.06-3.6.73-15.51,12.52-27.3,4.48-4.48,6.49-13.77,8.62-23.62,3.78-17.47,8.48-39.21,30.89-39.21s27.11,21.74,30.89,39.21c2.13,9.85,4.14,19.14,8.63,23.62,11.78,11.79,12.57,23.7,12.51,27.3v.16a1.72,1.72,0,0,1,0,.32c0,.6-.06.92-.06.92a2.37,2.37,0,0,1-.13.54C1219.34,344.79,1197.27,353.65,1169.55,353.65Z"/><path class="cls-4" d="M1169.55,243c32.5,0,24.46,48.66,38,62.2,11.3,11.29,12,22.47,11.89,25.88,0,0,0,.05,0,.07s0,.08,0,.12c0,.56,0,.89,0,.89h-.06c-1.3,10.76-23,19.32-49.77,19.32s-48.47-8.56-49.77-19.32h0s0-.33-.06-.89c0,0,0-.08,0-.12v-.07c-.08-3.41.6-14.59,11.89-25.88,13.54-13.54,5.5-62.2,38-62.2m0-4.28c-10.75,0-19,4.79-24.41,14.22-4.47,7.73-6.56,17.37-8.57,26.68-2.06,9.53-4,18.53-8,22.56-12,12-13.22,23.93-13.14,28.76a1.48,1.48,0,0,0,0,.21,3.43,3.43,0,0,0,0,.48c0,.56.06.92.07,1a4.11,4.11,0,0,0,.18.86c1.21,6.6,7.38,12.25,17.92,16.36,9.79,3.81,22.57,5.91,36,5.91s26.18-2.1,36-5.91c10.54-4.11,16.71-9.76,17.92-16.36a4.88,4.88,0,0,0,.19-.86c0-.07,0-.43.07-1,0-.14,0-.3,0-.48V331c.07-4.82-1.14-16.77-13.14-28.77-4-4-6-13-8-22.56-2-9.31-4.1-18.95-8.57-26.68-5.45-9.43-13.66-14.22-24.41-14.22Z"/><path class="cls-5" d="M1153.43,260.1c2.53-5.18,5.84-8.62,10.77-10"/><path class="cls-5" d="M1136.08,309.77c6.26-6.26,8.53-16.75,10.93-27.86,1.06-4.86,2.07-9.26,3.2-13.15"/><ellipse class="cls-8" cx="1169.55" cy="332.53" rx="39.18" ry="11.1"/><path class="cls-4" d="M1169.55,323.57c10.61,0,20.52,1.31,27.91,3.68,7.55,2.41,9.13,4.89,9.13,5.28s-1.58,2.87-9.13,5.29c-7.39,2.37-17.3,3.67-27.91,3.67s-20.52-1.3-27.91-3.67c-7.55-2.42-9.13-4.9-9.13-5.29s1.58-2.87,9.13-5.28c7.39-2.37,17.31-3.68,27.91-3.68m0-4.27c-22.82,0-41.32,5.92-41.32,13.23s18.5,13.24,41.32,13.24,41.32-5.93,41.32-13.24-18.5-13.23-41.32-13.23Z"/><g class="cls-9"><rect class="cls-10" x="1152.61" y="288.46" width="33.89" height="48.51" rx="16.94"/></g><path class="cls-4" d="M1169.55,323.57c10.61,0,20.52,1.31,27.91,3.68,7.55,2.41,9.13,4.89,9.13,5.28s-1.58,2.87-9.13,5.29c-7.39,2.37-17.3,3.67-27.91,3.67s-20.52-1.3-27.91-3.67c-7.55-2.42-9.13-4.9-9.13-5.29s1.58-2.87,9.13-5.28c7.39-2.37,17.31-3.68,27.91-3.68m0-4.27c-22.82,0-41.32,5.92-41.32,13.23s18.5,13.24,41.32,13.24,41.32-5.93,41.32-13.24-18.5-13.23-41.32-13.23Z"/><path class="cls-3" d="M1020.79,263.94a5.08,5.08,0,0,1-5.07-5.07V226.22a5.07,5.07,0,1,1,10.14,0v32.65A5.08,5.08,0,0,1,1020.79,263.94Z"/><path class="cls-4" d="M1020.79,223.28a2.94,2.94,0,0,1,2.93,2.94v32.65a2.93,2.93,0,0,1-5.86,0V226.22a2.94,2.94,0,0,1,2.93-2.94m0-4.27a7.22,7.22,0,0,0-7.21,7.21v32.65a7.21,7.21,0,0,0,14.42,0V226.22a7.22,7.22,0,0,0-7.21-7.21Z"/><path class="cls-3" d="M1019,262.17a5.07,5.07,0,1,1,0-10.14h32.65a5.07,5.07,0,0,1,0,10.14Z"/><path class="cls-4" d="M1051.67,254.17a2.93,2.93,0,1,1,0,5.86H1019a2.93,2.93,0,1,1,0-5.86h32.65m0-4.28H1019a7.21,7.21,0,0,0,0,14.42h32.65a7.21,7.21,0,1,0,0-14.42Z"/><path class="cls-6" d="M965.78,353.65a2,2,0,0,1-.64-.1,2.14,2.14,0,0,1-1.46-1.66L957.89,320,926,314.21a2.13,2.13,0,0,1-1.13-3.61l73.42-73.42a2.09,2.09,0,0,1,1.51-.62,2.13,2.13,0,0,1,1.51.62l39.4,39.4a2.15,2.15,0,0,1,0,3L967.29,353A2.13,2.13,0,0,1,965.78,353.65Zm39.4-94.94a14,14,0,1,0,9.9,4.1A13.94,13.94,0,0,0,1005.18,258.71Z"/><path class="cls-4" d="M999.8,238.69l39.4,39.4-73.42,73.42-6-33.35-33.35-6.05,73.42-73.42m5.38,50.15a16.13,16.13,0,1,0-11.41-4.72,16.08,16.08,0,0,0,11.41,4.72m-5.38-54.42a4.29,4.29,0,0,0-3,1.25l-73.41,73.42a4.27,4.27,0,0,0,2.26,7.22l30.43,5.53,5.52,30.43a4.25,4.25,0,0,0,4.21,3.51,4.23,4.23,0,0,0,3-1.25l73.42-73.41a4.29,4.29,0,0,0,0-6.05l-39.4-39.4a4.29,4.29,0,0,0-3-1.25Zm5.38,50.15a11.85,11.85,0,1,1,8.39-3.47,11.78,11.78,0,0,1-8.39,3.47Z"/><path class="cls-3" d="M1014.9,269.49a5.35,5.35,0,0,1-3.83-1.59l-1.09-1.08a5.43,5.43,0,0,1,0-7.67l8-8a5.44,5.44,0,0,1,7.67,0l1.08,1.09a5.42,5.42,0,0,1,0,7.67l-8,8A5.35,5.35,0,0,1,1014.9,269.49Z"/><path class="cls-4" d="M1021.81,251.72a3.27,3.27,0,0,1,2.32,1l1.08,1.08a3.3,3.3,0,0,1,0,4.65l-8,8a3.3,3.3,0,0,1-4.65,0l-1.08-1.08a3.3,3.3,0,0,1,0-4.65l8-8a3.28,3.28,0,0,1,2.33-1m0-4.28a7.52,7.52,0,0,0-5.35,2.21l-8,8a7.57,7.57,0,0,0,0,10.69l1.09,1.09a7.57,7.57,0,0,0,10.69,0l8-8a7.57,7.57,0,0,0,0-10.69l-1.09-1.09a7.51,7.51,0,0,0-5.34-2.21Z"/><path class="cls-6" d="M805.41,311.3a31.31,31.31,0,0,1-22.15-53.46l27.53-27.53a31.32,31.32,0,1,1,44.3,44.29l-27.54,27.54A31.12,31.12,0,0,1,805.41,311.3Zm27.53-74.09a15.11,15.11,0,0,0-10.78,4.46l-27.54,27.54a15.25,15.25,0,0,0,21.57,21.57l27.54-27.54a15.25,15.25,0,0,0-10.79-26Z"/><path class="cls-4" d="M832.94,223.28a29.18,29.18,0,0,1,20.64,49.81L826,300.63a29.19,29.19,0,0,1-41.27-41.28l27.54-27.53a29.07,29.07,0,0,1,20.63-8.54m-27.53,74.09a17.32,17.32,0,0,0,12.29-5.08l27.54-27.54a17.39,17.39,0,0,0-24.59-24.59l-27.54,27.53a17.39,17.39,0,0,0,12.3,29.68M832.94,219h0a33.22,33.22,0,0,0-23.66,9.78l-27.53,27.54a33.46,33.46,0,0,0,47.31,47.32l27.54-27.54A33.45,33.45,0,0,0,832.94,219ZM805.41,293.1a13.12,13.12,0,0,1-9.28-22.38l27.54-27.54a13.12,13.12,0,0,1,18.55,18.55l-27.54,27.53a13,13,0,0,1-9.27,3.84Z"/><path class="cls-6" d="M763.06,353.65a31.31,31.31,0,0,1-22.15-53.46l27.54-27.53A31.32,31.32,0,0,1,812.74,317L785.2,344.49A31.12,31.12,0,0,1,763.06,353.65Zm27.53-74.09A15.11,15.11,0,0,0,779.81,284l-27.54,27.54a15.25,15.25,0,0,0,21.57,21.57l27.54-27.54a15.25,15.25,0,0,0-10.79-26Z"/><path class="cls-4" d="M790.59,265.63a29.18,29.18,0,0,1,20.64,49.81L783.69,343a29.19,29.19,0,0,1-41.27-41.28L770,274.17a29.07,29.07,0,0,1,20.63-8.54m-27.53,74.09a17.32,17.32,0,0,0,12.29-5.08l27.54-27.54a17.39,17.39,0,0,0-24.59-24.59L750.76,310a17.39,17.39,0,0,0,12.3,29.68m27.53-78.36h0a33.22,33.22,0,0,0-23.66,9.78L739.4,298.68A33.46,33.46,0,0,0,786.71,346l27.54-27.54a33.45,33.45,0,0,0-23.66-57.1Zm-27.53,74.09a13.12,13.12,0,0,1-9.28-22.38l27.54-27.54a13.12,13.12,0,0,1,18.55,18.55l-27.54,27.53a13,13,0,0,1-9.27,3.84Z"/><g class="cls-11"><path class="cls-6" d="M805.41,311.3a31.31,31.31,0,0,1-22.15-53.46l27.53-27.53a31.32,31.32,0,1,1,44.3,44.29l-27.54,27.54A31.12,31.12,0,0,1,805.41,311.3Zm27.53-74.09a15.11,15.11,0,0,0-10.78,4.46l-27.54,27.54a15.25,15.25,0,0,0,21.57,21.57l27.54-27.54a15.25,15.25,0,0,0-10.79-26Z"/><path class="cls-4" d="M832.94,223.28a29.18,29.18,0,0,1,20.64,49.81L826,300.63a29.19,29.19,0,0,1-41.27-41.28l27.54-27.53a29.07,29.07,0,0,1,20.63-8.54m-27.53,74.09a17.32,17.32,0,0,0,12.29-5.08l27.54-27.54a17.39,17.39,0,0,0-24.59-24.59l-27.54,27.53a17.39,17.39,0,0,0,12.3,29.68M832.94,219h0a33.22,33.22,0,0,0-23.66,9.78l-27.53,27.54a33.46,33.46,0,0,0,47.31,47.32l27.54-27.54A33.45,33.45,0,0,0,832.94,219ZM805.41,293.1a13.12,13.12,0,0,1-9.28-22.38l27.54-27.54a13.12,13.12,0,0,1,18.55,18.55l-27.54,27.53a13,13,0,0,1-9.27,3.84Z"/></g><path class="cls-12" d="M215.62,490.36a2.09,2.09,0,0,1-.89-.19,2.14,2.14,0,0,1-1.18-1.41l-7.13-27.63c-.47-1-2.65-5.8-4.57-11.35-3-8.71-3.76-14.55-2.29-17.85a5.23,5.23,0,0,1,3.3-3,10.59,10.59,0,0,1,3.11-.5c7.4,0,9.94,8.34,16.07,28.49,2,6.64,4.54,14.9,7.75,24.57a2.14,2.14,0,0,1-1.08,2.58l-12.14,6.05A2.13,2.13,0,0,1,215.62,490.36Z"/><path class="cls-4" d="M206,430.59c7.9,0,9.57,14.77,21.79,51.59l-12.14,6-7.18-27.82s-12.73-27.06-5-29.4a8.68,8.68,0,0,1,2.49-.41m0-4.28h0a13,13,0,0,0-3.72.59,7.41,7.41,0,0,0-4.64,4.16c-1.08,2.44-2,7.1,2.22,19.42,1.85,5.35,3.95,10,4.56,11.37l7.09,27.44a4.27,4.27,0,0,0,6,2.76L229.66,486a4.26,4.26,0,0,0,2.15-5.17c-3.19-9.63-5.7-17.88-7.72-24.51-2.92-9.59-5-16.52-7.22-21.17-1.14-2.42-4.16-8.84-10.9-8.84Z"/><path class="cls-12" d="M202.38,561a2.14,2.14,0,0,1-2.14-2.14V539.89a1.88,1.88,0,0,1,.07-.53c-6.95-18-2.75-37.34-2.56-38.18a2.14,2.14,0,0,1,1.69-1.63l49-9.37a1.9,1.9,0,0,1,.41,0,2.15,2.15,0,0,1,2,1.32,51.48,51.48,0,0,1,1.71,28.74c-2.93,13.28-11.15,19.15-14.36,21v17.62a2.14,2.14,0,0,1-2.14,2.14Z"/><path class="cls-4" d="M248.88,492.28a49.69,49.69,0,0,1,1.61,27.45c-3.41,15.44-14.42,20.16-14.42,20.16v18.92H202.38V539.89h.44c-7.53-17.95-3-38.24-3-38.24l49-9.37m0-4.28a4.45,4.45,0,0,0-.81.08l-49,9.37a4.26,4.26,0,0,0-3.37,3.27c-.19.85-4.45,20.43,2.44,38.88,0,.1,0,.19,0,.29v18.92a4.28,4.28,0,0,0,4.28,4.28h33.69a4.28,4.28,0,0,0,4.28-4.28V542.38c4-2.59,11.5-9,14.31-21.72a53.79,53.79,0,0,0-1.83-30,4.28,4.28,0,0,0-3.94-2.63Z"/><path class="cls-12" d="M191.23,506.06a2.12,2.12,0,0,1-2.08-2.61l10.06-43.58a2.1,2.1,0,0,1,.41-.85L223,429.67a2.13,2.13,0,0,1,2.69-.55,11.63,11.63,0,0,1,5.47,8.5c.92,6.92-3.63,15.26-13.53,24.8L213.69,491a2.16,2.16,0,0,1-.95,1.5L192.4,505.72A2.18,2.18,0,0,1,191.23,506.06Z"/><path class="cls-4" d="M224.64,431s14.63,7.91-9,30.39l-4,29.28-20.34,13.26,10.07-43.58L224.64,431m0-4.28a4.29,4.29,0,0,0-3.35,1.62L198,457.69a4.2,4.2,0,0,0-.82,1.7L187.06,503a4.28,4.28,0,0,0,6.5,4.54l20.34-13.26a4.28,4.28,0,0,0,1.9-3l3.82-27.81c10-9.83,14.62-18.6,13.63-26.11a13.66,13.66,0,0,0-6.58-10.09,4.23,4.23,0,0,0-2-.52Z"/><path class="cls-12" d="M220.61,511.88a9,9,0,0,1-8.29-12.56l10.39-24.38a9,9,0,0,1,8.32-5.48,8.87,8.87,0,0,1,3.52.72A9,9,0,0,1,239.31,482l-10.38,24.37A9,9,0,0,1,220.61,511.88Z"/><path class="cls-4" d="M231,471.6a6.67,6.67,0,0,1,2.68.55,6.9,6.9,0,0,1,3.64,9L227,505.55a6.88,6.88,0,0,1-12.67-5.39l10.39-24.38A6.9,6.9,0,0,1,231,471.6m0-4.28h0a11.18,11.18,0,0,0-10.29,6.79l-10.38,24.37a11.16,11.16,0,0,0,20.53,8.75l10.39-24.37A11.15,11.15,0,0,0,231,467.32Z"/><path class="cls-12" d="M235.72,522a9,9,0,0,1-8.28-12.55l8.25-19.39a9,9,0,0,1,8.33-5.48,8.86,8.86,0,0,1,3.51.72,9,9,0,0,1,4.77,11.84L244,516.56A9,9,0,0,1,235.72,522Z"/><path class="cls-4" d="M244,486.76a6.86,6.86,0,0,1,6.31,9.58l-8.26,19.38a6.91,6.91,0,0,1-6.35,4.19,6.84,6.84,0,0,1-2.68-.55,6.91,6.91,0,0,1-3.64-9l8.26-19.38a6.91,6.91,0,0,1,6.36-4.18m0-4.28h0a11.15,11.15,0,0,0-10.29,6.78l-8.26,19.39A11.16,11.16,0,0,0,246,517.4L254.26,498A11.15,11.15,0,0,0,244,482.48Z"/><path class="cls-13" d="M202.38,539.89s-14.75-12.79-17.68-27.43c0,0,6.84-24.9,28.81-33.21,0,0,14.65,11.17-7.81,27.08,0,0,12.21,6.33,10.74,18.19"/><path class="cls-12" d="M418.28,540a62.7,62.7,0,0,1-13.55-1.47c-16.06-3.54-23-13.58-25-17.19H358.45a2.13,2.13,0,0,1-2.13-2.13v-40.3a2.13,2.13,0,0,1,2.13-2.14h22.63a2.07,2.07,0,0,1,.66.1,76.46,76.46,0,0,1,27.73-4.76,90.17,90.17,0,0,1,17.81,1.67,2.16,2.16,0,0,1,1.64,1.69l11.2,58.66a2.13,2.13,0,0,1-1.27,2.37,58,58,0,0,1-20.57,3.5Z"/><path class="cls-4" d="M409.47,474.24a87.47,87.47,0,0,1,17.35,1.63L438,534.53a56.17,56.17,0,0,1-19.75,3.33,60.28,60.28,0,0,1-13.09-1.42c-18.46-4.07-24.1-17.24-24.1-17.24H358.45V478.91h22.64v.53c9.72-4.08,20-5.2,28.38-5.2m0-4.27v0a78.68,78.68,0,0,0-27.92,4.69,3.55,3.55,0,0,0-.46,0H358.45a4.28,4.28,0,0,0-4.27,4.28V519.2a4.27,4.27,0,0,0,4.27,4.28h20.11c2.84,4.54,10.3,13.74,25.71,17.14a65,65,0,0,0,14,1.52,60.1,60.1,0,0,0,21.39-3.67,4.27,4.27,0,0,0,2.55-4.75L431,475.07a4.26,4.26,0,0,0-3.26-3.37A91.41,91.41,0,0,0,409.47,470Z"/><path class="cls-12" d="M454.66,511.52c-.34,0-.68,0-1,0l-27.44-2.72a10.38,10.38,0,0,1,1-20.7,8.72,8.72,0,0,1,1,.06l27.45,2.71a10.38,10.38,0,0,1-1,20.7Z"/><path class="cls-4" d="M427.21,490.19a7.32,7.32,0,0,1,.81,0L455.47,493a8.24,8.24,0,0,1-.81,16.43,7.63,7.63,0,0,1-.82,0l-27.44-2.72a8.24,8.24,0,0,1,.81-16.43m0-4.27h0a12.51,12.51,0,0,0-1.23,25l27.44,2.72c.41,0,.83.06,1.24.06a12.51,12.51,0,0,0,1.23-25L428.44,486c-.4,0-.82-.06-1.23-.06Z"/><path class="cls-12" d="M425,488.49a10,10,0,0,1-9.87-10.18v-.7a10.07,10.07,0,0,1,10-9.87l28.43.43a10,10,0,0,1,9.87,10.17v.7a10.07,10.07,0,0,1-10,9.87Z"/><path class="cls-4" d="M425.2,469.88h.12l28.27.42a7.91,7.91,0,0,1,7.77,8v.7a7.91,7.91,0,0,1-7.88,7.76h-.12l-28.28-.42a7.92,7.92,0,0,1-7.77-8l0-.71a7.9,7.9,0,0,1,7.88-7.76m0-4.28h0a12.22,12.22,0,0,0-12.16,12v.7a12.17,12.17,0,0,0,12,12.34l28.27.43h.19a12.21,12.21,0,0,0,12.15-12v-.7a12.17,12.17,0,0,0-12-12.34l-28.28-.43Z"/><path class="cls-13" d="M378.13,481.75s6-18,24.05-27.33a137.6,137.6,0,0,0,28.71-26s14.76,11.48,0,24.6-20,21.32-20.23,26.24c0,0,3.28,24.06-17.5,29.53"/><path class="cls-13" d="M405.89,537.79s19,6.56,29.66,12.85,24.84,15.21,28.92,7c5.72-11.51-24.28-21.23-29.34-25.87"/><path class="cls-12" d="M448.62,532.29a9.47,9.47,0,0,1-1.3-.09l-24.15-3.29A9.62,9.62,0,0,1,415,518.09l.06-.44a9.65,9.65,0,0,1,9.52-8.31,9.47,9.47,0,0,1,1.3.09l24.15,3.3a9.63,9.63,0,0,1,8.22,10.82l-.06.43A9.65,9.65,0,0,1,448.62,532.29Z"/><path class="cls-4" d="M424.53,511.48a7,7,0,0,1,1,.07l24.15,3.29a7.5,7.5,0,0,1,6.39,8.42l-.06.43a7.5,7.5,0,0,1-7.4,6.47,8.57,8.57,0,0,1-1-.07l-24.15-3.3a7.48,7.48,0,0,1-6.39-8.41l.06-.44a7.5,7.5,0,0,1,7.4-6.46m0-4.27h0a11.79,11.79,0,0,0-11.64,10.16l-.06.43A11.77,11.77,0,0,0,422.88,531L447,534.32a12.14,12.14,0,0,0,1.59.11,11.8,11.8,0,0,0,11.64-10.16l.06-.43a11.77,11.77,0,0,0-10.05-13.23l-24.15-3.3a12.12,12.12,0,0,0-1.59-.1Z"/><path class="cls-12" d="M548.8,534.88c-9.95,0-17.72-2.2-23.1-6.53-7-5.61-3-22.43,3.26-45.59,1.9-7,3.69-13.53,4.58-18.54,2.15-12,8.8-13.81,12.57-13.81a16.2,16.2,0,0,1,7,1.78c2.27.94,8,3.86,10.13,42.14,1.06,18.65.78,37,.77,37.17a2.13,2.13,0,0,1-1.67,2,69.11,69.11,0,0,1-13.59,1.33Z"/><path class="cls-4" d="M546.11,452.55a13.88,13.88,0,0,1,6.13,1.58c10.86,4.42,9.69,77.33,9.69,77.33a67.86,67.86,0,0,1-13.13,1.28c-7.16,0-15.75-1.22-21.76-6-8.94-7.21,5.39-44.05,8.61-62.1,1.75-9.8,6.49-12,10.46-12m0-4.28c-4.44,0-12.26,2-14.67,15.57-.88,4.92-2.66,11.45-4.54,18.36-6.72,24.7-10.53,41.37-2.54,47.81,5.77,4.65,14,7,24.44,7a71.7,71.7,0,0,0,14.05-1.38,4.28,4.28,0,0,0,3.35-4.11c0-.18.28-18.6-.78-37.32a216.32,216.32,0,0,0-2.89-26.93c-1.92-10.1-4.45-15.22-8.43-17a18,18,0,0,0-8-2Z"/><path class="cls-12" d="M572.51,529a80.35,80.35,0,0,1-19.14-2l-12.78-2.11c-4.24-.49-7.37-2-9.2-4.53-2.58-3.54-2.11-8.27-1.21-12.84l0-.15,11.85-43.38c1.28-6.24,8.89-14.93,15.71-15.86l1.26-.18a116.64,116.64,0,0,1,16-1.51c6.66,0,13.86,1.05,28.54,4.16l20.94,3.28h27.86a2.14,2.14,0,0,1,2.14,2.14v49.91a2.14,2.14,0,0,1-2.14,2.14H625.51c-2.39,3.48-11.18,14.17-31.17,18.59A101.58,101.58,0,0,1,572.51,529Z"/><path class="cls-4" d="M575,448.51c6.55,0,13.91,1.1,28.16,4.12L624.34,456h28v49.91h-28s-7.6,13.59-30.46,18.64a99.44,99.44,0,0,1-21.38,2.33,77.9,77.9,0,0,1-18.68-2l-12.88-2.12c-10.54-1.24-9.94-8.38-8.67-14.86l11.87-43.44c1.1-5.62,8.25-13.47,13.92-14.25,7.14-1,11.81-1.66,17-1.66m0-4.28a117,117,0,0,0-16.29,1.54l-1.26.17c-7.73,1.06-16,10.45-17.5,17.48l-11.83,43.31c0,.1,0,.21-.07.31-1,5.05-1.48,10.3,1.59,14.51,2.18,3,5.77,4.8,10.67,5.4L552.93,529a83.74,83.74,0,0,0,19.57,2.08,103.36,103.36,0,0,0,22.3-2.44c19.1-4.21,28.45-14.11,31.79-18.53h25.78a4.28,4.28,0,0,0,4.28-4.28V456a4.28,4.28,0,0,0-4.28-4.27h-27.7L604,448.43c-14.81-3.14-22.12-4.2-28.93-4.2Z"/><path class="cls-14" d="M577.85,504.81s-9.76-4.39-18.52-2.2c0,0,7.32-8.95,7.32-16.51"/><path class="cls-13" d="M593.88,489.05S575.8,500.54,574,507.1c0,0-26.69,12.63-23.08,23.78s20.51,15.44,40.12-.12c0,0,19-3.93,33.3-22.9"/><path class="cls-13" d="M562,501.69s-5.43.69-8.53,4"/><path class="cls-12" d="M821.48,534.88a68.83,68.83,0,0,1-13.58-1.33,2.13,2.13,0,0,1-1.68-2c0-.18-.28-18.52.77-37.17,2.17-38.28,7.86-41.2,10.14-42.14a16.14,16.14,0,0,1,7-1.78c3.77,0,10.43,1.79,12.57,13.81.89,5,2.68,11.58,4.58,18.54,6.3,23.15,10.23,40,3.26,45.59C839.2,532.68,831.43,534.88,821.48,534.88Z"/><path class="cls-4" d="M824.17,452.55c4,0,8.72,2.24,10.47,12,3.21,18.05,17.55,54.89,8.6,62.1-6,4.83-14.6,6-21.76,6a68,68,0,0,1-13.13-1.28s-1.17-72.91,9.69-77.33a13.88,13.88,0,0,1,6.13-1.58m0-4.28h0a18,18,0,0,0-8,2c-4,1.78-6.51,6.9-8.43,17a216.32,216.32,0,0,0-2.89,26.93c-1.06,18.72-.78,37.14-.78,37.32a4.28,4.28,0,0,0,3.36,4.11,71.41,71.41,0,0,0,14,1.38c10.45,0,18.67-2.36,24.44-7,8-6.44,4.19-23.11-2.54-47.81-1.88-6.91-3.66-13.44-4.54-18.36-2.41-13.54-10.23-15.57-14.67-15.57Z"/><path class="cls-12" d="M797.78,529a101.68,101.68,0,0,1-21.84-2.38c-20-4.42-28.77-15.11-31.17-18.59H717.91a2.14,2.14,0,0,1-2.14-2.14V456a2.14,2.14,0,0,1,2.14-2.14h27.86l20.94-3.28c14.68-3.11,21.89-4.16,28.54-4.16a116.64,116.64,0,0,1,16,1.51l1.26.18c6.82.93,14.44,9.62,15.71,15.86l11.85,43.38a.83.83,0,0,0,0,.15c.89,4.57,1.36,9.3-1.22,12.84-1.83,2.51-5,4-9.3,4.55l-12.68,2.09a80.22,80.22,0,0,1-19.13,2Z"/><path class="cls-4" d="M795.25,448.51c5.16,0,9.83.68,17,1.66,5.67.78,12.82,8.63,13.92,14.25L838,507.86c1.27,6.48,1.87,13.62-8.67,14.86l-12.88,2.12a77.9,77.9,0,0,1-18.68,2,99.44,99.44,0,0,1-21.38-2.33c-22.86-5-30.46-18.64-30.46-18.64h-28V456h28l21.16-3.32c14.24-3,21.6-4.12,28.15-4.12m0-4.28h0c-6.81,0-14.12,1.06-28.93,4.2l-20.71,3.25h-27.7a4.27,4.27,0,0,0-4.27,4.27v49.91a4.28,4.28,0,0,0,4.27,4.28h25.78c3.34,4.42,12.69,14.32,31.79,18.53a103.36,103.36,0,0,0,22.3,2.44A83.74,83.74,0,0,0,817.35,529L829.94,527c4.91-.6,8.5-2.41,10.67-5.4,3.07-4.21,2.58-9.46,1.59-14.51,0-.1,0-.21-.07-.31L830.3,463.42c-1.48-7-9.77-16.42-17.5-17.48l-1.25-.17a117.08,117.08,0,0,0-16.3-1.54Z"/><path class="cls-14" d="M792.43,504.81s9.77-4.39,18.52-2.2c0,0-7.32-8.95-7.32-16.51"/><path class="cls-13" d="M776.4,489.05s18.09,11.49,19.88,18.05c0,0,26.7,12.63,23.08,23.78s-20.51,15.44-40.12-.12c0,0-19-3.93-33.3-22.9"/><path class="cls-13" d="M808.32,501.69s5.43.69,8.54,4"/><path class="cls-13" d="M977.43,539.89s-14.74-12.79-17.67-27.43c0,0,5.5-24.9,27.48-33.21,0,0,16,11.17-6.49,27.08,0,0,12.21,6.33,10.75,18.19"/><path class="cls-12" d="M977.43,561a2.14,2.14,0,0,1-2.14-2.14V540.4a3.25,3.25,0,0,1-.4-.15,2.13,2.13,0,0,1-.65-.42c-.59-.55-14.4-13.68-18.08-29.78,0-.07,0-.13,0-.2s-3-21.5-16.18-35.32a2.14,2.14,0,0,1-.18-2.74,11.91,11.91,0,0,1,9-4.53c3.56,0,7.17,1.72,10.72,5.13a46.41,46.41,0,0,1,9.29,13.13c-.26-9-.66-20.15-1.12-25.28-.8-9-1.89-21.3,5.34-23.09a13.57,13.57,0,0,1,3.25-.39,15,15,0,0,1,4.53.72,11.76,11.76,0,0,1,2.32-6.27,7.6,7.6,0,0,1,5.38-2.77c.35,0,.7-.05,1-.05,4.84,0,7.62,3.09,9.05,6.3a9.18,9.18,0,0,1,6.49-2.65,10,10,0,0,1,1.07.06c5.62.6,7.65,5.28,8.51,9.1a8.94,8.94,0,0,1,4-1,8.44,8.44,0,0,1,3.77.91c5.22,2.61,5.33,6.82,5.59,16,0,1.22.07,2.55.12,4,.35,10.19.11,42.15-.88,51.8,0,.53-.11,1.09-.18,1.66l-.12,1.13a2.31,2.31,0,0,1-.14.59l0,.21c-.14,1-.29,2-.53,3.14-2.92,13.22-10.2,19.42-13,21.38v17.75a2.13,2.13,0,0,1-2.13,2.14Z"/><path class="cls-4" d="M989.53,430.53c7.41,0,8.18,9.12,8.18,9.12s2.09-5.47,7.36-5.47a8.13,8.13,0,0,1,.84,0c5.89.64,6.77,7.39,7.19,10.76a8.29,8.29,0,0,1,5.57-2.65,6.11,6.11,0,0,1,2.81.69c4.63,2.31,4.11,6,4.53,18.2.36,10.31.09,42.18-.87,51.51-.05.54-.1,1.08-.17,1.63s-.12,1.16-.12,1.16l-.07.05c-.18,1.2-.32,2.39-.6,3.65-3.4,15.43-13.05,20.67-13.05,20.67v18.92h-33.7V539.89h.45c-.18-.42-.31-.84-.47-1.25a8,8,0,0,1-1.71-.36s-13.88-13-17.46-28.71c0,0-2.87-22-16.75-36.52a9.7,9.7,0,0,1,7.3-3.66c2.54,0,5.66,1.11,9.24,4.54,10.1,9.68,13.25,24.82,13.25,24.82s-.63-29.23-1.47-38.7-1.39-19.56,3.72-20.82a11.64,11.64,0,0,1,2.74-.33,13.33,13.33,0,0,1,6.64,1.84s-1.06-9.57,5.78-10.17a8.13,8.13,0,0,1,.84,0m0-4.27h0c-.4,0-.81,0-1.22.05a9.71,9.71,0,0,0-6.85,3.55,12.4,12.4,0,0,0-2.37,5,16.74,16.74,0,0,0-2.82-.24,15.73,15.73,0,0,0-3.76.45c-9,2.22-7.82,15.59-7,25.35.32,3.57.61,10.1.85,16.78a42.91,42.91,0,0,0-5.41-6.36c-4-3.8-8.07-5.73-12.2-5.73A13.89,13.89,0,0,0,938,470.53a4.26,4.26,0,0,0,.36,5.48C951.11,489.3,954,509.92,954,510.13a2.44,2.44,0,0,0,.07.39c3.82,16.74,18.09,30.3,18.7,30.87l.38.32v17.1a4.28,4.28,0,0,0,4.27,4.28h33.7a4.28,4.28,0,0,0,4.27-4.28V542.12c3.51-2.72,10.17-9.37,13-22,.26-1.18.41-2.25.55-3.29a4.46,4.46,0,0,0,.19-.88l.12-1.13c.07-.58.13-1.14.18-1.71,1-9.76,1.24-41.83.88-52.06,0-1.45-.08-2.77-.12-4-.26-9.48-.4-14.71-6.77-17.89a10.34,10.34,0,0,0-7.35-.8c-1.32-3.79-4-7.81-9.67-8.42-.44,0-.88-.07-1.3-.07a11.13,11.13,0,0,0-5.81,1.6,11.21,11.21,0,0,0-9.73-5.24Z"/><line class="cls-13" x1="980.96" y1="436.02" x2="982.82" y2="477.85"/><line class="cls-13" x1="997.81" y1="434.22" x2="998.14" y2="477.93"/><line class="cls-13" x1="1013.96" y1="438.8" x2="1013.49" y2="479.25"/><path class="cls-12" d="M1196.19,522.35a2.25,2.25,0,0,1-.68-.11c-2.78-.94-7.31-4.82-14.58-27.65-2.82-8.84-5.09-17.58-6.13-21.73l-11,4.89c-5.1,8.05-11.18,9.77-15.43,9.77a13,13,0,0,1-4.59-.76,2.14,2.14,0,0,1-1.22-2.71l7.21-19.77a2,2,0,0,1,.37-.65c9.48-11.18,24.55-12.39,30.59-12.39,1.46,0,2.35.08,2.38.08l.16,0c10.87,1.73,24,14.58,27,17.73h29.92a2.14,2.14,0,0,1,2.14,2.14v41.85a2.13,2.13,0,0,1-2.14,2.13h-24.9l-18.4,7A2.18,2.18,0,0,1,1196.19,522.35Z"/><path class="cls-4" d="M1180.75,453.38c1.39,0,2.2.07,2.2.07,11.56,1.84,26.47,17.76,26.47,17.76h30.83v41.85H1215l-18.76,7.15c-8.71-2.93-19.92-50.34-19.92-50.34l-13.92,6.2c-4.72,7.8-10.33,9.31-14,9.31a11.23,11.23,0,0,1-3.8-.6l7.2-19.77c9-10.56,23.47-11.63,29-11.63m0-4.27h0c-6.34,0-22.16,1.28-32.22,13.14a4.21,4.21,0,0,0-.75,1.3l-7.21,19.76a4.29,4.29,0,0,0,2.43,5.44,15.37,15.37,0,0,0,5.39.9c3.84,0,11-1.35,16.88-10.2l8.08-3.6c1.19,4.62,3.16,11.9,5.54,19.39,7.44,23.35,12.23,27.77,15.94,29a4.29,4.29,0,0,0,2.88-.06l18-6.87h24.51a4.27,4.27,0,0,0,4.27-4.27V471.21a4.28,4.28,0,0,0-4.27-4.28h-29c-4.19-4.22-16.65-15.95-27.61-17.7l-.32,0c-.1,0-1-.08-2.56-.08Z"/><path class="cls-12" d="M1121.29,520.55a8.14,8.14,0,0,1-4.58-1.41l-1-.69a8.18,8.18,0,0,1-2.14-11.32l2.61-3.82a8.16,8.16,0,0,1,11.31-2.13l1,.69a8.16,8.16,0,0,1,2.13,11.32L1128,517A8.17,8.17,0,0,1,1121.29,520.55Z"/><path class="cls-4" d="M1122.91,501.91a5.92,5.92,0,0,1,3.37,1l1,.69a6,6,0,0,1,1.58,8.34l-2.61,3.82a6,6,0,0,1-5,2.61,5.89,5.89,0,0,1-3.37-1l-1-.69a6,6,0,0,1-1.57-8.34l2.61-3.82a6,6,0,0,1,5-2.61m0-4.28h0a10.31,10.31,0,0,0-8.51,4.48l-2.6,3.82a10.29,10.29,0,0,0,2.7,14.28l1,.69a10.28,10.28,0,0,0,14.28-2.69l2.61-3.82a10.29,10.29,0,0,0-2.7-14.28l-1-.69a10.2,10.2,0,0,0-5.78-1.79Z"/><path class="cls-12" d="M1178.76,535.33c-7.35,0-14.87-1.75-23-5.35a62.41,62.41,0,0,1-23.42-15.83H1112a2.13,2.13,0,0,1-2.13-2.13V474.11A2.13,2.13,0,0,1,1112,472h20.25c2.56-3.14,12-13.77,25.88-17.13a71,71,0,0,1,16.6-2.17c9.21,0,13.71,2.43,13.9,2.53a2.1,2.1,0,0,1,1,1.2,7.62,7.62,0,0,1-1.07,6.54c-2.08,2.9-6.19,4.41-12.24,4.48a17.28,17.28,0,0,0-9.07,2.38,144.72,144.72,0,0,1,21.74,4c3.19.68,28.11,6.15,33,13.89a5.7,5.7,0,0,1,.87,4.42c-1,4.3-5.23,6.49-12.55,6.49h0c-1,0-2,0-3.1-.12a16,16,0,0,1,5,5.21,7.23,7.23,0,0,1,.59,5.67c-.69,2.19-2.82,4.8-9,4.8a34.47,34.47,0,0,1-5.8-.57,7.28,7.28,0,0,1,.66,1.38,7.49,7.49,0,0,1-.54,6.2c-.92,1.79-3.19,4.67-6.37,5.42-1.08,2.64-4.07,8.24-10,8.63C1180.73,535.3,1179.74,535.33,1178.76,535.33Z"/><path class="cls-4" d="M1174.75,454.81c8.77,0,12.86,2.26,12.86,2.26s2.64,8-11.31,8.21c-7.53.1-11.76,3.28-14.12,6.21a143.85,143.85,0,0,1,26.3,4.41s34.33,7.21,32.34,15.75c-.86,3.65-5.21,4.83-10.47,4.83-6.79,0-15.07-2-19.26-3.12,6.34,1.93,22,8.08,19.67,15.37-.77,2.44-3.51,3.31-7,3.31-6.72,0-16.2-3.26-19.49-4.73,3.58,1.75,15.74,5.43,11.91,12.9-.79,1.54-3.1,4.44-6,4.44,0,0-2.35,8-8.6,8.45-.94.07-1.87.1-2.8.1a54.78,54.78,0,0,1-22.19-5.2,60.44,60.44,0,0,1-23.26-16H1112V474.11h21.29s10-13.46,25.34-17.19a68.41,68.41,0,0,1,16.1-2.11m0-4.28h0a73.27,73.27,0,0,0-17.11,2.23c-13.42,3.26-22.93,13.06-26.36,17.07H1112a4.28,4.28,0,0,0-4.27,4.28V512a4.27,4.27,0,0,0,4.27,4.27h19.4A64.91,64.91,0,0,0,1155,532c8.38,3.71,16.16,5.51,23.8,5.51,1,0,2.06,0,3.08-.1,5.94-.39,9.66-5.1,11.47-9a13.41,13.41,0,0,0,6.68-6.19,10,10,0,0,0,1.13-6c.91.08,1.8.12,2.65.12,3.39,0,9.33-.81,11.07-6.28a9.38,9.38,0,0,0-.74-7.32,13.58,13.58,0,0,0-1.35-2c8.63-.62,11.43-4.64,12.23-8.05a7.79,7.79,0,0,0-1.14-6.06c-1.6-2.51-5.41-6.38-19.93-11-7-2.21-13.34-3.6-14.4-3.83-.83-.23-4.68-1.28-10.33-2.34,5.26-.5,9-2.25,11.12-5.23a9.84,9.84,0,0,0,1.37-8.44,4.24,4.24,0,0,0-2-2.41c-.52-.29-5.34-2.8-14.93-2.8Z"/><path class="cls-13" d="M1191.52,525.43s-10.13-2.88-15.25-5.44"/><line class="cls-13" x1="1208.25" y1="498.52" x2="1185.3" y2="491.31"/><line class="cls-13" x1="1198.7" y1="513.59" x2="1180.27" y2="506.72"/><path class="cls-12" d="M1133,527.74a7.94,7.94,0,0,1-5.85-13.32l7.93-8.65a8,8,0,0,1,11.72,10.75l-7.94,8.65A8,8,0,0,1,1133,527.74Z"/><path class="cls-4" d="M1140.94,505.34a5.78,5.78,0,0,1,3.93,1.52,5.84,5.84,0,0,1,.35,8.22l-7.93,8.64a5.84,5.84,0,0,1-8.22.36,5.84,5.84,0,0,1-.35-8.22l7.93-8.64a5.81,5.81,0,0,1,4.29-1.88m0-4.27h0a10.11,10.11,0,0,0-7.43,3.26l-7.94,8.64a10.09,10.09,0,0,0,14.87,13.64l7.93-8.64a10.08,10.08,0,0,0-7.43-16.9Z"/><path class="cls-12" d="M1148.21,535.33A7.51,7.51,0,0,1,1144,534a7.6,7.6,0,0,1-2-10.55l5.47-8A7.59,7.59,0,0,1,1160,524l-5.46,8A7.61,7.61,0,0,1,1148.21,535.33Z"/><path class="cls-4" d="M1153.7,514.29a5.44,5.44,0,0,1,4.5,8.52l-5.47,8a5.47,5.47,0,0,1-4.52,2.38,5.41,5.41,0,0,1-3.06-1,5.47,5.47,0,0,1-1.43-7.58l5.47-8a5.45,5.45,0,0,1,4.51-2.37m0-4.28h0a9.74,9.74,0,0,0-8,4.24l-5.47,8a9.73,9.73,0,0,0,16.07,11l5.47-8a9.72,9.72,0,0,0-8-15.21Z"/><path class="cls-12" d="M1163.42,539.76a7.2,7.2,0,0,1-7.06-5.86,7.18,7.18,0,0,1,1.13-5.39l3.66-5.37a7.2,7.2,0,0,1,11.9,8.11l-3.67,5.38A7.21,7.21,0,0,1,1163.42,539.76Z"/><path class="cls-4" d="M1167.11,522.14a5,5,0,0,1,2.84.87,5.08,5.08,0,0,1,1.33,7l-3.67,5.37a5.06,5.06,0,1,1-8.36-5.71l3.67-5.37a5.07,5.07,0,0,1,4.19-2.2m0-4.28h0a9.33,9.33,0,0,0-7.72,4.07l-3.67,5.37a9.34,9.34,0,0,0,15.42,10.53l3.67-5.37a9.33,9.33,0,0,0-7.7-14.6Z"/><path class="cls-13" d="M1196.78,457.64s-7.46-5-14.16-5.87c0,0-19.13,2.52-28.08,11.06l-9.61,21.11s11.41,4.86,21.53-8.54c0,0,3.26-3.69,12.64-4.53l10.74,3.24"/><path class="cls-15" d="M360,751.75a2.14,2.14,0,0,1-2.14-2.14V723.26a40.55,40.55,0,0,1,19.58-34.51,39.87,39.87,0,0,1,41.58,0,40.52,40.52,0,0,1,19.56,34.49v26.35a2.14,2.14,0,0,1-2.14,2.14Z"/><path class="cls-4" d="M398.24,685a37.23,37.23,0,0,1,19.67,5.54,38.17,38.17,0,0,1,18.55,32.68v26.35H360V723.26a38.18,38.18,0,0,1,18.54-32.68A37.29,37.29,0,0,1,398.24,685m0-4.27A41.66,41.66,0,0,0,376.32,687a42.63,42.63,0,0,0-20.57,36.31v26.35a4.27,4.27,0,0,0,4.27,4.27h76.44a4.27,4.27,0,0,0,4.27-4.27V723.26a42.69,42.69,0,0,0-20.61-36.34,41.67,41.67,0,0,0-21.88-6.15Z"/><path class="cls-16" d="M398.24,749.08a2.15,2.15,0,0,1-2-1.43l-19.67-56.36a2.13,2.13,0,0,1,.89-2.52,39.84,39.84,0,0,1,41.6,0,2.13,2.13,0,0,1,.89,2.52l-19.67,56.36A2.15,2.15,0,0,1,398.24,749.08Z"/><path class="cls-4" d="M398.24,685a37.23,37.23,0,0,1,19.67,5.54l-19.67,56.36-19.68-56.36A37.29,37.29,0,0,1,398.24,685m0-4.27A41.66,41.66,0,0,0,376.32,687a4.26,4.26,0,0,0-1.79,5l19.67,56.36a4.27,4.27,0,0,0,8.07,0L422,692a4.26,4.26,0,0,0-1.79-5,41.66,41.66,0,0,0-21.92-6.18Z"/><path class="cls-12" d="M374.9,672.83a9.64,9.64,0,0,1,0-19.28h2a9.64,9.64,0,0,1,0,19.28Z"/><path class="cls-4" d="M376.86,655.69a7.5,7.5,0,1,1,0,15h-2a7.5,7.5,0,0,1,0-15h2m0-4.27h-2a11.78,11.78,0,0,0,0,23.55h2a11.78,11.78,0,1,0,0-23.55Z"/><path class="cls-12" d="M419.62,672.83a9.64,9.64,0,1,1,0-19.28h1.95a9.64,9.64,0,0,1,0,19.28Z"/><path class="cls-4" d="M421.57,655.69a7.5,7.5,0,0,1,0,15h-1.95a7.5,7.5,0,1,1,0-15h1.95m0-4.27h-1.95a11.78,11.78,0,1,0,0,23.55h1.95a11.78,11.78,0,1,0,0-23.55Z"/><path class="cls-12" d="M398.24,691.91A25.92,25.92,0,0,1,372.34,666V654.24a25.9,25.9,0,1,1,51.79,0V666A25.91,25.91,0,0,1,398.24,691.91Z"/><path class="cls-4" d="M398.24,630.48A23.83,23.83,0,0,1,422,654.24V666a23.83,23.83,0,0,1-23.76,23.76h0A23.83,23.83,0,0,1,374.48,666V654.24a23.83,23.83,0,0,1,23.76-23.76h0m0-4.27a28.06,28.06,0,0,0-28,28V666a28,28,0,1,0,56.06,0V654.24a28.06,28.06,0,0,0-28-28Z"/><path class="cls-4" d="M396,663.19a3.83,3.83,0,1,1-3.82-3.83A3.83,3.83,0,0,1,396,663.19Z"/><circle class="cls-4" cx="404.32" cy="663.19" r="3.83"/><path class="cls-17" d="M375.1,661.5a2.24,2.24,0,0,1-.92-.2c-2.38-1.13-4.49-5.19-5.08-6.4a1.76,1.76,0,0,1-.09-.2c-3.75-10.28,2.14-19.46,3.37-21.2.88-2.32,6.45-14.25,27.15-14.25,8.55,0,15.58,2.77,20.89,8.23,5.93,6.1,8.42,14.48,8.27,20.09-.25,8.7-4.25,11.6-4.7,11.9a2.2,2.2,0,0,1-1.18.35,2.1,2.1,0,0,1-.74-.13,2.12,2.12,0,0,1-1.31-1.41,27.08,27.08,0,0,0-2-5.13c-7.63-6.7-17.78-8.11-25-8.11a57.51,57.51,0,0,0-11.17,1.08c-4.09,5.37-5.38,13.48-5.39,13.57a2.16,2.16,0,0,1-1.11,1.56A2.09,2.09,0,0,1,375.1,661.5Z"/><path class="cls-4" d="M399.53,621.38c21.13,0,27.24,18.28,27,26.13s-3.74,10.17-3.74,10.17a24.59,24.59,0,0,0-2.38-5.9c-8-7.2-18.55-8.88-26.66-8.88a57.29,57.29,0,0,0-12.37,1.29c-4.89,5.89-6.3,15.17-6.3,15.17-1.89-.89-4.08-5.4-4.08-5.4-3.73-10.22,3.27-19.45,3.27-19.45s4.11-13.13,25.24-13.13m0-4.27c-21.27,0-27.71,12.15-29,15.37-1.63,2.39-7.45,12.09-3.49,22.95.05.14.11.27.17.4,1.07,2.19,3.27,6.06,6.1,7.4a4.32,4.32,0,0,0,1.83.41,4.28,4.28,0,0,0,4.22-3.63c0-.07,1.13-7,4.52-12a56.08,56.08,0,0,1,9.93-.89c6.75,0,16.19,1.29,23.28,7.33a27.25,27.25,0,0,1,1.66,4.38,4.26,4.26,0,0,0,2.63,2.82,4.38,4.38,0,0,0,1.47.26,4.27,4.27,0,0,0,2.36-.71c.9-.6,5.38-4,5.65-13.62.17-6.06-2.5-15.09-8.87-21.64-5.64-5.81-13.4-8.88-22.42-8.88Z"/><path class="cls-18" d="M380.36,636.41c0-.09,3.16-8.67,19.17-8.67"/><path class="cls-14" d="M406.11,679.21a10.81,10.81,0,0,1-15.74,0"/><path class="cls-19" d="M385.16,707.47a4.67,4.67,0,0,1-3.14-1.16c-2.89-2.53-2-6.14-.71-8.47-1.29-2.34-2.18-5.94.71-8.48a4.71,4.71,0,0,1,3.14-1.15c3.76,0,7.79,4,8.56,4.86a2,2,0,0,1,.38.54l1.6,3.3a2.16,2.16,0,0,1,0,1.86l-1.6,3.3a2,2,0,0,1-.38.54c-.77.81-4.8,4.86-8.56,4.86Z"/><path class="cls-4" d="M385.16,690.34c3,0,7,4.2,7,4.2l1.59,3.3-1.59,3.3s-4,4.19-7,4.19a2.53,2.53,0,0,1-1.73-.62c-2.92-2.57.42-6.87.42-6.87s-3.34-4.31-.42-6.87a2.54,2.54,0,0,1,1.73-.63m0-4.27a6.77,6.77,0,0,0-4.55,1.69c-2.52,2.21-3.29,5.48-2.12,9,.14.39.28.76.44,1.11-.16.34-.3.72-.44,1.11-1.17,3.49-.4,6.76,2.12,9a6.81,6.81,0,0,0,4.55,1.69c4.51,0,8.88-4.23,10.11-5.53A4,4,0,0,0,396,703l1.6-3.3a4.26,4.26,0,0,0,0-3.72l-1.6-3.3a4.07,4.07,0,0,0-.75-1.09c-1.23-1.29-5.6-5.52-10.11-5.52Z"/><path class="cls-19" d="M411.32,707.47c-3.76,0-7.8-4.05-8.57-4.86a2.25,2.25,0,0,1-.37-.54l-1.6-3.3a2.16,2.16,0,0,1,0-1.86l1.6-3.3a2.25,2.25,0,0,1,.37-.54c.78-.82,4.81-4.86,8.57-4.86a4.71,4.71,0,0,1,3.14,1.15c2.88,2.54,2,6.14.71,8.48,1.29,2.33,2.17,5.94-.71,8.47A4.67,4.67,0,0,1,411.32,707.47Z"/><path class="cls-4" d="M411.32,690.34a2.55,2.55,0,0,1,1.73.63c2.92,2.56-.42,6.87-.42,6.87s3.34,4.3.42,6.87a2.54,2.54,0,0,1-1.73.62c-3,0-7-4.19-7-4.19l-1.6-3.3,1.6-3.3s4-4.2,7-4.2m0-4.27h0c-4.51,0-8.88,4.23-10.11,5.52a4.07,4.07,0,0,0-.75,1.09l-1.6,3.3a4.26,4.26,0,0,0,0,3.72l1.6,3.3a4.23,4.23,0,0,0,.74,1.08c1.24,1.3,5.61,5.53,10.12,5.53a6.81,6.81,0,0,0,4.55-1.69c2.52-2.21,3.29-5.48,2.11-9-.13-.39-.28-.77-.43-1.11.15-.35.3-.72.43-1.11,1.18-3.49.41-6.76-2.11-9a6.77,6.77,0,0,0-4.55-1.69Z"/><path class="cls-19" d="M398.24,705.36a6.61,6.61,0,1,1,6.6-6.61A6.61,6.61,0,0,1,398.24,705.36Z"/><path class="cls-4" d="M398.24,694.29a4.47,4.47,0,1,1-4.47,4.46,4.46,4.46,0,0,1,4.47-4.46m0-4.28a8.74,8.74,0,1,0,8.74,8.74,8.76,8.76,0,0,0-8.74-8.74Z"/><circle class="cls-4" cx="398.24" cy="715.08" r="3.83"/><circle class="cls-4" cx="398.24" cy="727.8" r="3.83"/><path class="cls-19" d="M394.41,751.75a2.17,2.17,0,0,1-1.15-.34l-21.15-13.56a2.15,2.15,0,0,1-.57-3.06l4.08-5.59-7-5.55a2.14,2.14,0,0,1-.79-2l4.56-28.53a2.14,2.14,0,0,1,1.92-1.79h.19a2.13,2.13,0,0,1,2,1.43l19.94,56.16a2.15,2.15,0,0,1-2,2.86Z"/><path class="cls-4" d="M374.48,693.44l19.93,56.17-21.14-13.56,5.29-7.25L369.92,722l4.56-28.53m0-4.27a2.55,2.55,0,0,0-.39,0,4.27,4.27,0,0,0-3.83,3.58L365.7,721.3a4.29,4.29,0,0,0,1.57,4l5.41,4.28-2.86,3.92a4.28,4.28,0,0,0,1.14,6.12l21.14,13.57a4.28,4.28,0,0,0,6.34-5L378.51,692a4.28,4.28,0,0,0-4-2.84Z"/><path class="cls-19" d="M402.07,751.75a2.1,2.1,0,0,1-1.33-.47,2.14,2.14,0,0,1-.69-2.39L420,692.73a2.15,2.15,0,0,1,2-1.43h.19a2.15,2.15,0,0,1,1.92,1.79l4.56,28.53a2.14,2.14,0,0,1-.79,2l-7,5.55,4.08,5.59a2.11,2.11,0,0,1,.38,1.65,2.14,2.14,0,0,1-.95,1.41l-21.14,13.56A2.17,2.17,0,0,1,402.07,751.75Z"/><path class="cls-4" d="M422,693.44,426.56,722l-8.65,6.83,5.3,7.25-21.14,13.56L422,693.44m0-4.27a4.27,4.27,0,0,0-4,2.84L398,748.18a4.28,4.28,0,0,0,6.33,5l21.15-13.57a4.28,4.28,0,0,0,1.14-6.12l-2.87-3.92,5.42-4.28a4.29,4.29,0,0,0,1.57-4l-4.56-28.53a4.27,4.27,0,0,0-3.83-3.58,2.55,2.55,0,0,0-.39,0Z"/><path class="cls-20" d="M561.86,751.75a2.14,2.14,0,0,1-2.12-1.93L555,702c0-.07,0-.14,0-.22,0-15.87,28.59-20.87,36.67-20.87s36.68,5,36.68,20.87c0,.07,0,.13,0,.2L624,749.8a2.15,2.15,0,0,1-2.13,2Z"/><path class="cls-4" d="M591.62,683.06c6.49,0,34.54,4.46,34.54,18.73l-4.33,47.82h-60l-4.77-47.82c0-14.27,28-18.73,34.53-18.73m0-4.28c-6,0-38.81,4.25-38.81,23a3,3,0,0,0,0,.43L557.61,750a4.27,4.27,0,0,0,4.25,3.85h60a4.27,4.27,0,0,0,4.26-3.89l4.33-47.81c0-.13,0-.26,0-.39,0-18.76-32.77-23-38.81-23Z"/><path class="cls-21" d="M590.41,703.9c-7.67,0-13.91-6.9-13.91-15.38s6.24-15.37,13.91-15.37,13.92,6.9,13.92,15.37S598.09,703.9,590.41,703.9Z"/><path class="cls-4" d="M590.41,675.29c6.51,0,11.78,5.92,11.78,13.23s-5.27,13.24-11.78,13.24-11.77-5.93-11.77-13.24,5.27-13.23,11.77-13.23m0-4.28c-8.85,0-16,7.86-16,17.51s7.2,17.51,16,17.51,16.06-7.85,16.06-17.51S599.27,671,590.41,671Z"/><path class="cls-12" d="M565.42,680.59a9.86,9.86,0,0,1-2.57-19.39l1.95-.53a9.9,9.9,0,0,1,12.09,7,9.89,9.89,0,0,1-7,12.09l-1.95.52A9.89,9.89,0,0,1,565.42,680.59Z"/><path class="cls-4" d="M567.34,662.48a7.73,7.73,0,0,1,2,15.19l-2,.52a7.57,7.57,0,0,1-2,.27,7.73,7.73,0,0,1-2-15.2l1.94-.52a7.66,7.66,0,0,1,2-.26m0-4.28a12,12,0,0,0-3.09.41l-2,.52a12,12,0,0,0-8.49,14.71,12,12,0,0,0,14.71,8.48l2-.52a12,12,0,0,0-3.13-23.6Z"/><path class="cls-12" d="M609.93,668.66a9.87,9.87,0,0,1-2.56-19.4l1.94-.52a9.55,9.55,0,0,1,2.55-.34,9.87,9.87,0,0,1,2.56,19.4l-1.94.52A10,10,0,0,1,609.93,668.66Z"/><path class="cls-4" d="M611.86,650.54a7.73,7.73,0,0,1,2,15.2l-2,.52a7.55,7.55,0,0,1-2,.26,7.76,7.76,0,0,1-7.48-5.73h0a7.76,7.76,0,0,1,5.47-9.47l2-.52a7.55,7.55,0,0,1,2-.26m0-4.28a12,12,0,0,0-3.1.41l-2,.53A12,12,0,1,0,613,670.39l2-.53a12,12,0,0,0-3.12-23.6Z"/><path class="cls-12" d="M589.43,693.94a26.69,26.69,0,0,1-25.75-19.73l-3.15-11.73A26.63,26.63,0,0,1,612,648.69l3.14,11.73a26.63,26.63,0,0,1-25.68,33.52Z"/><path class="cls-4" d="M586.21,631.1a24.58,24.58,0,0,1,23.69,18.14L613.05,661a24.57,24.57,0,0,1-17.31,30h0a24.52,24.52,0,0,1-30-17.31l-3.14-11.73a24.56,24.56,0,0,1,17.31-30h0a24.46,24.46,0,0,1,6.3-.83m0-4.28v0h0A28.76,28.76,0,0,0,558.47,663l3.14,11.72a28.76,28.76,0,1,0,55.56-14.9L614,648.14a28.83,28.83,0,0,0-27.82-21.32Z"/><path class="cls-4" d="M586.39,665.1a3.94,3.94,0,1,1-4.83-2.79A3.93,3.93,0,0,1,586.39,665.1Z"/><path class="cls-4" d="M598.5,661.85a3.95,3.95,0,1,1-4.83-2.79A3.93,3.93,0,0,1,598.5,661.85Z"/><path class="cls-17" d="M564.58,669l-.39,0c-2.65-.49-5.82-3.94-6.73-5l-.13-.17c-6.48-9.22-3.05-19.92-2.3-21.95.25-2.51,2.58-15.87,23.18-21.39a34.25,34.25,0,0,1,8.84-1.22c17,0,26,14.54,27.66,21.58,2.08,8.7-1.11,12.62-1.48,13a2.14,2.14,0,0,1-1.6.72h-.19a2.15,2.15,0,0,1-1.64-1,26.41,26.41,0,0,0-3.38-4.6A32.37,32.37,0,0,0,592,645.79c-11,0-21,4.57-23.49,5.84-2.65,6.46-1.77,14.91-1.76,15a2.11,2.11,0,0,1-.67,1.8A2.14,2.14,0,0,1,564.58,669Z"/><path class="cls-4" d="M587.05,621.38c15.65,0,24,13.18,25.59,19.94,1.87,7.88-1,11.14-1,11.14a25.63,25.63,0,0,0-3.94-5.25A34.37,34.37,0,0,0,592,643.65c-13.48,0-25.14,6.43-25.14,6.43-3.3,7.17-2.23,16.79-2.23,16.79-2.12-.39-5.5-4.29-5.5-4.29-6.45-9.18-2-20.25-2-20.25s.6-14.16,21.63-19.8a32.11,32.11,0,0,1,8.29-1.15m0-4.27a36.4,36.4,0,0,0-9.4,1.29c-21.13,5.67-24.26,19.46-24.71,23-1,2.78-4.19,13.95,2.64,23.68a4,4,0,0,0,.27.34c1.63,1.88,4.83,5.12,8,5.69a4,4,0,0,0,.77.07,4.29,4.29,0,0,0,4.25-4.75c0-.07-.77-7.38,1.32-13.21,3.22-1.52,12.09-5.26,21.8-5.26a30.3,30.3,0,0,1,13.18,2.8,26.59,26.59,0,0,1,2.85,4,4.26,4.26,0,0,0,3.27,2,2.42,2.42,0,0,0,.38,0,4.26,4.26,0,0,0,3.2-1.44c.73-.82,4.24-5.41,2-15-2.13-9-12.1-23.22-29.74-23.22Z"/><path class="cls-18" d="M563.68,642.61c0-.1.84-9.47,16.78-13.75"/><path class="cls-12" d="M639.23,699.45a2.07,2.07,0,0,1-.35,0l-13.15-2.14A2.13,2.13,0,0,1,624,695c.34-4.44,3-12.82,10.75-12.82a10.73,10.73,0,0,1,1.84.16,19.89,19.89,0,0,0,3,.25,16.92,16.92,0,0,0,6.56-1.42,12.52,12.52,0,0,1,4.54-1.11,7,7,0,0,1,2.35.4A4.53,4.53,0,0,1,656.1,685c-.08,4.66-5.69,11.08-16.25,14.32A2.17,2.17,0,0,1,639.23,699.45Z"/><path class="cls-4" d="M650.64,682.2a5,5,0,0,1,1.66.29c4.31,1.49.34,10.7-13.07,14.82l-13.15-2.14s.84-10.84,8.62-10.84a10.07,10.07,0,0,1,1.5.12,20.67,20.67,0,0,0,3.34.29c5.54,0,8.16-2.54,11.1-2.54m0-4.27a14.38,14.38,0,0,0-5.31,1.25,14.86,14.86,0,0,1-5.79,1.28,16.73,16.73,0,0,1-2.66-.22,13.67,13.67,0,0,0-2.18-.19c-9.28,0-12.48,9.68-12.88,14.79a4.26,4.26,0,0,0,3.57,4.55l13.15,2.14a5.34,5.34,0,0,0,.69.05,4.12,4.12,0,0,0,1.25-.19c12.07-3.7,17.66-11.06,17.75-16.32a6.63,6.63,0,0,0-4.54-6.62,9.14,9.14,0,0,0-3.05-.52Z"/><path class="cls-20" d="M627.74,740.09a10.69,10.69,0,0,1-1.78-.15,11.15,11.15,0,0,1-9.2-12.77l4.7-28.9a2.12,2.12,0,0,1,2.1-1.79,2.07,2.07,0,0,1,.35,0l17.75,2.88a2.14,2.14,0,0,1,1.77,2.45l-4.7,28.9a11.22,11.22,0,0,1-11,9.35Z"/><path class="cls-4" d="M623.57,698.61l17.75,2.89-4.7,28.9a9,9,0,0,1-8.88,7.55,8.72,8.72,0,0,1-1.43-.12,9,9,0,0,1-7.44-10.31l4.7-28.91m0-4.27a4.28,4.28,0,0,0-4.22,3.59l-4.7,28.9a13.28,13.28,0,0,0,11,15.22,12.63,12.63,0,0,0,2.12.17,13.37,13.37,0,0,0,13.1-11.13l4.7-28.91a4.27,4.27,0,0,0-3.54-4.9l-17.75-2.88a4,4,0,0,0-.68-.06Z"/><path class="cls-12" d="M543.63,699.45a2.3,2.3,0,0,1-.63-.1c-10.55-3.24-16.16-9.66-16.24-14.32a4.51,4.51,0,0,1,3.1-4.56,7.09,7.09,0,0,1,2.36-.4,12.57,12.57,0,0,1,4.54,1.11,16.88,16.88,0,0,0,6.56,1.42,19.89,19.89,0,0,0,3-.25,10.73,10.73,0,0,1,1.84-.16c7.71,0,10.4,8.38,10.75,12.82a2.13,2.13,0,0,1-1.79,2.27L544,699.42A1.87,1.87,0,0,1,543.63,699.45Z"/><path class="cls-4" d="M532.22,682.2c2.93,0,5.55,2.54,11.1,2.54a20.67,20.67,0,0,0,3.34-.29,10.07,10.07,0,0,1,1.5-.12c7.77,0,8.62,10.84,8.62,10.84l-13.15,2.14c-13.42-4.12-17.38-13.33-13.07-14.82a5,5,0,0,1,1.66-.29m0-4.27h0a9.2,9.2,0,0,0-3.06.52,6.65,6.65,0,0,0-4.54,6.62c.09,5.26,5.69,12.62,17.76,16.32a4.08,4.08,0,0,0,1.25.19,5.34,5.34,0,0,0,.69-.05l13.15-2.14a4.27,4.27,0,0,0,3.57-4.55c-.4-5.11-3.6-14.79-12.88-14.79a13.67,13.67,0,0,0-2.18.19,16.82,16.82,0,0,1-2.66.22,15,15,0,0,1-5.8-1.28,14.28,14.28,0,0,0-5.3-1.25Z"/><path class="cls-20" d="M555.11,740.09a11.23,11.23,0,0,1-11-9.35l-4.69-28.9a2.1,2.1,0,0,1,.38-1.59,2.13,2.13,0,0,1,1.39-.86L559,696.51a2,2,0,0,1,.34,0,2.14,2.14,0,0,1,2.11,1.79l4.69,28.9a11.13,11.13,0,0,1-9.2,12.77A10.52,10.52,0,0,1,555.11,740.09Z"/><path class="cls-4" d="M559.29,698.61,564,727.52a9,9,0,0,1-7.43,10.31,8.75,8.75,0,0,1-1.44.12,9,9,0,0,1-8.88-7.55l-4.69-28.9,17.75-2.89m0-4.27a4,4,0,0,0-.69.06l-17.76,2.88a4.27,4.27,0,0,0-3.53,4.9L542,731.09a13.39,13.39,0,0,0,13.1,11.13,12.75,12.75,0,0,0,2.13-.17,13.27,13.27,0,0,0,11-15.22l-4.69-28.9a4.28,4.28,0,0,0-4.21-3.59Z"/><path class="cls-20" d="M730.62,751.75A2.13,2.13,0,0,1,729,751a2.09,2.09,0,0,1-.46-1.75L737.11,703l0-.14c4.3-16.72,32.69-22,40.34-22,8.08,0,36.67,5,36.67,20.87a1.34,1.34,0,0,1,0,.2l-4.33,47.81a2.14,2.14,0,0,1-2.13,2Z"/><path class="cls-4" d="M777.48,683.06c6.49,0,34.53,4.46,34.53,18.73l-4.33,47.82H730.62l8.59-46.18c4-15.59,31.78-20.37,38.27-20.37m0-4.28c-3.66,0-12.75,1.26-21.59,4.62-11.56,4.41-18.76,11-20.82,19,0,.1-.05.19-.06.29l-8.59,46.18a4.26,4.26,0,0,0,4.2,5h77.06a4.27,4.27,0,0,0,4.26-3.89l4.33-47.81c0-.13,0-.26,0-.39,0-18.76-32.78-23-38.81-23Z"/><path class="cls-21" d="M776.27,703.9c-7.67,0-13.92-6.9-13.92-15.38s6.25-15.37,13.92-15.37,13.91,6.9,13.91,15.37S783.94,703.9,776.27,703.9Z"/><path class="cls-4" d="M776.27,675.29c6.5,0,11.77,5.92,11.77,13.23s-5.27,13.24-11.77,13.24-11.78-5.93-11.78-13.24,5.27-13.23,11.78-13.23m0-4.28c-8.85,0-16,7.86-16,17.51s7.2,17.51,16,17.51,16.05-7.85,16.05-17.51S785.12,671,776.27,671Z"/><path class="cls-12" d="M759.78,673.46l-.72,0-2-.15a9.89,9.89,0,0,1-9.12-10.56,9.91,9.91,0,0,1,9.84-9.15l.72,0,2,.14a9.87,9.87,0,0,1-.72,19.71Z"/><path class="cls-4" d="M757.77,655.72a5.43,5.43,0,0,1,.57,0l2,.15a7.75,7.75,0,0,1,7.14,8.27h0a7.76,7.76,0,0,1-7.71,7.17l-.56,0-2-.15a7.73,7.73,0,0,1,.57-15.44m0-4.28a12.05,12.05,0,0,0-12,11.13,12,12,0,0,0,11.09,12.85l2,.15.88,0a12,12,0,0,0,12-11.13,12,12,0,0,0-11.09-12.85l-2-.15-.88,0Z"/><path class="cls-12" d="M805.75,676.84c-.25,0-.49,0-.73,0l-2-.15a9.87,9.87,0,0,1,.72-19.71l.73,0,2,.15a9.89,9.89,0,0,1,9.12,10.56A9.91,9.91,0,0,1,805.75,676.84Z"/><path class="cls-4" d="M803.73,659.09l.57,0,2,.15a7.73,7.73,0,0,1-.56,15.44l-.57,0-2-.15a7.75,7.75,0,0,1-7.15-8.27h0a7.76,7.76,0,0,1,7.71-7.17m0-4.27h0a12,12,0,0,0-.88,24l2,.15c.3,0,.59,0,.89,0a12,12,0,0,0,.87-24l-2-.15c-.29,0-.59,0-.88,0Z"/><path class="cls-12" d="M781.55,694.74c-.65,0-1.31,0-2-.07a26.7,26.7,0,0,1-24.6-28.5l.89-12.11a26.73,26.73,0,0,1,26.55-24.68c.65,0,1.3,0,2,.07A26.7,26.7,0,0,1,809,658l-.89,12.11A26.73,26.73,0,0,1,781.55,694.74Z"/><path class="cls-4" d="M782.43,631.52q.89,0,1.8.06h0a24.57,24.57,0,0,1,22.63,26.22L806,669.91a24.57,24.57,0,0,1-24.42,22.69q-.9,0-1.8-.06a24.57,24.57,0,0,1-22.63-26.22l.89-12.11a24.57,24.57,0,0,1,24.42-22.69m0-4.28a28.86,28.86,0,0,0-28.68,26.66L752.86,666a28.82,28.82,0,0,0,26.58,30.79c.7.05,1.41.08,2.11.08a28.88,28.88,0,0,0,28.68-26.66l.89-12.11a28.79,28.79,0,0,0-26.58-30.79c-.7-.05-1.41-.08-2.11-.08Z"/><path class="cls-4" d="M779.44,665a3.95,3.95,0,1,1-3.65-4.22A3.94,3.94,0,0,1,779.44,665Z"/><path class="cls-4" d="M791.94,666a3.94,3.94,0,1,1-3.64-4.23A3.94,3.94,0,0,1,791.94,666Z"/><path class="cls-17" d="M807.43,663.54a2.08,2.08,0,0,1-.88-.19,2.14,2.14,0,0,1-1.21-1.5,26.9,26.9,0,0,0-1.68-5.46C795.22,647.8,783,646,774.1,646a55.38,55.38,0,0,0-7.16.44c-4.65,5.24-6.58,13.5-6.6,13.58a2.12,2.12,0,0,1-1.22,1.48,2,2,0,0,1-.86.19,2.21,2.21,0,0,1-1.06-.28c-2.34-1.33-4.2-5.64-4.71-6.93a1.72,1.72,0,0,1-.07-.21c-3.08-10.83,3.67-19.8,5.05-21.48,1-2.14,6.88-12.71,25.21-12.71,1.2,0,2.45,0,3.71.14,8.78.64,15.78,4,20.82,10,5.62,6.71,7.54,15.49,7,21.23-.91,8.89-5.21,11.55-5.69,11.82A2.09,2.09,0,0,1,807.43,663.54Z"/><path class="cls-4" d="M782.68,622.19c1.13,0,2.32,0,3.56.14,21.72,1.59,26.62,20.84,25.8,28.89s-4.61,10.18-4.61,10.18a25.44,25.44,0,0,0-2-6.25c-9.18-9.57-22.72-11.3-31.33-11.3a54.41,54.41,0,0,0-8.22.56c-5.47,5.68-7.62,15.12-7.62,15.12-1.88-1.07-3.79-5.86-3.79-5.86-3.06-10.79,4.83-19.76,4.83-19.76s4.64-11.72,23.38-11.72m0-4.27c-18.85,0-25.53,10.73-27,13.69-1.83,2.31-8.55,11.8-5.3,23.23,0,.14.09.28.14.41.92,2.31,2.88,6.43,5.65,8a4.26,4.26,0,0,0,2.11.55,4.32,4.32,0,0,0,1.72-.36,4.26,4.26,0,0,0,2.44-3c0-.07,1.71-7.23,5.61-12a57.35,57.35,0,0,1,6.07-.32c14.88,0,23.27,5,27.77,9.5a27.52,27.52,0,0,1,1.38,4.68,4.25,4.25,0,0,0,2.42,3,4.25,4.25,0,0,0,3.85-.17c1-.54,5.78-3.71,6.78-13.48.63-6.18-1.44-15.63-7.46-22.81-5.34-6.37-13.05-10.1-22.29-10.78-1.31-.09-2.62-.14-3.87-.14Z"/><path class="cls-18" d="M765.39,636.33c0-.09,3.91-8.67,20.37-7.46"/><path class="cls-12" d="M793.58,679.55c-2.76-.2-4-1.54-4.58-2.64-1.52-2.92.42-6.88,1.18-8.22.41-1.79,1.73-6,4.94-6a4.68,4.68,0,0,1,3.67,2.23c3.48,4.64-.58,11-3.53,14a2.15,2.15,0,0,1-1.53.64Z"/><path class="cls-4" d="M795.12,664.83c.57,0,1.22.38,2,1.37,3.31,4.42-3.35,11.22-3.35,11.22-6.07-.43-1.54-7.95-1.54-7.95s.95-4.64,2.93-4.64m0-4.28c-3.26,0-5.83,2.74-7,7.36-1.07,2-2.95,6.35-1.06,10a7.26,7.26,0,0,0,6.33,3.78h.3a4.27,4.27,0,0,0,3.06-1.29,24.23,24.23,0,0,0,3.59-4.86c3.35-6,1.51-10,.12-11.9-1.91-2.55-4-3.09-5.38-3.09Z"/><path class="cls-12" d="M782.48,689.46a7.65,7.65,0,0,1-1.73-.2c-4.26-1-5-2.58-5.16-6a24.63,24.63,0,0,0-2-9.06c-2.39-6-2.07-12.33.83-16.62a9.53,9.53,0,0,1,7.88-4.44,9.83,9.83,0,0,1,3.53.68c8.78,3.35,9.45,22.66,9.5,24.85a2.19,2.19,0,0,1-.3,1.14c-.58,1-5.89,9.6-12.54,9.6Z"/><path class="cls-4" d="M782.29,655.33a7.61,7.61,0,0,1,2.77.54c7.69,2.93,8.12,22.9,8.12,22.9s-5.08,8.55-10.7,8.55a5.24,5.24,0,0,1-1.24-.14c-6.09-1.44-1.3-2.79-5.67-13.72-3.84-9.58.43-18.13,6.72-18.13m0-4.27a11.64,11.64,0,0,0-9.65,5.38c-3.34,4.93-3.73,11.89-1,18.61a22.52,22.52,0,0,1,1.86,8.35c.17,4.05,1.34,6.65,6.8,7.94a9.7,9.7,0,0,0,2.22.26c3.57,0,7.14-1.91,10.6-5.66a33.54,33.54,0,0,0,3.78-5,4.35,4.35,0,0,0,.6-2.28c-.09-3.81-1-23-10.88-26.8a12,12,0,0,0-4.29-.81Z"/><path class="cls-20" d="M802,722.2a11.18,11.18,0,0,1-9.69-5.61l-14.51-25.43a2.13,2.13,0,0,1,.8-2.91l15.62-8.92a2.18,2.18,0,0,1,1.06-.28,2.1,2.1,0,0,1,.56.08,2.13,2.13,0,0,1,1.29,1l14.52,25.43A11.12,11.12,0,0,1,802,722.2Z"/><path class="cls-4" d="M795.32,681.19l14.51,25.43a9,9,0,0,1-3.35,12.27,8.91,8.91,0,0,1-4.44,1.17,9,9,0,0,1-7.83-4.52L779.7,690.1l15.62-8.91m0-4.27a4.28,4.28,0,0,0-2.11.56l-15.62,8.91a4.28,4.28,0,0,0-1.59,5.83l14.51,25.43a13.26,13.26,0,1,0,23-13.15L799,679.07a4.27,4.27,0,0,0-3.72-2.15Z"/><line class="cls-22" x1="749.81" y1="749.61" x2="751.53" y2="727.17"/><path class="cls-17" d="M993.36,729.55a34,34,0,0,1-34-34v-42.1a34,34,0,1,1,68,0v42.1A34,34,0,0,1,993.36,729.55Z"/><path class="cls-4" d="M993.36,621.6a31.94,31.94,0,0,1,31.85,31.85v42.11a31.94,31.94,0,0,1-31.85,31.85h0a32,32,0,0,1-31.86-31.85V653.45a32,32,0,0,1,31.86-31.85h0m0-4.27a36.17,36.17,0,0,0-36.13,36.12v42.11a36.13,36.13,0,1,0,72.26,0V653.45a36.17,36.17,0,0,0-36.13-36.12Z"/><path class="cls-23" d="M951.91,751.75a2.15,2.15,0,0,1-2.12-2.43c.07-.57,1.94-13.93,8.76-23.82v-2.24c0-13.94,6.31-27.13,16.45-34.41a29.5,29.5,0,0,1,35.52,0c10.12,7.27,16.42,20.46,16.42,34.4v2.24c6.83,9.89,8.69,23.25,8.77,23.82a2.15,2.15,0,0,1-2.12,2.43Z"/><path class="cls-4" d="M992.75,685a27.63,27.63,0,0,1,16.5,5.54c9.3,6.68,15.55,18.83,15.55,32.68v2.92c6.93,9.62,8.79,23.43,8.79,23.43H951.91s1.86-13.81,8.78-23.43v-2.92c0-13.85,6.26-26,15.56-32.68a27.61,27.61,0,0,1,16.5-5.54m0-4.27a32,32,0,0,0-19,6.36c-10.84,7.79-17.31,21.3-17.31,36.13v1.59c-6.81,10.25-8.67,23.6-8.75,24.19a4.27,4.27,0,0,0,4.24,4.84h81.68a4.27,4.27,0,0,0,4.24-4.84c-.08-.59-1.95-13.94-8.75-24.19v-1.59c0-14.83-6.47-28.34-17.32-36.13a31.93,31.93,0,0,0-19-6.36Z"/><path class="cls-24" d="M960.4,741.5a44,44,0,0,1,4.71-10.43"/><path class="cls-21" d="M992.55,703.9c-7.68,0-13.92-6.9-13.92-15.38s6.24-15.37,13.92-15.37,13.91,6.9,13.91,15.37S1000.22,703.9,992.55,703.9Z"/><path class="cls-4" d="M992.55,675.29c6.5,0,11.77,5.92,11.77,13.23s-5.27,13.24-11.77,13.24-11.78-5.93-11.78-13.24,5.27-13.23,11.78-13.23m0-4.28c-8.85,0-16,7.86-16,17.51s7.2,17.51,16,17.51,16.05-7.85,16.05-17.51S1001.4,671,992.55,671Z"/><path class="cls-12" d="M992.75,691.91A25.92,25.92,0,0,1,966.85,666V654.24a25.9,25.9,0,1,1,51.79,0V666A25.91,25.91,0,0,1,992.75,691.91Z"/><path class="cls-4" d="M992.75,630.48a23.83,23.83,0,0,1,23.76,23.76V666a23.83,23.83,0,0,1-23.76,23.76h0A23.83,23.83,0,0,1,969,666V654.24a23.83,23.83,0,0,1,23.76-23.76h0m0-4.27a28.06,28.06,0,0,0-28,28V666a28,28,0,0,0,56.06,0V654.24a28.06,28.06,0,0,0-28-28Z"/><path class="cls-4" d="M990.49,663.19a3.83,3.83,0,1,1-3.82-3.83A3.83,3.83,0,0,1,990.49,663.19Z"/><circle class="cls-4" cx="998.83" cy="663.19" r="3.83"/><path class="cls-14" d="M1000.62,679.21a10.81,10.81,0,0,1-15.74,0"/><path class="cls-17" d="M1002.66,625.48s-18.17-6.63-30.21,7.66S965,655.8,965,655.8s23.39,2,37.7-15.41c0,0,6.1,14.56,18,15.23C1020.7,655.62,1024.68,631.53,1002.66,625.48Z"/><path class="cls-14" d="M963.79,655.72s24.87,2.72,38.87-15.33c0,0,7,13.85,19.38,15.47"/><path class="cls-25" d="M974.7,723.49s15-8.31,36.57,0"/><path class="cls-18" d="M968.48,648.13a25.51,25.51,0,0,1,20.73-19.78"/><path class="cls-15" d="M1203.69,748.58a43.9,43.9,0,0,1-10.27-1.35,2.13,2.13,0,0,1-1.59-2.06v-5.63a2.14,2.14,0,0,1,2.14-2.14,2.18,2.18,0,0,1,.93.21,12.34,12.34,0,0,0,4.92.74,32.77,32.77,0,0,0,3.81-.23l.28,0h.12c3.35.19,5.83,1.18,7.37,3a6.09,6.09,0,0,1,1.54,4.29,2.11,2.11,0,0,1-1.23,1.76A19.16,19.16,0,0,1,1203.69,748.58Z"/><path class="cls-4" d="M1194,739.54a14.54,14.54,0,0,0,5.85.94,35.53,35.53,0,0,0,4.09-.24c7.29.4,6.9,4.93,6.9,4.93a17.4,17.4,0,0,1-7.12,1.27,42.61,42.61,0,0,1-9.72-1.27v-5.63m0-4.28a4.28,4.28,0,0,0-4.27,4.28v5.63a4.27,4.27,0,0,0,3.16,4.13,46.73,46.73,0,0,0,10.83,1.42,21.26,21.26,0,0,0,8.92-1.67,4.29,4.29,0,0,0,2.46-3.52,8.26,8.26,0,0,0-2-5.87c-1.94-2.23-4.93-3.47-8.87-3.69h-.24a5.46,5.46,0,0,0-.56,0,31.22,31.22,0,0,1-3.53.21,9.91,9.91,0,0,1-4-.52,4.36,4.36,0,0,0-1.86-.43Z"/><path class="cls-15" d="M1168.91,751.75c-6.38,0-13.27-2.9-13.56-3a2.13,2.13,0,0,1-1.28-2.26l.77-5.58a2.16,2.16,0,0,1,1.25-1.65,2,2,0,0,1,.87-.19,2.13,2.13,0,0,1,1.19.36c1.81,1.21,6.22,1.69,8.58,1.7a2.58,2.58,0,0,1,.39,0c3.29.65,5.61,2,6.9,4a6.12,6.12,0,0,1,.93,4.46,2.13,2.13,0,0,1-1.46,1.57,15.81,15.81,0,0,1-4.58.62Z"/><path class="cls-4" d="M1157,741.19c3,2,9.75,2.06,9.75,2.06,7.16,1.4,6.15,5.84,6.15,5.84a13.67,13.67,0,0,1-3.95.52c-6,0-12.73-2.85-12.73-2.85l.78-5.57m0-4.28a4.15,4.15,0,0,0-1.75.38,4.26,4.26,0,0,0-2.48,3.31l-.78,5.57a4.29,4.29,0,0,0,2.56,4.53c.31.13,7.59,3.18,14.4,3.18a17.92,17.92,0,0,0,5.2-.7A4.28,4.28,0,0,0,1177,750a8.24,8.24,0,0,0-1.22-6.1c-1.61-2.47-4.4-4.12-8.28-4.88a5.16,5.16,0,0,0-.79-.08c-2.64,0-6.25-.57-7.41-1.34a4.23,4.23,0,0,0-2.37-.72Z"/><path class="cls-26" d="M1164.09,743.32a20.19,20.19,0,0,1-8.9-1.9,2.12,2.12,0,0,1-.74-3.1c2.75-4,9.34-15.82,6.76-22.85-4.25-11.56-.18-22.78,0-23.25a2.13,2.13,0,0,1,1.12-1.2,2.08,2.08,0,0,1,.88-.19,2.28,2.28,0,0,1,.77.14c3,1.18,7.93,1.79,14.17,1.79,4.11,0,7.3-.27,7.33-.27h.19a2.14,2.14,0,0,1,1.73.88l15.35,21.07a2.14,2.14,0,0,1,.37.83l4.51,22a2.13,2.13,0,0,1-1.56,2.49,25.63,25.63,0,0,1-15.31-.84,2.13,2.13,0,0,1-1.26-2.31,37.48,37.48,0,0,0-1.1-15.53l-9.41-8.47a53,53,0,0,1-4.63,27.92,2.11,2.11,0,0,1-1.11,1A24.65,24.65,0,0,1,1164.09,743.32Z"/><path class="cls-4" d="M1163.21,693c4,1.56,10.13,1.93,14.94,1.93,4.26,0,7.52-.29,7.52-.29L1201,715.69l4.51,22a23.6,23.6,0,0,1-13.93-.73,39.56,39.56,0,0,0-1.34-17.07L1175.9,707a51.56,51.56,0,0,1-3.44,32.59,22.7,22.7,0,0,1-8.37,1.65,18,18,0,0,1-7.89-1.65s10.55-15.17,7-24.81c-4-11,0-21.76,0-21.76m0-4.28a4.28,4.28,0,0,0-1.75.38,4.23,4.23,0,0,0-2.25,2.41c-.19.5-4.53,12.43,0,24.73,2.26,6.16-4.1,17.43-6.51,20.89a4.28,4.28,0,0,0-.65,3.44,4.33,4.33,0,0,0,2.14,2.77,22.2,22.2,0,0,0,9.91,2.15,27,27,0,0,0,10-2,4.29,4.29,0,0,0,2.21-2,54.53,54.53,0,0,0,5.15-23.86l5.11,4.59a35.36,35.36,0,0,1,.88,14,4.28,4.28,0,0,0,2.53,4.62,26.81,26.81,0,0,0,9.88,1.8,27.16,27.16,0,0,0,6.81-.86,4.26,4.26,0,0,0,3.11-5l-4.51-22a4.27,4.27,0,0,0-.73-1.66l-15.36-21.07a4.25,4.25,0,0,0-3.45-1.76l-.37,0s-3.15.27-7.15.27c-5.9,0-10.65-.59-13.39-1.65a4.39,4.39,0,0,0-1.55-.29Z"/><path class="cls-12" d="M1137.38,705.56a6.91,6.91,0,0,1-6.7-5.06c-1.07-3.35-.12-8.16,4.39-11.35a2.14,2.14,0,0,1,1.24-.39,2.11,2.11,0,0,1,1,.27c.59.32,5.72,3.25,7.05,6.82a2.55,2.55,0,0,1,.13.61c0,.45.22,4.49-2.21,7.08A6.56,6.56,0,0,1,1137.38,705.56Z"/><path class="cls-4" d="M1136.31,690.9s5,2.77,6.08,5.7c0,0,.44,6.82-5,6.82s-7.27-8.15-1.07-12.52m0-4.28a4.35,4.35,0,0,0-2.47.78c-5.4,3.82-6.5,9.65-5.2,13.75a9.1,9.1,0,0,0,8.74,6.54,8.67,8.67,0,0,0,6.49-2.69c3-3.18,2.84-7.79,2.78-8.68a4.22,4.22,0,0,0-.26-1.22c-.39-1-2.1-4.66-8-7.94a4.24,4.24,0,0,0-2.07-.54Z"/><path class="cls-12" d="M1216.62,653.05a2.12,2.12,0,0,1-1.63-.76l-4.71-5.55a2.13,2.13,0,0,1-.44-1.91c.12-.48,3.1-11.84,11.46-11.84h.34a2.14,2.14,0,0,1,1,.28,4.36,4.36,0,0,1,2.11,3.44,5.89,5.89,0,0,1-2.15,4.53c1.05,1.57,2.17,4,1.48,6.43s-3,4.33-6.93,5.31A2.31,2.31,0,0,1,1216.62,653.05Z"/><path class="cls-4" d="M1221.3,635.13h.26s3.36,1.94-1.94,5.82c0,0,7.33,7.37-3,10l-4.71-5.56s2.6-10.22,9.39-10.22m0-4.28h0c-8,0-12.26,8.46-13.53,13.45a4.3,4.3,0,0,0,.88,3.82l4.71,5.56a4.27,4.27,0,0,0,3.26,1.51,4.06,4.06,0,0,0,1-.13c5.84-1.47,7.83-4.51,8.47-6.81a9.27,9.27,0,0,0-.91-6.76,7.32,7.32,0,0,0,1.66-4.88,6.44,6.44,0,0,0-3.19-5.18,4.28,4.28,0,0,0-2-.57Z"/><path class="cls-26" d="M1182.27,699.29a112.3,112.3,0,0,1-23.07-2.24,2.1,2.1,0,0,1-1.4-1.06,2.14,2.14,0,0,1-.13-1.75,42.94,42.94,0,0,0,2-12l-4.42,2.54-8.42,10.94a2.12,2.12,0,0,1-3,.42l-8.43-6.2a2.14,2.14,0,0,1-.45-3l9.54-12.81a1.19,1.19,0,0,1,.15-.18,47.34,47.34,0,0,1,19.87-12.91,44,44,0,0,1,12.92-1.81,52,52,0,0,1,10.57,1.06,39.66,39.66,0,0,0,19-14.08,2.15,2.15,0,0,1,1.66-1h.13a2.13,2.13,0,0,1,1.63.75l5.86,6.92a2.14,2.14,0,0,1,0,2.77c-6.24,7.34-17.57,14.39-21.17,16.53.11,10.68-2.26,24.37-2.36,25a2.15,2.15,0,0,1-2,1.77c-2.79.21-5.67.31-8.57.31Z"/><path class="cls-4" d="M1208.83,647.4l5.86,6.92C1207.53,662.76,1193,671,1193,671c.33,10.73-2.31,25.81-2.31,25.81-2.92.23-5.74.32-8.41.32a111.57,111.57,0,0,1-22.59-2.19c1.76-4.81,2.22-11.42,2.27-16.48l-8.12,4.67-8.68,11.28-8.42-6.2,9.53-12.81a45.56,45.56,0,0,1,18.89-12.31,42.36,42.36,0,0,1,12.34-1.74,48.08,48.08,0,0,1,10.67,1.14,41.34,41.34,0,0,0,20.67-15.12m0-4.27h-.27a4.24,4.24,0,0,0-3.3,1.92h0a37.61,37.61,0,0,1-17.34,13,54.64,54.64,0,0,0-10.43-1,45.91,45.91,0,0,0-13.56,1.92,49.8,49.8,0,0,0-20.8,13.49q-.15.16-.3.36l-9.53,12.81a4.25,4.25,0,0,0-.8,3.18,4.3,4.3,0,0,0,1.69,2.81l8.43,6.2a4.27,4.27,0,0,0,5.92-.84l8.16-10.6.53-.3a32.56,32.56,0,0,1-1.57,7.36,4.28,4.28,0,0,0,3.06,5.64,115.91,115.91,0,0,0,23.55,2.29c3,0,5.89-.11,8.74-.32a4.27,4.27,0,0,0,3.88-3.53,172.85,172.85,0,0,0,2.4-24.13c4.49-2.74,14.74-9.39,20.66-16.36a4.28,4.28,0,0,0,0-5.53l-5.86-6.92a4.27,4.27,0,0,0-3.26-1.51Z"/><path class="cls-27" d="M1173.7,699a2.14,2.14,0,0,1-2-2.57c3.56-17.14-.68-33.38-1-34.32a2.15,2.15,0,0,1,2-3h10.84a2.13,2.13,0,0,1,2.06,1.58c4.22,15.51-1.6,36.21-1.85,37.09a2.15,2.15,0,0,1-2.06,1.55Z"/><path class="cls-4" d="M1183.56,661.27c4.11,15.12-1.85,35.94-1.85,35.94l-7.92-.35c3.78-18.17-.92-35.5-1.07-35.59h10.84m0-4.27h-10.84a4.27,4.27,0,0,0-4,5.8c.33,1.2,4.3,16.7.88,33.19a4.28,4.28,0,0,0,4,5.14l7.92.35h.19a4.26,4.26,0,0,0,4.11-3.1c.26-.89,6.23-22.15,1.87-38.23a4.28,4.28,0,0,0-4.13-3.15Z"/><path class="cls-12" d="M1178.08,663.36a15.69,15.69,0,0,1-15.67-15.67V641a15.67,15.67,0,1,1,31.33,0v6.7A15.68,15.68,0,0,1,1178.08,663.36Z"/><path class="cls-4" d="M1178.08,627.46A13.57,13.57,0,0,1,1191.61,641v6.7a13.53,13.53,0,0,1-27.06,0V641a13.57,13.57,0,0,1,13.53-13.53m0-4.28A17.83,17.83,0,0,0,1160.27,641v6.7a17.81,17.81,0,1,0,35.61,0V641a17.82,17.82,0,0,0-17.8-17.81Z"/><circle class="cls-4" cx="1178.08" cy="645.2" r="2.18"/><circle class="cls-4" cx="1185.01" cy="645.2" r="2.18"/><path class="cls-28" d="M1162.37,652.23a2.14,2.14,0,0,1-1.88-1.12c-7.82-14.37-1.14-25-.86-25.44a2.18,2.18,0,0,1,.6-.61,31.62,31.62,0,0,1,17.93-5.81,29.82,29.82,0,0,1,13.45,3.22,5.83,5.83,0,0,1,4.32-1.86,8.69,8.69,0,0,1,4.47,1.4,2.25,2.25,0,0,1,.56.55,9,9,0,0,1,.52,9.21,7.91,7.91,0,0,1-7.11,4.34,11.26,11.26,0,0,1-5.44-1.55,18.43,18.43,0,0,0-8.89-1.89,40.88,40.88,0,0,0-9.33,1.19,11.41,11.41,0,0,1-6.64,8.13l.43,8a2.13,2.13,0,0,1-1.55,2.17A2,2,0,0,1,1162.37,652.23Z"/><path class="cls-4" d="M1178.16,621.38a26.77,26.77,0,0,1,14.06,3.9,4,4,0,0,1,3.71-2.53,6.59,6.59,0,0,1,3.27,1c2.75,4,.42,10.19-4.83,10.19a9.11,9.11,0,0,1-4.4-1.28,20.82,20.82,0,0,0-9.93-2.15,43.32,43.32,0,0,0-11.23,1.61,9.32,9.32,0,0,1-7,8.34l.53,9.6c-7.3-13.43-.94-23.26-.94-23.26a29.41,29.41,0,0,1,16.73-5.45m0-4.27h0a33.76,33.76,0,0,0-19.13,6.18,4.32,4.32,0,0,0-1.19,1.22c-.32.49-7.65,12.14.77,27.62a4.29,4.29,0,0,0,3.76,2.23,4.21,4.21,0,0,0,1.16-.16,4.29,4.29,0,0,0,3.11-4.35l-.36-6.6a13.51,13.51,0,0,0,6.17-7.59,37.53,37.53,0,0,1,7.59-.85,16.45,16.45,0,0,1,7.86,1.62,13.31,13.31,0,0,0,6.47,1.81,10,10,0,0,0,9-5.48,11.14,11.14,0,0,0-.66-11.42,4.22,4.22,0,0,0-1.12-1.11,10.84,10.84,0,0,0-5.66-1.75,7.89,7.89,0,0,0-4.65,1.47,32.11,32.11,0,0,0-13.12-2.84Z"/><path class="cls-13" d="M1166.8,640.49c-4.55,0-8.27,3.11-8.27,6.92h0c0,3.8,3.72,6.91,8.27,6.91"/><path class="cls-29" d="M1165.15,629.1s13.54-7.44,25.12-.93"/><path class="cls-30" d="M1162.55,737s8.11-8.84,6.17-19.88-2.15-12.47-2.15-12.47"/><path class="cls-30" d="M1143.07,687.81l7.7-10.92s3.59-4,13.78-8.71"/><path class="cls-12" d="M178.55,725.46a15.27,15.27,0,0,1,0-30.53H182a15.27,15.27,0,0,1,0,30.53Z"/><path class="cls-4" d="M182,697.07a13.13,13.13,0,0,1,0,26.25h-3.43a13.13,13.13,0,0,1,0-26.25H182m0-4.28h-3.43a17.4,17.4,0,1,0,0,34.8H182a17.4,17.4,0,0,0,0-34.8Z"/><path class="cls-12" d="M256.79,725.46a15.27,15.27,0,0,1,0-30.53h3.43a15.27,15.27,0,0,1,0,30.53Z"/><path class="cls-4" d="M260.22,697.07a13.13,13.13,0,0,1,0,26.25h-3.43a13.13,13.13,0,0,1,0-26.25h3.43m0-4.28h-3.43a17.4,17.4,0,0,0,0,34.8h3.43a17.4,17.4,0,0,0,0-34.8Z"/><path class="cls-12" d="M219.39,758.85a43.76,43.76,0,0,1-43.72-43.71V694.53a43.72,43.72,0,1,1,87.43,0v20.61A43.76,43.76,0,0,1,219.39,758.85Z"/><path class="cls-4" d="M219.39,653A41.7,41.7,0,0,1,261,694.53v20.61a41.58,41.58,0,1,1-83.15,0V694.53A41.7,41.7,0,0,1,219.39,653m0-4.27a45.9,45.9,0,0,0-45.86,45.85v20.61a45.86,45.86,0,0,0,91.71,0V694.53a45.9,45.9,0,0,0-45.85-45.85Z"/><circle class="cls-4" cx="208.74" cy="710.19" r="6.7"/><circle class="cls-4" cx="230.03" cy="710.19" r="6.7"/><path class="cls-17" d="M178.89,705.63a2.28,2.28,0,0,1-.92-.2c-3.79-1.8-7.45-9-8.14-10.45l-.09-.2c-6.44-17.66,4.1-33.4,5.81-35.79,1.15-3.15,10.09-24.1,46.09-24.1,14.52,0,26.43,4.69,35.41,13.93,10.05,10.34,14.28,24.52,14,34-.41,14.68-7.21,19.35-7.5,19.54a2.15,2.15,0,0,1-1.18.35,2,2,0,0,1-.73-.13,2.12,2.12,0,0,1-1.32-1.4,45.83,45.83,0,0,0-3.77-9.56c-13.74-12.21-32-14.78-45-14.78a101.28,101.28,0,0,0-20.44,2c-7.73,9.76-10.1,24.79-10.12,25a2.14,2.14,0,0,1-2.11,1.81Z"/><path class="cls-4" d="M221.64,637c37,0,47.68,32,47.29,45.71s-6.55,17.82-6.55,17.82c-2.07-7.09-4.16-10.34-4.16-10.34-14-12.59-32.46-15.53-46.66-15.53A100,100,0,0,0,189.92,677c-8.56,10.3-11,26.55-11,26.55-3.31-1.57-7.14-9.45-7.14-9.45-6.53-17.9,5.72-34.06,5.72-34.06s7.2-23,44.17-23m0-4.27c-36.34,0-46.32,20.91-48,25.22-2.26,3.24-12.53,19.41-5.91,37.53a3.56,3.56,0,0,0,.17.41c1.05,2.16,4.82,9.39,9.15,11.44a4.32,4.32,0,0,0,1.83.41,4.28,4.28,0,0,0,4.22-3.63c0-.14,2.24-14.06,9.21-23.34A101,101,0,0,1,211.56,679c12.5,0,30.1,2.44,43.31,14a46.51,46.51,0,0,1,3.41,8.8,4.29,4.29,0,0,0,2.63,2.81,4.42,4.42,0,0,0,1.47.26,4.27,4.27,0,0,0,2.36-.71c.82-.54,8-5.75,8.46-21.26.28-9.91-4.13-24.75-14.61-35.53-9.27-9.54-22-14.57-36.95-14.57Z"/><path class="cls-14" d="M233.16,738.23c-2.72,3.55-7.87,5.94-13.77,5.94s-11.06-2.39-13.78-5.94"/><rect class="cls-31" x="223.58" y="626.35" width="58.56" height="116.63" rx="15.49"/><path class="cls-4" d="M266.65,628.49A13.39,13.39,0,0,1,280,641.84v85.65a13.38,13.38,0,0,1-13.35,13.35H239.07a13.39,13.39,0,0,1-13.36-13.35V641.84a13.39,13.39,0,0,1,13.36-13.35h27.58m0-4.27H239.07a17.64,17.64,0,0,0-17.63,17.62v85.65a17.65,17.65,0,0,0,17.63,17.63h27.58a17.65,17.65,0,0,0,17.63-17.63V641.84a17.64,17.64,0,0,0-17.63-17.62Z"/><line class="cls-32" x1="233.29" y1="657.85" x2="233.29" y2="644.17"/><line class="cls-32" x1="233.29" y1="725.15" x2="233.29" y2="668.59"/><path class="cls-12" d="M266.43,700.4a7.5,7.5,0,1,1,0-15h18.3a7.5,7.5,0,0,1,0,15Z"/><path class="cls-4" d="M284.73,687.53a5.37,5.37,0,0,1,0,10.73h-18.3a5.37,5.37,0,0,1,0-10.73h18.3m0-4.27h-18.3a9.64,9.64,0,0,0,0,19.27h18.3a9.64,9.64,0,0,0,0-19.27Z"/><path class="cls-12" d="M266.43,716.48a7.5,7.5,0,1,1,0-15h18.3a7.5,7.5,0,1,1,0,15Z"/><path class="cls-4" d="M284.73,703.62a5.37,5.37,0,0,1,0,10.73h-18.3a5.37,5.37,0,0,1,0-10.73h18.3m0-4.27h-18.3a9.64,9.64,0,0,0,0,19.27h18.3a9.64,9.64,0,0,0,0-19.27Z"/><path class="cls-12" d="M266.43,732.66a7.5,7.5,0,1,1,0-15h18.3a7.5,7.5,0,0,1,0,15Z"/><path class="cls-4" d="M284.73,719.79a5.37,5.37,0,0,1,0,10.73h-18.3a5.37,5.37,0,0,1,0-10.73h18.3m0-4.27h-18.3a9.64,9.64,0,0,0,0,19.27h18.3a9.64,9.64,0,0,0,0-19.27Z"/><path class="cls-33" d="M263.88,659.47h0a6.2,6.2,0,0,1-6.18-6.18h0a6.19,6.19,0,0,1,6.18-6.17h0a6.19,6.19,0,0,1,6.17,6.17h0A6.19,6.19,0,0,1,263.88,659.47Z"/></svg>