<?xml version="1.0" encoding="utf-8"?>
<!-- Generator: Adobe Illustrator 24.1.2, SVG Export Plug-In . SVG Version: 6.00 Build 0)  -->
<svg version="1.1" xmlns="http://www.w3.org/2000/svg" xmlns:xlink="http://www.w3.org/1999/xlink" x="0px" y="0px"
	 viewBox="0 0 302.76 228.2" style="enable-background:new 0 0 302.76 228.2;" xml:space="preserve">
<style type="text/css">
	.st0{fill:#FFFFFF;}
	.st1{fill:#FFC557;stroke:#FFC557;stroke-miterlimit:10;}
	.st2{fill:#7F2629;}
	.st3{fill:#758592;stroke:#758592;stroke-miterlimit:10;}
	.st4{fill:#758592;}
	.st5{fill:#4E738A;}
	.st6{fill:#243746;stroke:#243746;stroke-miterlimit:10;}
	.st7{fill:none;stroke:#000000;stroke-miterlimit:10;}
	.st8{stroke:#000000;stroke-miterlimit:10;}
	.st9{fill:none;}
	.st10{font-family:'Herculanum';}
	.st11{font-size:52.0259px;}
	.st12{font-size:27.3604px;}
	.st13{fill:#A32035;stroke:#000000;stroke-miterlimit:10;}
	.st14{fill:#FFC557;stroke:#000000;stroke-miterlimit:10;}
	.st15{fill:#FFFFFF;stroke:#000000;stroke-miterlimit:10;}
	.st16{fill:#243746;stroke:#000000;stroke-miterlimit:10;}
	.st17{fill:#4E738A;stroke:#000000;stroke-miterlimit:10;}
	.st18{fill:#758592;stroke:#000000;stroke-miterlimit:10;}
	.st19{clip-path:url(#SVGID_2_);}
	.st20{fill:#FFFFFF;stroke:#FFFFFF;stroke-miterlimit:10;}
	.st21{clip-path:url(#SVGID_4_);}
	.st22{fill:#FFC557;}
	.st23{display:none;}
	.st24{display:inline;opacity:0.25;fill:none;stroke:#000000;stroke-miterlimit:10;}
</style>
<g id="Layer_2">
	<g>
		<path class="st9" d="M192.56,139.46c-26.64,0-53.27,0-79.91,0c0-25.32,0-50.65,0-75.97c26.64,0,53.27,0,79.91,0
			C192.56,88.81,192.56,114.14,192.56,139.46z M165.45,100.04c6.47-4.16,11.51-9.33,15.19-15.86c-0.76-0.21-1.37-0.42-1.99-0.55
			c-6.87-1.47-13.8-1.87-20.79-1c-1.07,0.13-1.98,0.23-2.83-0.75c-3.78-4.33-7.65-8.58-11.5-12.85c-1.43-1.59-2.88-3.15-4.61-5.04
			c0,0.89,0,1.33,0,1.77c0,7.15-0.03,14.29,0.03,21.44c0.01,1.19-0.42,1.83-1.39,2.6c-3.58,2.83-7.18,5.67-10.42,8.83
			c-2.04,1.99-3.45,4.56-5.34,7.13c7.53,1.74,14.58,2.45,21.9,1.69c-1.58,10.02,0.5,19.42,4.01,28.62c2.36-0.34,2.28-0.34,2.12-2.4
			c-0.34-4.2,0.56-8.08,3.7-11.23c5.56-5.57,17.49-8.45,25.58,1.89c1.1,1.41,1.94,1.52,3.44,0.16c-1.86-3.7-3.61-7.57-5.7-11.27
			C174,108.18,170.31,103.74,165.45,100.04z M134,115.62c0.92,0.04,1.72-0.05,2.42,0.15c0.45,0.13,1.13,0.73,1.08,1.03
			c-0.08,0.48-0.59,1.02-1.07,1.27c-0.41,0.22-1.04,0.08-1.57,0.08c-4.55,0-9.11,0-13.66,0c-1.16,0-2.33,0-3.46,0
			c0,0.87,0,1.51,0,2.29c5.96,0,11.81,0,17.65,0c0.59,0,1.19,0.01,1.76-0.1c1.93-0.35,3.05-1.87,2.88-3.84
			c-0.15-1.74-1.49-2.98-3.37-3.07c-0.87-0.04-1.74-0.01-2.67-0.01C134,114.22,134,114.82,134,115.62z M183.97,132.35
			c0.59,0,1.11,0,1.64,0c0.92-0.01,1.94-0.02,1.94,1.17c0,1.15-0.97,1.22-1.91,1.22c-4.38-0.01-8.75,0-13.13-0.01
			c-1.58,0-3.16,0-4.7,0c0,0.9,0,1.59,0,2.37c1.68,0,3.21,0,4.74,0c4.55,0,9.11,0.03,13.66-0.01c2.28-0.02,3.88-1.57,3.87-3.58
			c0-1.96-1.56-3.43-3.74-3.51c-0.76-0.03-1.52,0-2.36,0C183.97,130.83,183.97,131.53,183.97,132.35z M167.74,75.32
			c4.83,0,9.5,0,14.16,0c1.42,0,2.85-0.1,4.25,0.06c0.51,0.06,0.94,0.76,1.41,1.17c-0.47,0.39-0.89,0.96-1.44,1.14
			c-0.62,0.2-1.37,0.05-2.16,0.05c0,0.83,0,1.49,0,2.32c0.67,0,1.31,0.01,1.94,0c2.48-0.03,4.11-1.38,4.16-3.45
			c0.05-2.14-1.61-3.61-4.18-3.62c-3.67-0.03-7.34-0.01-11.01-0.01c-2.35,0-4.7,0-7.14,0C167.74,73.8,167.74,74.45,167.74,75.32z
			 M121.56,125.2c3.22,0,6.23-0.06,9.24,0.05c0.62,0.02,1.64,0.65,1.73,1.12c0.2,1.13-0.84,1.27-1.79,1.26c-0.57,0-1.13,0-1.68,0
			c0,0.89,0,1.54,0,2.42c1.28-0.12,2.47-0.08,3.58-0.36c1.74-0.43,2.63-1.99,2.42-3.82c-0.18-1.54-1.48-2.9-3.15-2.94
			c-3.42-0.09-6.83-0.03-10.34-0.03C121.56,123.7,121.56,124.35,121.56,125.2z M173.69,68.31c-5.41,0-10.64,0-15.89,0
			c0,0.79,0,1.48,0,2.18c5.36,0,10.59,0,15.89,0C173.69,69.75,173.69,69.1,173.69,68.31z M161.46,134.8c0,0.82,0,1.51,0,2.22
			c1.22,0,2.3,0,3.49,0c0-0.76,0-1.45,0-2.22C163.76,134.8,162.67,134.8,161.46,134.8z M164.95,73.08c-1.29,0-2.38,0-3.48,0
			c0,0.8,0,1.48,0,2.14c1.22,0,2.31,0,3.48,0C164.95,74.48,164.95,73.83,164.95,73.08z M115.25,122.98c0,0.8,0,1.45,0,2.13
			c1.21,0,2.29,0,3.48,0c0-0.75,0-1.4,0-2.13C117.55,122.98,116.45,122.98,115.25,122.98z"/>
		<path class="st8" d="M165.45,100.04c4.86,3.7,8.55,8.14,11.39,13.17c2.09,3.7,3.84,7.57,5.7,11.27c-1.5,1.36-2.34,1.25-3.44-0.16
			c-8.09-10.35-20.02-7.47-25.58-1.89c-3.14,3.15-4.04,7.03-3.7,11.23c0.17,2.06,0.25,2.06-2.12,2.4
			c-3.51-9.2-5.59-18.59-4.01-28.62c-7.32,0.76-14.37,0.05-21.9-1.69c1.89-2.57,3.3-5.14,5.34-7.13c3.24-3.16,6.84-6,10.42-8.83
			c0.97-0.77,1.4-1.4,1.39-2.6c-0.06-7.15-0.03-14.29-0.03-21.44c0-0.44,0-0.88,0-1.77c1.73,1.89,3.18,3.45,4.61,5.04
			c3.85,4.27,7.72,8.53,11.5,12.85c0.86,0.98,1.77,0.89,2.83,0.75c6.99-0.88,13.92-0.48,20.79,1c0.63,0.13,1.23,0.34,1.99,0.55
			C176.96,90.71,171.92,95.88,165.45,100.04z M149.12,86.77c0.94,2.37,1.74,4.54,2.68,6.66c0.2,0.46,0.82,0.86,1.34,1.06
			c3.06,1.14,6.19,2.11,9.19,3.38c1.06,0.45,1.66,0.39,2.51-0.21c4.06-2.88,7.7-6.14,10.64-10.08c0.42-0.56,0.78-1.16,1.26-1.89
			C167.29,83.93,158.25,83.97,149.12,86.77z M146.83,87.74c-8.84,3.45-15.69,8.8-20.87,16.44c5.9,1.09,11.52,1.5,17.19,0.84
			c0.51-0.06,1.1-0.64,1.39-1.12c1.58-2.6,3.1-5.24,4.58-7.9c0.26-0.47,0.48-1.16,0.31-1.62C148.67,92.21,147.76,90.08,146.83,87.74
			z M176.76,118.61c0.11-0.26,0.17-0.32,0.15-0.36c-3.06-6.3-7.15-11.88-12.85-16.3c-0.3-0.23-0.91-0.39-1.22-0.26
			c-2.18,0.94-4.32,1.96-6.54,2.99c1.45,3.74,2.86,7.36,4.3,11.07C166.5,114.32,171.84,115.25,176.76,118.61z M147.7,127.64
			c1.62-5.27,5.06-8.87,10.44-10.94c-1.46-3.74-2.88-7.4-4.3-11.05c-2.06,0.47-3.87,1.04-5.73,1.24c-1.47,0.17-1.81,0.93-1.99,2.06
			C145.14,115.3,145.91,121.5,147.7,127.64z M145.97,85.52c-1.46-3.72-2.85-7.28-4.24-10.84c-0.08,0.03-0.16,0.06-0.24,0.1
			c0,4.18,0,8.36,0,12.69C143.02,86.8,144.4,86.2,145.97,85.52z M153.16,83.27c-2.98-3.27-5.82-6.39-8.66-9.51
			c-0.1,0.07-0.21,0.13-0.31,0.2c1.38,3.5,2.76,6.99,4.18,10.59C149.98,84.12,151.44,83.73,153.16,83.27z M160.55,100.16
			c0.03-0.21,0.06-0.41,0.1-0.62c-2.38-0.88-4.75-1.76-7.13-2.64c-0.08,0.15-0.16,0.3-0.24,0.45c0.65,1.65,1.3,3.3,2,5.08
			C157.16,101.63,158.85,100.9,160.55,100.16z M147.13,104.16c0.17,0.14,0.33,0.29,0.5,0.43c1.72-0.44,3.43-0.88,5.3-1.36
			c-0.73-1.85-1.35-3.45-1.98-5.05c-0.16-0.04-0.32-0.08-0.48-0.12C149.35,100.1,148.24,102.13,147.13,104.16z"/>
		<path d="M134,115.62c0-0.8,0-1.4,0-2.2c0.94,0,1.81-0.03,2.67,0.01c1.88,0.09,3.22,1.33,3.37,3.07c0.17,1.97-0.95,3.49-2.88,3.84
			c-0.57,0.11-1.17,0.1-1.76,0.1c-5.85,0.01-11.69,0-17.65,0c0-0.78,0-1.42,0-2.29c1.13,0,2.29,0,3.46,0c4.55,0,9.11,0,13.66,0
			c0.53,0,1.16,0.13,1.57-0.08c0.48-0.25,1-0.79,1.07-1.27c0.05-0.3-0.62-0.9-1.08-1.03C135.72,115.57,134.93,115.66,134,115.62z"/>
		<path d="M183.97,132.35c0-0.82,0-1.52,0-2.36c0.84,0,1.6-0.02,2.36,0c2.18,0.08,3.74,1.55,3.74,3.51c0,2.01-1.6,3.56-3.87,3.58
			c-4.55,0.04-9.11,0.01-13.66,0.01c-1.53,0-3.06,0-4.74,0c0-0.78,0-1.47,0-2.37c1.54,0,3.12,0,4.7,0c4.38,0,8.75,0,13.13,0.01
			c0.95,0,1.91-0.07,1.91-1.22c0-1.19-1.02-1.18-1.94-1.17C185.08,132.35,184.55,132.35,183.97,132.35z"/>
		<path class="st9" d="M167.74,75.32c0-0.87,0-1.52,0-2.34c2.44,0,4.79,0,7.14,0c3.67,0,7.34-0.01,11.01,0.01
			c2.57,0.02,4.23,1.48,4.18,3.62c-0.05,2.07-1.68,3.43-4.16,3.45c-0.64,0.01-1.27,0-1.94,0c0-0.84,0-1.49,0-2.32
			c0.79,0,1.54,0.15,2.16-0.05c0.55-0.18,0.96-0.74,1.44-1.14c-0.47-0.41-0.9-1.11-1.41-1.17c-1.4-0.17-2.83-0.06-4.25-0.06
			C177.24,75.32,172.57,75.32,167.74,75.32z"/>
		<path d="M121.56,125.2c0-0.85,0-1.5,0-2.29c3.51,0,6.93-0.06,10.34,0.03c1.66,0.04,2.97,1.4,3.15,2.94
			c0.21,1.83-0.68,3.39-2.42,3.82c-1.11,0.28-2.3,0.24-3.58,0.36c0-0.88,0-1.53,0-2.42c0.55,0,1.11,0,1.68,0
			c0.95,0,2-0.13,1.79-1.26c-0.08-0.47-1.11-1.1-1.73-1.12C127.79,125.14,124.78,125.2,121.56,125.2z"/>
		<path class="st9" d="M173.69,68.31c0,0.78,0,1.44,0,2.18c-5.31,0-10.54,0-15.89,0c0-0.7,0-1.39,0-2.18
			C163.05,68.31,168.28,68.31,173.69,68.31z"/>
		<path d="M161.46,134.8c1.21,0,2.3,0,3.49,0c0,0.77,0,1.45,0,2.22c-1.18,0-2.27,0-3.49,0C161.46,136.31,161.46,135.62,161.46,134.8
			z"/>
		<path class="st9" d="M164.95,73.08c0,0.75,0,1.39,0,2.14c-1.17,0-2.26,0-3.48,0c0-0.66,0-1.34,0-2.14
			C162.57,73.08,163.66,73.08,164.95,73.08z"/>
		<path d="M115.25,122.98c1.2,0,2.3,0,3.48,0c0,0.73,0,1.38,0,2.13c-1.18,0-2.27,0-3.48,0
			C115.25,124.42,115.25,123.78,115.25,122.98z"/>
		<path class="st9" d="M149.12,86.77c9.14-2.8,18.17-2.84,27.62-1.08c-0.48,0.72-0.84,1.32-1.26,1.89
			c-2.94,3.94-6.58,7.21-10.64,10.08c-0.84,0.6-1.45,0.65-2.51,0.21c-3-1.26-6.13-2.23-9.19-3.38c-0.52-0.2-1.14-0.6-1.34-1.06
			C150.86,91.31,150.05,89.14,149.12,86.77z"/>
		<path class="st9" d="M146.83,87.74c0.93,2.34,1.83,4.46,2.6,6.64c0.16,0.46-0.05,1.15-0.31,1.62c-1.48,2.66-3,5.29-4.58,7.9
			c-0.29,0.48-0.88,1.07-1.39,1.12c-5.67,0.66-11.29,0.25-17.19-0.84C131.14,96.54,137.99,91.19,146.83,87.74z"/>
		<path class="st9" d="M176.76,118.61c-4.91-3.35-10.26-4.29-16.16-2.85c-1.44-3.72-2.85-7.34-4.3-11.07
			c2.22-1.03,4.36-2.05,6.54-2.99c0.31-0.13,0.92,0.03,1.22,0.26c5.7,4.42,9.79,9.99,12.85,16.3
			C176.92,118.28,176.87,118.34,176.76,118.61z"/>
		<path class="st9" d="M147.7,127.64c-1.79-6.14-2.57-12.35-1.58-18.68c0.18-1.13,0.51-1.9,1.99-2.06c1.86-0.21,3.67-0.78,5.73-1.24
			c1.42,3.65,2.84,7.3,4.3,11.05C152.77,118.77,149.32,122.37,147.7,127.64z"/>
		<path class="st9" d="M145.97,85.52c-1.58,0.69-2.95,1.29-4.49,1.95c0-4.33,0-8.51,0-12.69c0.08-0.03,0.16-0.06,0.24-0.1
			C143.12,78.24,144.52,81.8,145.97,85.52z"/>
		<path class="st9" d="M153.16,83.27c-1.72,0.46-3.18,0.85-4.8,1.28c-1.42-3.59-2.8-7.09-4.18-10.59c0.1-0.07,0.21-0.13,0.31-0.2
			C147.34,76.88,150.18,80,153.16,83.27z"/>
		<path class="st9" d="M160.55,100.16c-1.69,0.73-3.39,1.46-5.27,2.27c-0.7-1.79-1.35-3.44-2-5.08c0.08-0.15,0.16-0.3,0.24-0.45
			c2.38,0.88,4.75,1.76,7.13,2.64C160.61,99.75,160.58,99.96,160.55,100.16z"/>
		<path class="st9" d="M147.13,104.16c1.11-2.03,2.22-4.06,3.33-6.09c0.16,0.04,0.32,0.08,0.48,0.12c0.63,1.6,1.25,3.19,1.98,5.05
			c-1.86,0.48-3.58,0.92-5.3,1.36C147.46,104.45,147.29,104.31,147.13,104.16z"/>
	</g>
	<line class="st8" x1="19.74" y1="226.13" x2="282.56" y2="226.13"/>
	<g id="Atzfq8_2_">
		<g>
			<path class="st8" d="M151.11,30.86c-21,35.34-42.81,69.5-74.94,94.84c-3.27-9.31-0.12-16.16,7.6-21.57
				c-1.71,3.23-3.27,6.19-4.93,9.32c3.53,1.29,5.89,0.01,8.02-2.05c9.21-8.9,16.77-19.18,23.81-29.89
				c15.81-24.04,28.15-49.94,38.86-76.7c0.42-1.05,0.88-2.09,1.49-3.54c3.41,8.03,6.54,15.72,9.93,23.3
				c11.6,26.01,24.83,51.06,42.42,73.44c3.65,4.65,7.77,8.92,11.79,13.25c2.01,2.16,4.47,3.42,8.15,2.24
				c-1.67-3.13-3.25-6.1-5.19-9.73c7.44,5.85,11.58,12.24,7.82,21.53c-0.58-0.4-1.55-1.02-2.46-1.72
				c-15.7-12.23-28.82-27.1-40.26-43.38c-10.55-15.01-20.14-30.73-30.14-46.14C152.48,33.14,151.92,32.17,151.11,30.86z"/>
		</g>
	</g>
	<g>
		<path class="st8" d="M111.22,148.37h-96.3c0,0-12.43-0.37-10.91-11.82c0,0,0.13-6.59,8.37-6.84c0,0,5.45,0,6.09,5.47
			c0,0,2.11,5.71-6.21,4.98c0,0-2.24,1.23,0.2,2.87c0,0,7.12,1.25,8.02-1.98c0,0,2.74-4.4-0.05-10.41c0,0-3.53-6.13-13.13-3.14
			c0,0-5.43,1.8-6.78,10.02c0,0-0.75,13.2,12.45,13.85h98.26V148.37z"/>
		<path class="st8" d="M187.28,148.51l100.04-0.42c0,0,12.91-0.43,11.28-11.87c0,0-0.16-6.59-8.72-6.81c0,0-5.66,0.02-6.3,5.5
			c0,0-2.17,5.72,6.48,4.95c0,0,2.33,1.22-0.2,2.87c0,0-7.39,1.28-8.34-1.94c0,0-2.86-4.39,0.01-10.41c0,0,3.64-6.14,13.63-3.2
			c0,0,5.65,1.78,7.09,9.99c0,0,0.83,13.19-12.87,13.9l-102.08,0.43L187.28,148.51z"/>
	</g>
	<text transform="matrix(0.9764 0 0 1 20.9836 189.5143)"><tspan x="0" y="0" class="st10 st11">Wow Thai </tspan><tspan x="95.65" y="32.83" class="st10 st12">Bistro</tspan></text>
	<line class="st8" x1="8.62" y1="203.32" x2="294.78" y2="203.32"/>
</g>
<g id="Layer_3">
</g>
<g id="template" class="st23">
	<rect x="1.19" y="0.29" class="st24" width="300" height="300"/>
	
		<rect x="1.19" y="0.29" transform="matrix(0.7071 -0.7071 0.7071 0.7071 -61.9893 150.928)" class="st24" width="300" height="300"/>
	<rect x="45.13" y="44.23" class="st24" width="212.13" height="212.13"/>
	
		<rect x="45.13" y="44.23" transform="matrix(0.7071 -0.7071 0.7071 0.7071 -61.9893 150.928)" class="st24" width="212.13" height="212.13"/>
	
		<rect x="76.19" y="75.29" transform="matrix(0.7071 -0.7071 0.7071 0.7071 -61.9893 150.9278)" class="st24" width="150" height="150"/>
	
		<rect x="98.16" y="97.26" transform="matrix(0.7071 -0.7071 0.7071 0.7071 -61.9893 150.9276)" class="st24" width="106.07" height="106.07"/>
	
		<rect x="98.16" y="97.26" transform="matrix(2.368369e-06 -1 1 2.368369e-06 0.8996 301.4832)" class="st24" width="106.07" height="106.07"/>
	
		<rect x="76.19" y="75.29" transform="matrix(1.488782e-06 -1 1 1.488782e-06 0.8997 301.4833)" class="st24" width="150" height="150"/>
	<circle class="st24" cx="151.19" cy="150.29" r="212.13"/>
	<circle class="st24" cx="151.19" cy="150.29" r="150"/>
	<circle class="st24" cx="151.19" cy="150.29" r="107.07"/>
	<circle class="st24" cx="151.19" cy="150.29" r="75"/>
</g>
</svg>
